Raleway-Black-Italic-TTF.ufo
<glyph name="dollar" format="1">
  <advance width="630"/>
  <unicode hex="0024"/>
  <outline>
    <contour>
      <point x="524" y="478" type="line"/>
      <point x="521" y="481"/>
      <point x="499" y="496"/>
      <point x="465" y="515"/>
      <point x="420" y="534"/>
      <point x="394" y="539" type="qcurve"/>
      <point x="375" y="450" type="line"/>
      <point x="413" y="437" type="line"/>
      <point x="448" y="425"/>
      <point x="507" y="395"/>
      <point x="550" y="354"/>
      <point x="574" y="299"/>
      <point x="574" y="262" type="qcurve"/>
      <point x="574" y="191"/>
      <point x="524" y="92"/>
      <point x="444" y="28"/>
      <point x="343" y="-5"/>
      <point x="292" y="-8" type="qcurve"/>
      <point x="267" y="-129" type="line"/>
      <point x="187" y="-129" type="line"/>
      <point x="213" y="-6" type="line"/>
      <point x="150" y="0"/>
      <point x="29" y="42"/>
      <point x="-16" y="74" type="qcurve"/>
      <point x="104" y="244" type="line"/>
      <point x="106" y="242"/>
      <point x="132" y="222"/>
      <point x="176" y="198"/>
      <point x="233" y="175"/>
      <point x="265" y="170" type="qcurve"/>
      <point x="283" y="256" type="line"/>
      <point x="224" y="277" type="line"/>
      <point x="157" y="301"/>
      <point x="93" y="377"/>
      <point x="93" y="434" type="qcurve"/>
      <point x="93" y="495"/>
      <point x="139" y="594"/>
      <point x="216" y="666"/>
      <point x="314" y="708"/>
      <point x="366" y="714" type="qcurve"/>
      <point x="388" y="815" type="line"/>
      <point x="467" y="815" type="line"/>
      <point x="445" y="713" type="line"/>
      <point x="475" y="709"/>
      <point x="532" y="693"/>
      <point x="582" y="672"/>
      <point x="625" y="649"/>
      <point x="642" y="639" type="qcurve"/>
    </contour>
    <contour>
      <point x="354" y="204" type="qcurve"/>
      <point x="354" y="223"/>
      <point x="329" y="236" type="qcurve"/>
      <point x="315" y="167" type="line"/>
      <point x="340" y="169"/>
      <point x="354" y="191"/>
    </contour>
    <contour>
      <point x="307" y="501" type="qcurve"/>
      <point x="307" y="482"/>
      <point x="328" y="470" type="qcurve"/>
      <point x="344" y="541" type="line"/>
      <point x="328" y="538"/>
      <point x="307" y="518"/>
    </contour>
  </outline>
</glyph>
<glyph name="percent" format="1">
  <advance width="825"/>
  <unicode hex="0025"/>
  <outline>
    <contour>
      <point x="227" y="404" type="qcurve"/>
      <point x="195" y="404"/>
      <point x="143" y="424"/>
      <point x="106" y="460"/>
      <point x="86" y="508"/>
      <point x="86" y="536" type="qcurve"/>
      <point x="86" y="573"/>
      <point x="121" y="640"/>
      <point x="178" y="691"/>
      <point x="253" y="720"/>
      <point x="294" y="720" type="qcurve"/>
      <point x="325" y="720"/>
      <point x="377" y="700"/>
      <point x="415" y="664"/>
      <point x="435" y="616"/>
      <point x="435" y="588" type="qcurve"/>
      <point x="435" y="550"/>
      <point x="400" y="484"/>
      <point x="343" y="433"/>
      <point x="267" y="404"/>
    </contour>
    <contour>
      <point x="246" y="494" type="qcurve"/>
      <point x="256" y="494"/>
      <point x="277" y="508"/>
      <point x="294" y="532"/>
      <point x="305" y="563"/>
      <point x="305" y="580" type="qcurve"/>
      <point x="305" y="601"/>
      <point x="289" y="630"/>
      <point x="275" y="630" type="qcurve"/>
      <point x="265" y="630"/>
      <point x="244" y="616"/>
      <point x="227" y="592"/>
      <point x="216" y="561"/>
      <point x="216" y="544" type="qcurve"/>
      <point x="216" y="523"/>
      <point x="232" y="494"/>
    </contour>
    <contour>
      <point x="554" y="-10" type="qcurve"/>
      <point x="522" y="-10"/>
      <point x="470" y="10"/>
      <point x="433" y="46"/>
      <point x="413" y="94"/>
      <point x="413" y="122" type="qcurve"/>
      <point x="413" y="159"/>
      <point x="448" y="226"/>
      <point x="505" y="277"/>
      <point x="580" y="306"/>
      <point x="621" y="306" type="qcurve"/>
      <point x="652" y="306"/>
      <point x="704" y="286"/>
      <point x="742" y="250"/>
      <point x="762" y="202"/>
      <point x="762" y="174" type="qcurve"/>
      <point x="762" y="136"/>
      <point x="727" y="70"/>
      <point x="670" y="19"/>
      <point x="594" y="-10"/>
    </contour>
    <contour>
      <point x="573" y="80" type="qcurve"/>
      <point x="583" y="80"/>
      <point x="604" y="94"/>
      <point x="620" y="118"/>
      <point x="631" y="149"/>
      <point x="631" y="166" type="qcurve"/>
      <point x="631" y="187"/>
      <point x="616" y="216"/>
      <point x="602" y="216" type="qcurve"/>
      <point x="592" y="216"/>
      <point x="571" y="202"/>
      <point x="554" y="178"/>
      <point x="543" y="147"/>
      <point x="543" y="130" type="qcurve"/>
      <point x="543" y="109"/>
      <point x="559" y="80"/>
    </contour>
    <contour>
      <point x="68" y="65" type="line"/>
      <point x="405" y="384" type="line"/>
      <point x="713" y="721" type="line"/>
      <point x="780" y="646" type="line"/>
      <point x="457" y="337" type="line"/>
      <point x="135" y="-10" type="line"/>
    </contour>
  </outline>
</glyph>
<glyph name="slash" format="1">
  <advance width="771"/>
  <unicode hex="002F"/>
  <outline>
    <contour>
      <point x="825" y="710" type="line"/>
      <point x="181" y="0" type="line"/>
      <point x="-28" y="0" type="line"/>
      <point x="616" y="710" type="line"/>
    </contour>
  </outline>
</glyph>
<glyph name="zero" format="1">
  <advance width="595"/>
  <unicode hex="0030"/>
  <outline>
    <contour>
      <point x="231" y="-10" type="qcurve"/>
      <point x="186" y="-10"/>
      <point x="113" y="25"/>
      <point x="62" y="88"/>
      <point x="34" y="174"/>
      <point x="34" y="226" type="qcurve"/>
      <point x="34" y="303"/>
      <point x="88" y="438"/>
      <point x="179" y="539"/>
      <point x="297" y="597"/>
      <point x="361" y="597" type="qcurve"/>
      <point x="406" y="597"/>
      <point x="479" y="562"/>
      <point x="530" y="499"/>
      <point x="558" y="412"/>
      <point x="558" y="360" type="qcurve"/>
      <point x="558" y="283"/>
      <point x="503" y="148"/>
      <point x="412" y="48"/>
      <point x="294" y="-10"/>
    </contour>
    <contour>
      <point x="268" y="164" type="qcurve"/>
      <point x="286" y="164"/>
      <point x="320" y="193"/>
      <point x="347" y="241"/>
      <point x="363" y="305"/>
      <point x="363" y="340" type="qcurve"/>
      <point x="363" y="377"/>
      <point x="343" y="423"/>
      <point x="324" y="423" type="qcurve"/>
      <point x="304" y="423"/>
      <point x="269" y="393"/>
      <point x="242" y="344"/>
      <point x="226" y="280"/>
      <point x="226" y="246" type="qcurve"/>
      <point x="226" y="209"/>
      <point x="248" y="164"/>
    </contour>
  </outline>
</glyph>
<glyph name="nine" format="1">
  <advance width="574"/>
  <unicode hex="0039"/>
  <outline>
    <contour>
      <point x="167" y="-155" type="qcurve"/>
      <point x="46" y="-155"/>
      <point x="-29" y="-59" type="qcurve"/>
      <point x="102" y="63" type="line"/>
      <point x="142" y="9"/>
      <point x="205" y="9" type="qcurve"/>
      <point x="248" y="9"/>
      <point x="311" y="68"/>
      <point x="325" y="122" type="qcurve"/>
      <point x="281" y="88"/>
      <point x="222" y="88" type="qcurve"/>
      <point x="178" y="88"/>
      <point x="106" y="117"/>
      <point x="55" y="168"/>
      <point x="28" y="238"/>
      <point x="28" y="279" type="qcurve"/>
      <point x="28" y="338"/>
      <point x="79" y="444"/>
      <point x="165" y="524"/>
      <point x="278" y="571"/>
      <point x="340" y="571" type="qcurve"/>
      <point x="437" y="571"/>
      <point x="535" y="442"/>
      <point x="535" y="327" type="qcurve"/>
      <point x="535" y="225"/>
      <point x="481" y="49"/>
      <point x="384" y="-81"/>
      <point x="249" y="-155"/>
    </contour>
    <contour>
      <point x="269" y="237" type="qcurve"/>
      <point x="287" y="237"/>
      <point x="320" y="253"/>
      <point x="346" y="281"/>
      <point x="362" y="318"/>
      <point x="362" y="339" type="qcurve"/>
      <point x="362" y="369"/>
      <point x="331" y="412"/>
      <point x="306" y="412" type="qcurve"/>
      <point x="290" y="412"/>
      <point x="256" y="394"/>
      <point x="229" y="364"/>
      <point x="212" y="325"/>
      <point x="212" y="304" type="qcurve"/>
      <point x="212" y="275"/>
      <point x="243" y="237"/>
    </contour>
  </outline>
</glyph>
<glyph name="at" format="1">
  <advance width="820"/>
  <unicode hex="0040"/>
  <outline>
    <contour>
      <point x="588" y="64" type="qcurve"/>
      <point x="608" y="64"/>
      <point x="647" y="104"/>
      <point x="677" y="168"/>
      <point x="696" y="249"/>
      <point x="696" y="291" type="qcurve"/>
      <point x="696" y="347"/>
      <point x="661" y="436"/>
      <point x="597" y="499"/>
      <point x="506" y="533"/>
      <point x="449" y="533" type="qcurve"/>
      <point x="374" y="533"/>
      <point x="243" y="475"/>
      <point x="147" y="375"/>
      <point x="91" y="241"/>
      <point x="91" y="164" type="qcurve"/>
      <point x="91" y="51"/>
      <point x="209" y="-76"/>
      <point x="313" y="-76" type="qcurve"/>
      <point x="349" y="-76"/>
      <point x="420" y="-58"/>
      <point x="466" y="-38" type="qcurve"/>
      <point x="473" y="-106" type="line"/>
      <point x="387" y="-146"/>
      <point x="299" y="-146" type="qcurve"/>
      <point x="234" y="-146"/>
      <point x="129" y="-103"/>
      <point x="56" y="-25"/>
      <point x="16" y="86"/>
      <point x="16" y="155" type="qcurve"/>
      <point x="16" y="248"/>
      <point x="87" y="412"/>
      <point x="209" y="533"/>
      <point x="374" y="603"/>
      <point x="467" y="603" type="qcurve"/>
      <point x="536" y="603"/>
      <point x="648" y="564"/>
      <point x="727" y="489"/>
      <point x="771" y="380"/>
      <point x="771" y="311" type="qcurve"/>
      <point x="771" y="249"/>
      <point x="737" y="132"/>
      <point x="678" y="40"/>
      <point x="597" y="-16"/>
      <point x="550" y="-16" type="qcurve"/>
      <point x="514" y="-16"/>
      <point x="469" y="18"/>
      <point x="469" y="49" type="qcurve"/>
      <point x="469" y="51"/>
      <point x="469" y="57"/>
      <point x="470" y="60" type="qcurve"/>
      <point x="428" y="25"/>
      <point x="357" y="-6"/>
      <point x="319" y="-6" type="qcurve"/>
      <point x="244" y="-6"/>
      <point x="157" y="95"/>
      <point x="157" y="178" type="qcurve"/>
      <point x="157" y="236"/>
      <point x="199" y="341"/>
      <point x="270" y="421"/>
      <point x="362" y="468"/>
      <point x="412" y="468" type="qcurve"/>
      <point x="458" y="468"/>
      <point x="519" y="428"/>
      <point x="526" y="394" type="qcurve"/>
      <point x="536" y="450" type="line"/>
      <point x="619" y="450" type="line"/>
      <point x="560" y="135" type="line"/>
      <point x="558" y="127"/>
      <point x="556" y="109"/>
      <point x="556" y="102" type="qcurve"/>
      <point x="556" y="85"/>
      <point x="573" y="64"/>
    </contour>
    <contour>
      <point x="354" y="82" type="qcurve"/>
      <point x="394" y="82"/>
      <point x="445" y="127"/>
      <point x="463" y="169" type="qcurve"/>
      <point x="479" y="284" type="line"/>
      <point x="477" y="316"/>
      <point x="438" y="363"/>
      <point x="403" y="363" type="qcurve"/>
      <point x="378" y="363"/>
      <point x="329" y="336"/>
      <point x="290" y="288"/>
      <point x="266" y="223"/>
      <point x="266" y="186" type="qcurve"/>
      <point x="266" y="165"/>
      <point x="275" y="127"/>
      <point x="296" y="99"/>
      <point x="330" y="82"/>
    </contour>
  </outline>
</glyph>
<glyph name="J" format="1">
  <advance width="488"/>
  <unicode hex="004A"/>
  <outline>
    <contour>
      <point x="423" y="708" type="move" name="top"/>
    </contour>
    <contour>
      <point x="89" y="-11" type="qcurve"/>
      <point x="4" y="-11"/>
      <point x="-48" y="33" type="qcurve"/>
      <point x="26" y="192" type="line"/>
      <point x="28" y="190"/>
      <point x="44" y="180"/>
      <point x="71" y="170"/>
      <point x="106" y="162"/>
      <point x="126" y="162" type="qcurve"/>
      <point x="154" y="162"/>
      <point x="191" y="182"/>
      <point x="218" y="227"/>
      <point x="239" y="298"/>
      <point x="250" y="349" type="qcurve"/>
      <point x="327" y="710" type="line"/>
      <point x="522" y="710" type="line"/>
      <point x="445" y="349" type="line"/>
      <point x="428" y="268"/>
      <point x="382" y="135"/>
      <point x="304" y="41"/>
      <point x="182" y="-11"/>
    </contour>
  </outline>
</glyph>
<glyph name="L" format="1">
  <advance width="564"/>
  <unicode hex="004C"/>
  <outline>
    <contour>
      <point x="242" y="708" type="move" name="top"/>
    </contour>
    <contour>
      <point x="240" y="0" type="move" name="bottom"/>
    </contour>
    <contour>
      <point x="148" y="710" type="line"/>
      <point x="343" y="710" type="line"/>
      <point x="228" y="170" type="line"/>
      <point x="527" y="170" type="line"/>
      <point x="491" y="0" type="line"/>
      <point x="-3" y="0" type="line"/>
    </contour>
  </outline>
</glyph>
<glyph name="Q" format="1">
  <advance width="737"/>
  <unicode hex="0051"/>
  <outline>
    <contour>
      <point x="466" y="31" type="line"/>
      <point x="428" y="14"/>
      <point x="345" y="-5"/>
      <point x="302" y="-5" type="qcurve"/>
      <point x="236" y="-5"/>
      <point x="134" y="44"/>
      <point x="63" y="127"/>
      <point x="27" y="234"/>
      <point x="27" y="292" type="qcurve"/>
      <point x="27" y="373"/>
      <point x="98" y="525"/>
      <point x="217" y="643"/>
      <point x="373" y="715"/>
      <point x="459" y="715" type="qcurve"/>
      <point x="525" y="715"/>
      <point x="627" y="665"/>
      <point x="696" y="582"/>
      <point x="732" y="474"/>
      <point x="732" y="416" type="qcurve"/>
      <point x="732" y="331"/>
      <point x="655" y="174"/>
      <point x="591" y="114" type="qcurve"/>
      <point x="669" y="0" type="line"/>
      <point x="487" y="0" type="line"/>
    </contour>
    <contour>
      <point x="341" y="168" type="qcurve"/>
      <point x="349" y="168"/>
      <point x="363" y="169"/>
      <point x="370" y="170" type="qcurve"/>
      <point x="282" y="300" type="line"/>
      <point x="463" y="300" type="line"/>
      <point x="492" y="258" type="line"/>
      <point x="512" y="291"/>
      <point x="533" y="367"/>
      <point x="533" y="403" type="qcurve"/>
      <point x="533" y="431"/>
      <point x="520" y="481"/>
      <point x="493" y="519"/>
      <point x="449" y="542"/>
      <point x="419" y="542" type="qcurve"/>
      <point x="372" y="542"/>
      <point x="300" y="498"/>
      <point x="252" y="429"/>
      <point x="227" y="346"/>
      <point x="227" y="307" type="qcurve"/>
      <point x="227" y="280"/>
      <point x="240" y="229"/>
      <point x="267" y="191"/>
      <point x="311" y="168"/>
    </contour>
  </outline>
</glyph>
<glyph name="T" format="1">
  <advance width="600"/>
  <unicode hex="0054"/>
  <outline>
    <contour>
      <point x="385" y="708" type="move" name="top"/>
    </contour>
    <contour>
      <point x="234" y="0" type="move" name="bottom"/>
    </contour>
    <contour>
      <point x="254" y="540" type="line"/>
      <point x="63" y="540" type="line"/>
      <point x="99" y="710" type="line"/>
      <point x="675" y="710" type="line"/>
      <point x="639" y="540" type="line"/>
      <point x="449" y="540" type="line"/>
      <point x="334" y="0" type="line"/>
      <point x="139" y="0" type="line"/>
    </contour>
  </outline>
</glyph>
<glyph name="b" format="1">
  <advance width="627"/>
  <unicode hex="0062"/>
  <outline>
    <contour>
      <point x="305" y="-10" type="qcurve"/>
      <point x="194" y="-10"/>
      <point x="166" y="82" type="qcurve"/>
      <point x="149" y="0" type="line"/>
      <point x="-16" y="0" type="line"/>
      <point x="139" y="730" type="line"/>
      <point x="329" y="730" type="line"/>
      <point x="269" y="448" type="line"/>
      <point x="297" y="489"/>
      <point x="386" y="536"/>
      <point x="436" y="536" type="qcurve"/>
      <point x="476" y="536"/>
      <point x="539" y="505"/>
      <point x="582" y="449"/>
      <point x="604" y="371"/>
      <point x="604" y="325" type="qcurve"/>
      <point x="604" y="255"/>
      <point x="555" y="133"/>
      <point x="472" y="42"/>
      <point x="364" y="-10"/>
    </contour>
    <contour>
      <point x="287" y="150" type="qcurve"/>
      <point x="311" y="150"/>
      <point x="353" y="171"/>
      <point x="385" y="208"/>
      <point x="404" y="258"/>
      <point x="404" y="287" type="qcurve"/>
      <point x="404" y="325"/>
      <point x="370" y="376"/>
      <point x="341" y="376" type="qcurve"/>
      <point x="315" y="376"/>
      <point x="257" y="333"/>
      <point x="237" y="298" type="qcurve"/>
      <point x="217" y="204" type="line"/>
      <point x="231" y="177"/>
      <point x="261" y="150"/>
    </contour>
  </outline>
</glyph>
<glyph name="f" format="1">
  <advance width="394"/>
  <unicode hex="0066"/>
  <outline>
    <contour>
      <point x="86" y="322" type="line"/>
      <point x="25" y="322" type="line"/>
      <point x="56" y="465" type="line"/>
      <point x="117" y="465" type="line"/>
      <point x="129" y="522" type="line"/>
      <point x="139" y="571"/>
      <point x="183" y="652"/>
      <point x="245" y="709"/>
      <point x="320" y="740"/>
      <point x="362" y="740" type="qcurve"/>
      <point x="425" y="740"/>
      <point x="497" y="710" type="qcurve"/>
      <point x="435" y="566" type="line"/>
      <point x="421" y="572"/>
      <point x="385" y="580"/>
      <point x="371" y="580" type="qcurve"/>
      <point x="330" y="580"/>
      <point x="320" y="529" type="qcurve"/>
      <point x="306" y="465" type="line"/>
      <point x="414" y="465" type="line"/>
      <point x="383" y="322" type="line"/>
      <point x="276" y="322" type="line"/>
      <point x="162" y="-213" type="line"/>
      <point x="-28" y="-213" type="line"/>
    </contour>
  </outline>
</glyph>
<glyph name="j" format="1">
  <advance width="290"/>
  <unicode hex="006A"/>
  <outline>
    <contour>
      <point x="-66" y="-209" type="qcurve"/>
      <point x="-106" y="-209"/>
      <point x="-175" y="-181"/>
      <point x="-199" y="-155" type="qcurve"/>
      <point x="-94" y="-26" type="line"/>
      <point x="-82" y="-46"/>
      <point x="-56" y="-46" type="qcurve"/>
      <point x="-23" y="-46"/>
      <point x="-13" y="-3" type="qcurve"/>
      <point x="99" y="526" type="line"/>
      <point x="290" y="526" type="line"/>
      <point x="181" y="12" type="line"/>
      <point x="170" y="-37"/>
      <point x="124" y="-118"/>
      <point x="59" y="-177"/>
      <point x="-22" y="-209"/>
    </contour>
    <contour>
      <point x="143" y="730" type="line"/>
      <point x="333" y="730" type="line"/>
      <point x="299" y="570" type="line"/>
      <point x="109" y="570" type="line"/>
    </contour>
  </outline>
</glyph>
<glyph name="k" format="1">
  <advance width="582"/>
  <unicode hex="006B"/>
  <outline>
    <contour>
      <point x="237" y="0" type="move" name="bottom"/>
    </contour>
    <contour>
      <point x="139" y="730" type="line"/>
      <point x="327" y="730" type="line"/>
      <point x="256" y="398" type="line"/>
      <point x="332" y="531"/>
      <point x="447" y="531" type="qcurve"/>
      <point x="502" y="531"/>
      <point x="562" y="467"/>
      <point x="562" y="407" type="qcurve"/>
      <point x="562" y="340"/>
      <point x="494" y="227"/>
      <point x="432" y="189" type="qcurve"/>
      <point x="509" y="0" type="line"/>
      <point x="309" y="0" type="line"/>
      <point x="235" y="215" type="line"/>
      <point x="307" y="228"/>
      <point x="392" y="286"/>
      <point x="392" y="324" type="qcurve"/>
      <point x="392" y="344"/>
      <point x="368" y="369"/>
      <point x="349" y="369" type="qcurve"/>
      <point x="332" y="369"/>
      <point x="297" y="349"/>
      <point x="264" y="315"/>
      <point x="234" y="269"/>
      <point x="223" y="243" type="qcurve"/>
      <point x="172" y="0" type="line"/>
      <point x="-16" y="0" type="line"/>
    </contour>
  </outline>
</glyph>
<glyph name="q" format="1">
  <advance width="626"/>
  <unicode hex="0071"/>
  <outline>
    <contour>
      <point x="169" y="-10" type="qcurve"/>
      <point x="131" y="-10"/>
      <point x="71" y="21"/>
      <point x="29" y="77"/>
      <point x="7" y="154"/>
      <point x="7" y="200" type="qcurve"/>
      <point x="7" y="270"/>
      <point x="56" y="393"/>
      <point x="138" y="484"/>
      <point x="245" y="536"/>
      <point x="304" y="536" type="qcurve"/>
      <point x="361" y="536"/>
      <point x="427" y="488"/>
      <point x="444" y="445" type="qcurve"/>
      <point x="461" y="526" type="line"/>
      <point x="626" y="526" type="line"/>
      <point x="516" y="7" type="line"/>
      <point x="513" y="-5"/>
      <point x="513" y="-14" type="qcurve"/>
      <point x="513" y="-42"/>
      <point x="551" y="-43" type="qcurve"/>
      <point x="517" y="-203" type="line"/>
      <point x="491" y="-208"/>
      <point x="432" y="-213"/>
      <point x="410" y="-213" type="qcurve"/>
      <point x="362" y="-213"/>
      <point x="301" y="-164"/>
      <point x="301" y="-121" type="qcurve"/>
      <point x="301" y="-110"/>
      <point x="304" y="-96" type="qcurve"/>
      <point x="341" y="78" type="line"/>
      <point x="312" y="35"/>
      <point x="223" y="-10"/>
    </contour>
    <contour>
      <point x="278" y="150" type="qcurve"/>
      <point x="321" y="150"/>
      <point x="368" y="204" type="qcurve"/>
      <point x="388" y="298" type="line"/>
      <point x="382" y="333"/>
      <point x="343" y="376"/>
      <point x="317" y="376" type="qcurve"/>
      <point x="296" y="376"/>
      <point x="255" y="352"/>
      <point x="224" y="313"/>
      <point x="205" y="262"/>
      <point x="205" y="234" type="qcurve"/>
      <point x="205" y="196"/>
      <point x="243" y="150"/>
    </contour>
  </outline>
</glyph>
<glyph name="cent" format="1">
  <advance width="599"/>
  <unicode hex="00A2"/>
  <outline>
    <contour>
      <point x="179" y="-120" type="line"/>
      <point x="203" y="-9" type="line"/>
      <point x="161" y="-6"/>
      <point x="95" y="34"/>
      <point x="49" y="95"/>
      <point x="25" y="172"/>
      <point x="25" y="213" type="qcurve"/>
      <point x="25" y="267"/>
      <point x="63" y="370"/>
      <point x="137" y="457"/>
      <point x="246" y="521"/>
      <point x="318" y="534" type="qcurve"/>
      <point x="342" y="645" type="line"/>
      <point x="421" y="645" type="line"/>
      <point x="397" y="534" type="line"/>
      <point x="428" y="533"/>
      <point x="487" y="515"/>
      <point x="536" y="480"/>
      <point x="574" y="428"/>
      <point x="585" y="393" type="qcurve"/>
      <point x="388" y="337" type="line"/>
      <point x="386" y="349"/>
      <point x="370" y="368"/>
      <point x="363" y="370" type="qcurve"/>
      <point x="317" y="155" type="line"/>
      <point x="331" y="162"/>
      <point x="348" y="179"/>
      <point x="356" y="189" type="qcurve"/>
      <point x="529" y="133" type="line"/>
      <point x="505" y="97"/>
      <point x="439" y="43"/>
      <point x="370" y="8"/>
      <point x="305" y="-10"/>
      <point x="282" y="-10" type="qcurve"/>
      <point x="258" y="-120" type="line"/>
    </contour>
    <contour>
      <point x="222" y="226" type="qcurve"/>
      <point x="222" y="209"/>
      <point x="230" y="175"/>
      <point x="239" y="164" type="qcurve"/>
      <point x="281" y="361" type="line"/>
      <point x="269" y="353"/>
      <point x="248" y="324"/>
      <point x="231" y="287"/>
      <point x="222" y="246"/>
    </contour>
  </outline>
</glyph>
<glyph name="sterling" format="1">
  <advance width="566"/>
  <unicode hex="00A3"/>
  <outline>
    <contour>
      <point x="78" y="388" type="line"/>
      <point x="128" y="388" type="line"/>
      <point x="124" y="415"/>
      <point x="116" y="469"/>
      <point x="116" y="495" type="qcurve"/>
      <point x="116" y="541"/>
      <point x="160" y="622"/>
      <point x="232" y="681"/>
      <point x="327" y="715"/>
      <point x="378" y="715" type="qcurve"/>
      <point x="442" y="715"/>
      <point x="547" y="660"/>
      <point x="578" y="610" type="qcurve"/>
      <point x="458" y="493" type="line"/>
      <point x="440" y="522"/>
      <point x="375" y="562"/>
      <point x="345" y="562" type="qcurve"/>
      <point x="316" y="562"/>
      <point x="281" y="524"/>
      <point x="281" y="492" type="qcurve"/>
      <point x="281" y="470"/>
      <point x="291" y="417"/>
      <point x="295" y="388" type="qcurve"/>
      <point x="477" y="388" type="line"/>
      <point x="447" y="248" type="line"/>
      <point x="279" y="248" type="line"/>
      <point x="255" y="197"/>
      <point x="198" y="146" type="qcurve"/>
      <point x="224" y="154"/>
      <point x="260" y="161"/>
      <point x="276" y="161" type="qcurve"/>
      <point x="305" y="161"/>
      <point x="365" y="146"/>
      <point x="395" y="146" type="qcurve"/>
      <point x="411" y="146"/>
      <point x="438" y="152"/>
      <point x="456" y="159" type="qcurve"/>
      <point x="472" y="19" type="line"/>
      <point x="448" y="4"/>
      <point x="380" y="-15"/>
      <point x="351" y="-15" type="qcurve"/>
      <point x="329" y="-15"/>
      <point x="283" y="-5"/>
      <point x="236" y="8"/>
      <point x="188" y="18"/>
      <point x="164" y="18" type="qcurve"/>
      <point x="137" y="18"/>
      <point x="58" y="3"/>
      <point x="19" y="-9" type="qcurve"/>
      <point x="10" y="125" type="line"/>
      <point x="41" y="143"/>
      <point x="100" y="209"/>
      <point x="117" y="248" type="qcurve"/>
      <point x="49" y="248" type="line"/>
    </contour>
  </outline>
</glyph>
<glyph name="copyright" format="1">
  <advance width="862"/>
  <unicode hex="00A9"/>
  <outline>
    <contour>
      <point x="438" y="-7" type="qcurve"/>
      <point x="356" y="-7"/>
      <point x="216" y="48"/>
      <point x="114" y="145"/>
      <point x="57" y="277"/>
      <point x="57" y="355" type="qcurve"/>
      <point x="57" y="432"/>
      <point x="114" y="564"/>
      <point x="216" y="660"/>
      <point x="356" y="715"/>
      <point x="438" y="715" type="qcurve"/>
      <point x="522" y="715"/>
      <point x="666" y="660"/>
      <point x="770" y="564"/>
      <point x="829" y="432"/>
      <point x="829" y="355" type="qcurve"/>
      <point x="829" y="277"/>
      <point x="770" y="145"/>
      <point x="666" y="48"/>
      <point x="522" y="-7"/>
    </contour>
    <contour>
      <point x="438" y="57" type="qcurve"/>
      <point x="505" y="57"/>
      <point x="623" y="101"/>
      <point x="709" y="179"/>
      <point x="759" y="289"/>
      <point x="759" y="355" type="qcurve"/>
      <point x="759" y="416"/>
      <point x="710" y="524"/>
      <point x="625" y="605"/>
      <point x="507" y="651"/>
      <point x="438" y="651" type="qcurve"/>
      <point x="372" y="651"/>
      <point x="258" y="605"/>
      <point x="174" y="524"/>
      <point x="127" y="416"/>
      <point x="127" y="355" type="qcurve"/>
      <point x="127" y="293"/>
      <point x="174" y="184"/>
      <point x="257" y="103"/>
      <point x="371" y="57"/>
    </contour>
    <contour>
      <point x="448" y="111" type="qcurve"/>
      <point x="383" y="111"/>
      <point x="282" y="151"/>
      <point x="214" y="218"/>
      <point x="179" y="306"/>
      <point x="179" y="354" type="qcurve"/>
      <point x="179" y="402"/>
      <point x="214" y="490"/>
      <point x="282" y="557"/>
      <point x="383" y="597"/>
      <point x="448" y="597" type="qcurve"/>
      <point x="540" y="597"/>
      <point x="664" y="517"/>
      <point x="695" y="454" type="qcurve"/>
      <point x="510" y="398" type="line"/>
      <point x="487" y="437"/>
      <point x="447" y="437" type="qcurve"/>
      <point x="417" y="437"/>
      <point x="374" y="394"/>
      <point x="374" y="354" type="qcurve"/>
      <point x="374" y="314"/>
      <point x="417" y="271"/>
      <point x="447" y="271" type="qcurve"/>
      <point x="487" y="271"/>
      <point x="510" y="310" type="qcurve"/>
      <point x="695" y="254" type="line"/>
      <point x="664" y="191"/>
      <point x="540" y="111"/>
    </contour>
  </outline>
</glyph>
<glyph name="twosuperior" format="1">
  <advance width="427"/>
  <unicode hex="00B2"/>
  <outline>
    <contour>
      <point x="42" y="376" type="line"/>
      <point x="51" y="419"/>
      <point x="76" y="482"/>
      <point x="115" y="531"/>
      <point x="173" y="569"/>
      <point x="215" y="586" type="qcurve"/>
      <point x="242" y="597"/>
      <point x="293" y="616"/>
      <point x="332" y="639"/>
      <point x="356" y="666"/>
      <point x="356" y="684" type="qcurve"/>
      <point x="356" y="702"/>
      <point x="323" y="715"/>
      <point x="297" y="715" type="qcurve"/>
      <point x="262" y="715"/>
      <point x="197" y="688"/>
      <point x="174" y="671" type="qcurve"/>
      <point x="123" y="751" type="line"/>
      <point x="152" y="780"/>
      <point x="263" y="821"/>
      <point x="335" y="821" type="qcurve"/>
      <point x="407" y="821"/>
      <point x="482" y="764"/>
      <point x="482" y="707" type="qcurve"/>
      <point x="482" y="665"/>
      <point x="451" y="605"/>
      <point x="406" y="565"/>
      <point x="353" y="541"/>
      <point x="331" y="535" type="qcurve"/>
      <point x="297" y="525"/>
      <point x="250" y="503"/>
      <point x="245" y="483" type="qcurve"/>
      <point x="419" y="483" type="line"/>
      <point x="396" y="376" type="line"/>
    </contour>
  </outline>
</glyph>
<glyph name="acute" format="1">
  <advance width="274"/>
  <unicode hex="00B4"/>
  <outline>
    <contour>
      <point x="91" y="522" type="move" name="_top"/>
    </contour>
    <contour>
      <point x="143" y="576" type="line"/>
      <point x="15" y="588" type="line"/>
      <point x="92" y="730" type="line"/>
      <point x="260" y="730" type="line"/>
    </contour>
  </outline>
</glyph>
<glyph name="mu" format="1">
  <advance width="668"/>
  <unicode hex="00B5"/>
  <outline>
    <contour>
      <point x="108" y="526" type="line"/>
      <point x="298" y="526" type="line"/>
      <point x="234" y="223" type="line"/>
      <point x="232" y="215"/>
      <point x="230" y="201"/>
      <point x="230" y="195" type="qcurve"/>
      <point x="230" y="150"/>
      <point x="272" y="150" type="qcurve"/>
      <point x="286" y="150"/>
      <point x="330" y="170"/>
      <point x="359" y="204" type="qcurve"/>
      <point x="427" y="526" type="line"/>
      <point x="617" y="526" type="line"/>
      <point x="550" y="210" type="line"/>
      <point x="547" y="198"/>
      <point x="547" y="189" type="qcurve"/>
      <point x="547" y="161"/>
      <point x="585" y="160" type="qcurve"/>
      <point x="551" y="0" type="line"/>
      <point x="521" y="-5"/>
      <point x="476" y="-10"/>
      <point x="459" y="-10" type="qcurve"/>
      <point x="363" y="-10"/>
      <point x="363" y="63" type="qcurve"/>
      <point x="363" y="82" type="line"/>
      <point x="357" y="71"/>
      <point x="328" y="40"/>
      <point x="289" y="11"/>
      <point x="246" y="-10"/>
      <point x="226" y="-10" type="qcurve"/>
      <point x="180" y="-10"/>
      <point x="180" y="26" type="qcurve"/>
      <point x="141" y="-213" type="line"/>
      <point x="-49" y="-213" type="line"/>
    </contour>
  </outline>
</glyph>
<glyph name="onehalf" format="1">
  <advance width="895"/>
  <unicode hex="00BD"/>
  <outline>
    <contour>
      <point x="435" y="0" type="line"/>
      <point x="444" y="43"/>
      <point x="467" y="106"/>
      <point x="505" y="155"/>
      <point x="561" y="193"/>
      <point x="602" y="210" type="qcurve"/>
      <point x="628" y="221"/>
      <point x="677" y="240"/>
      <point x="715" y="263"/>
      <point x="738" y="290"/>
      <point x="738" y="308" type="qcurve"/>
      <point x="738" y="326"/>
      <point x="707" y="339"/>
      <point x="681" y="339" type="qcurve"/>
      <point x="647" y="339"/>
      <point x="585" y="312"/>
      <point x="563" y="295" type="qcurve"/>
      <point x="513" y="375" type="line"/>
      <point x="540" y="404"/>
      <point x="648" y="445"/>
      <point x="719" y="445" type="qcurve"/>
      <point x="787" y="445"/>
      <point x="860" y="388"/>
      <point x="860" y="331" type="qcurve"/>
      <point x="860" y="289"/>
      <point x="830" y="229"/>
      <point x="786" y="189"/>
      <point x="735" y="165"/>
      <point x="714" y="159" type="qcurve"/>
      <point x="682" y="149"/>
      <point x="636" y="127"/>
      <point x="631" y="107" type="qcurve"/>
      <point x="817" y="107" type="line"/>
      <point x="795" y="0" type="line"/>
    </contour>
    <contour>
      <point x="318" y="395" type="line"/>
      <point x="295" y="288" type="line"/>
      <point x="51" y="288" type="line"/>
      <point x="74" y="395" type="line"/>
      <point x="146" y="395" type="line"/>
      <point x="193" y="616" type="line"/>
      <point x="186" y="609"/>
      <point x="161" y="591"/>
      <point x="133" y="574"/>
      <point x="104" y="563"/>
      <point x="93" y="563" type="qcurve"/>
      <point x="116" y="672" type="line"/>
      <point x="131" y="672"/>
      <point x="166" y="690"/>
      <point x="196" y="712"/>
      <point x="217" y="730"/>
      <point x="217" y="731" type="qcurve"/>
      <point x="327" y="731" type="line"/>
      <point x="255" y="395" type="line"/>
    </contour>
    <contour>
      <point x="77" y="65" type="line"/>
      <point x="414" y="384" type="line"/>
      <point x="722" y="721" type="line"/>
      <point x="789" y="646" type="line"/>
      <point x="466" y="337" type="line"/>
      <point x="144" y="-10" type="line"/>
    </contour>
  </outline>
</glyph>
<glyph name="threequarters" format="1">
  <advance width="880"/>
  <unicode hex="00BE"/>
  <outline>
    <contour>
      <point x="194" y="279" type="qcurve"/>
      <point x="134" y="279"/>
      <point x="56" y="313"/>
      <point x="45" y="350" type="qcurve"/>
      <point x="119" y="434" type="line"/>
      <point x="120" y="432"/>
      <point x="131" y="418"/>
      <point x="154" y="402"/>
      <point x="189" y="389"/>
      <point x="215" y="389" type="qcurve"/>
      <point x="251" y="389"/>
      <point x="306" y="406"/>
      <point x="306" y="428" type="qcurve"/>
      <point x="306" y="449"/>
      <point x="237" y="465"/>
      <point x="174" y="465" type="qcurve"/>
      <point x="150" y="465" type="line"/>
      <point x="171" y="564" type="line"/>
      <point x="194" y="564" type="line"/>
      <point x="252" y="564"/>
      <point x="330" y="583"/>
      <point x="330" y="607" type="qcurve"/>
      <point x="330" y="614"/>
      <point x="318" y="623"/>
      <point x="301" y="628"/>
      <point x="282" y="630"/>
      <point x="275" y="630" type="qcurve"/>
      <point x="238" y="630"/>
      <point x="186" y="606"/>
      <point x="161" y="586" type="qcurve"/>
      <point x="112" y="675" type="line"/>
      <point x="144" y="703"/>
      <point x="245" y="731"/>
      <point x="295" y="731" type="qcurve"/>
      <point x="364" y="731"/>
      <point x="449" y="671"/>
      <point x="449" y="626" type="qcurve"/>
      <point x="449" y="584"/>
      <point x="385" y="529"/>
      <point x="334" y="521" type="qcurve"/>
      <point x="374" y="515"/>
      <point x="415" y="462"/>
      <point x="415" y="427" type="qcurve"/>
      <point x="415" y="387"/>
      <point x="375" y="331"/>
      <point x="312" y="295"/>
      <point x="233" y="279"/>
    </contour>
    <contour>
      <point x="626" y="84" type="line"/>
      <point x="423" y="84" type="line"/>
      <point x="446" y="191" type="line"/>
      <point x="736" y="441" type="line"/>
      <point x="810" y="441" type="line"/>
      <point x="757" y="191" type="line"/>
      <point x="818" y="191" type="line"/>
      <point x="795" y="84" type="line"/>
      <point x="734" y="84" type="line"/>
      <point x="716" y="1" type="line"/>
      <point x="609" y="1" type="line"/>
    </contour>
    <contour>
      <point x="653" y="191" type="line"/>
      <point x="679" y="312" type="line"/>
      <point x="546" y="191" type="line"/>
    </contour>
    <contour>
      <point x="151" y="65" type="line"/>
      <point x="488" y="384" type="line"/>
      <point x="796" y="721" type="line"/>
      <point x="863" y="646" type="line"/>
      <point x="540" y="337" type="line"/>
      <point x="218" y="-10" type="line"/>
    </contour>
  </outline>
</glyph>
<glyph name="Atilde" format="1">
  <advance width="636"/>
  <unicode hex="00C3"/>
  <outline>
    <contour>
      <point x="320" y="710" type="line"/>
      <point x="499" y="710" type="line"/>
      <point x="578" y="0" type="line"/>
      <point x="380" y="0" type="line"/>
      <point x="373" y="139" type="line"/>
      <point x="203" y="139" type="line"/>
      <point x="138" y="0" type="line"/>
      <point x="-61" y="0" type="line"/>
    </contour>
    <contour>
      <point x="370" y="269" type="line"/>
      <point x="362" y="489" type="line"/>
      <point x="259" y="269" type="line"/>
    </contour>
    <contour>
      <point x="481" y="758" type="qcurve"/>
      <point x="459" y="758"/>
      <point x="429" y="773"/>
      <point x="404" y="791"/>
      <point x="379" y="806"/>
      <point x="363" y="806" type="qcurve"/>
      <point x="347" y="806"/>
      <point x="326" y="792"/>
      <point x="314" y="774"/>
      <point x="310" y="759"/>
      <point x="310" y="758" type="qcurve"/>
      <point x="209" y="758" type="line"/>
      <point x="212" y="771"/>
      <point x="238" y="824"/>
      <point x="282" y="876"/>
      <point x="342" y="916"/>
      <point x="378" y="916" type="qcurve"/>
      <point x="402" y="916"/>
      <point x="432" y="900"/>
      <point x="457" y="881"/>
      <point x="480" y="865"/>
      <point x="496" y="865" type="qcurve"/>
      <point x="511" y="865"/>
      <point x="533" y="880"/>
      <point x="547" y="899"/>
      <point x="554" y="915"/>
      <point x="554" y="916" type="qcurve"/>
      <point x="654" y="916" type="line"/>
      <point x="652" y="907"/>
      <point x="625" y="856"/>
      <point x="580" y="801"/>
      <point x="518" y="758"/>
    </contour>
  </outline>
</glyph>
<glyph name="Adieresis" format="1">
  <advance width="636"/>
  <unicode hex="00C4"/>
  <outline>
    <contour>
      <point x="320" y="710" type="line"/>
      <point x="499" y="710" type="line"/>
      <point x="578" y="0" type="line"/>
      <point x="380" y="0" type="line"/>
      <point x="373" y="139" type="line"/>
      <point x="203" y="139" type="line"/>
      <point x="138" y="0" type="line"/>
      <point x="-61" y="0" type="line"/>
    </contour>
    <contour>
      <point x="370" y="269" type="line"/>
      <point x="362" y="489" type="line"/>
      <point x="259" y="269" type="line"/>
    </contour>
    <contour>
      <point x="227" y="767" type="line"/>
      <point x="257" y="907" type="line"/>
      <point x="413" y="907" type="line"/>
      <point x="383" y="767" type="line"/>
    </contour>
    <contour>
      <point x="452" y="767" type="line"/>
      <point x="482" y="907" type="line"/>
      <point x="637" y="907" type="line"/>
      <point x="608" y="767" type="line"/>
    </contour>
  </outline>
</glyph>
<glyph name="AE" format="1">
  <advance width="935"/>
  <unicode hex="00C6"/>
  <outline>
    <contour>
      <point x="496" y="708" type="move" name="top"/>
    </contour>
    <contour>
      <point x="478" y="710" type="line"/>
      <point x="983" y="710" type="line"/>
      <point x="946" y="540" type="line"/>
      <point x="687" y="540" type="line"/>
      <point x="667" y="446" type="line"/>
      <point x="875" y="446" type="line"/>
      <point x="839" y="276" type="line"/>
      <point x="631" y="276" type="line"/>
      <point x="609" y="170" type="line"/>
      <point x="876" y="170" type="line"/>
      <point x="840" y="0" type="line"/>
      <point x="378" y="0" type="line"/>
      <point x="408" y="139" type="line"/>
      <point x="221" y="139" type="line"/>
      <point x="126" y="0" type="line"/>
      <point x="-80" y="0" type="line"/>
    </contour>
    <contour>
      <point x="429" y="309" type="line"/>
      <point x="468" y="495" type="line"/>
      <point x="339" y="309" type="line"/>
    </contour>
  </outline>
</glyph>
<glyph name="Ccedilla" format="1">
  <advance width="664"/>
  <unicode hex="00C7"/>
  <outline>
    <contour>
      <point x="196" y="-128" type="line"/>
      <point x="204" y="-135"/>
      <point x="252" y="-148"/>
      <point x="278" y="-148" type="qcurve"/>
      <point x="302" y="-148"/>
      <point x="338" y="-132"/>
      <point x="338" y="-112" type="qcurve"/>
      <point x="338" y="-98"/>
      <point x="313" y="-87"/>
      <point x="291" y="-87" type="qcurve"/>
      <point x="271" y="-87"/>
      <point x="225" y="-94"/>
      <point x="214" y="-96" type="qcurve"/>
      <point x="276" y="-5" type="line"/>
      <point x="217" y="-1"/>
      <point x="124" y="53"/>
      <point x="61" y="137"/>
      <point x="28" y="242"/>
      <point x="28" y="298" type="qcurve"/>
      <point x="28" y="372"/>
      <point x="93" y="520"/>
      <point x="208" y="639"/>
      <point x="365" y="714"/>
      <point x="458" y="714" type="qcurve"/>
      <point x="556" y="714"/>
      <point x="684" y="629"/>
      <point x="704" y="559" type="qcurve"/>
      <point x="533" y="453" type="line"/>
      <point x="529" y="479"/>
      <point x="506" y="513"/>
      <point x="473" y="533"/>
      <point x="435" y="541"/>
      <point x="417" y="541" type="qcurve"/>
      <point x="371" y="541"/>
      <point x="300" y="497"/>
      <point x="252" y="429"/>
      <point x="227" y="348"/>
      <point x="227" y="311" type="qcurve"/>
      <point x="227" y="282"/>
      <point x="241" y="229"/>
      <point x="269" y="190"/>
      <point x="311" y="167"/>
      <point x="340" y="167" type="qcurve"/>
      <point x="358" y="167"/>
      <point x="399" y="176"/>
      <point x="438" y="197"/>
      <point x="473" y="230"/>
      <point x="486" y="254" type="qcurve"/>
      <point x="625" y="159" type="line"/>
      <point x="605" y="125"/>
      <point x="544" y="70"/>
      <point x="471" y="30"/>
      <point x="390" y="3"/>
      <point x="351" y="-2" type="qcurve"/>
      <point x="323" y="-34" type="line"/>
      <point x="328" y="-33"/>
      <point x="341" y="-32"/>
      <point x="348" y="-32" type="qcurve"/>
      <point x="378" y="-32"/>
      <point x="424" y="-61"/>
      <point x="424" y="-95" type="qcurve"/>
      <point x="424" y="-118"/>
      <point x="403" y="-160"/>
      <point x="361" y="-193"/>
      <point x="296" y="-213"/>
      <point x="252" y="-213" type="qcurve"/>
      <point x="217" y="-213"/>
      <point x="165" y="-200"/>
      <point x="148" y="-192" type="qcurve"/>
    </contour>
  </outline>
</glyph>
<glyph name="Icircumflex" format="1">
  <advance width="317"/>
  <unicode hex="00CE"/>
  <outline>
    <contour>
      <point x="148" y="710" type="line"/>
      <point x="343" y="710" type="line"/>
      <point x="192" y="0" type="line"/>
      <point x="-3" y="0" type="line"/>
    </contour>
    <contour>
      <point x="92" y="801" type="line"/>
      <point x="225" y="916" type="line"/>
      <point x="361" y="916" type="line"/>
      <point x="445" y="801" type="line"/>
      <point x="340" y="759" type="line"/>
      <point x="273" y="822" type="line"/>
      <point x="179" y="759" type="line"/>
    </contour>
  </outline>
</glyph>
<glyph name="Ugrave" format="1">
  <advance width="712"/>
  <unicode hex="00D9"/>
  <outline>
    <contour>
      <point x="290" y="-6" type="qcurve"/>
      <point x="225" y="-6"/>
      <point x="132" y="31"/>
      <point x="74" y="97"/>
      <point x="47" y="186"/>
      <point x="47" y="238" type="qcurve"/>
      <point x="47" y="289"/>
      <point x="59" y="345" type="qcurve"/>
      <point x="137" y="710" type="line"/>
      <point x="332" y="710" type="line"/>
      <point x="254" y="345" type="line"/>
      <point x="246" y="305"/>
      <point x="246" y="274" type="qcurve"/>
      <point x="246" y="227"/>
      <point x="283" y="167"/>
      <point x="327" y="167" type="qcurve"/>
      <point x="357" y="167"/>
      <point x="405" y="197"/>
      <point x="443" y="246"/>
      <point x="468" y="310"/>
      <point x="476" y="345" type="qcurve"/>
      <point x="554" y="710" type="line"/>
      <point x="749" y="710" type="line"/>
      <point x="671" y="345" type="line"/>
      <point x="655" y="271"/>
      <point x="591" y="142"/>
      <point x="495" y="48"/>
      <point x="368" y="-6"/>
    </contour>
    <contour>
      <point x="350" y="917" type="line"/>
      <point x="518" y="917" type="line"/>
      <point x="535" y="775" type="line"/>
      <point x="403" y="761" type="line"/>
    </contour>
  </outline>
</glyph>
<glyph name="Ucircumflex" format="1">
  <advance width="712"/>
  <unicode hex="00DB"/>
  <outline>
    <contour>
      <point x="284" y="801" type="line"/>
      <point x="417" y="916" type="line"/>
      <point x="553" y="916" type="line"/>
      <point x="637" y="801" type="line"/>
      <point x="532" y="759" type="line"/>
      <point x="465" y="822" type="line"/>
      <point x="371" y="759" type="line"/>
    </contour>
    <contour>
      <point x="290" y="-6" type="qcurve"/>
      <point x="225" y="-6"/>
      <point x="132" y="31"/>
      <point x="74" y="97"/>
      <point x="47" y="186"/>
      <point x="47" y="238" type="qcurve"/>
      <point x="47" y="289"/>
      <point x="59" y="345" type="qcurve"/>
      <point x="137" y="710" type="line"/>
      <point x="332" y="710" type="line"/>
      <point x="254" y="345" type="line"/>
      <point x="246" y="305"/>
      <point x="246" y="274" type="qcurve"/>
      <point x="246" y="227"/>
      <point x="283" y="167"/>
      <point x="327" y="167" type="qcurve"/>
      <point x="357" y="167"/>
      <point x="405" y="197"/>
      <point x="443" y="246"/>
      <point x="468" y="310"/>
      <point x="476" y="345" type="qcurve"/>
      <point x="554" y="710" type="line"/>
      <point x="749" y="710" type="line"/>
      <point x="671" y="345" type="line"/>
      <point x="655" y="271"/>
      <point x="591" y="142"/>
      <point x="495" y="48"/>
      <point x="368" y="-6"/>
    </contour>
  </outline>
</glyph>
<glyph name="Yacute" format="1">
  <advance width="627"/>
  <unicode hex="00DD"/>
  <outline>
    <contour>
      <point x="198" y="237" type="line"/>
      <point x="72" y="710" type="line"/>
      <point x="283" y="710" type="line"/>
      <point x="330" y="403" type="line"/>
      <point x="511" y="710" type="line"/>
      <point x="723" y="710" type="line"/>
      <point x="391" y="235" type="line"/>
      <point x="341" y="0" type="line"/>
      <point x="147" y="0" type="line"/>
    </contour>
    <contour>
      <point x="447" y="762" type="line"/>
      <point x="319" y="774" type="line"/>
      <point x="396" y="916" type="line"/>
      <point x="564" y="916" type="line"/>
    </contour>
  </outline>
</glyph>
<glyph name="ae" format="1">
  <advance width="902"/>
  <unicode hex="00E6"/>
  <outline>
    <contour>
      <point x="493" y="522" type="move" name="top"/>
    </contour>
    <contour>
      <point x="130" y="-10" type="qcurve"/>
      <point x="64" y="-10"/>
      <point x="-14" y="68"/>
      <point x="-14" y="130" type="qcurve"/>
      <point x="-14" y="174"/>
      <point x="27" y="251"/>
      <point x="97" y="307"/>
      <point x="191" y="339"/>
      <point x="245" y="339" type="qcurve"/>
      <point x="305" y="339"/>
      <point x="339" y="319" type="qcurve"/>
      <point x="341" y="329"/>
      <point x="344" y="350"/>
      <point x="344" y="359" type="qcurve"/>
      <point x="344" y="384"/>
      <point x="311" y="408"/>
      <point x="274" y="408" type="qcurve"/>
      <point x="232" y="408"/>
      <point x="153" y="379"/>
      <point x="108" y="351" type="qcurve"/>
      <point x="78" y="469" type="line"/>
      <point x="191" y="536"/>
      <point x="320" y="536" type="qcurve"/>
      <point x="430" y="536"/>
      <point x="486" y="486" type="qcurve"/>
      <point x="523" y="509"/>
      <point x="610" y="536"/>
      <point x="661" y="536" type="qcurve"/>
      <point x="718" y="536"/>
      <point x="803" y="501"/>
      <point x="859" y="441"/>
      <point x="886" y="362"/>
      <point x="886" y="318" type="qcurve"/>
      <point x="886" y="279"/>
      <point x="869" y="225"/>
      <point x="861" y="205" type="qcurve"/>
      <point x="518" y="205" type="line"/>
      <point x="517" y="200"/>
      <point x="516" y="192"/>
      <point x="516" y="186" type="qcurve"/>
      <point x="516" y="154"/>
      <point x="555" y="126"/>
      <point x="581" y="126" type="qcurve"/>
      <point x="607" y="126"/>
      <point x="663" y="154"/>
      <point x="676" y="179" type="qcurve"/>
      <point x="827" y="133" type="line"/>
      <point x="782" y="70"/>
      <point x="638" y="-10"/>
      <point x="545" y="-10" type="qcurve"/>
      <point x="468" y="-10"/>
      <point x="368" y="46"/>
      <point x="344" y="92" type="qcurve"/>
      <point x="320" y="65"/>
      <point x="264" y="26"/>
      <point x="208" y="2"/>
      <point x="153" y="-10"/>
    </contour>
    <contour>
      <point x="219" y="126" type="qcurve"/>
      <point x="242" y="126"/>
      <point x="295" y="145"/>
      <point x="315" y="159" type="qcurve"/>
      <point x="314" y="163"/>
      <point x="314" y="171"/>
      <point x="314" y="175" type="qcurve"/>
      <point x="314" y="186"/>
      <point x="316" y="208"/>
      <point x="318" y="222" type="qcurve"/>
      <point x="304" y="228"/>
      <point x="269" y="236"/>
      <point x="255" y="236" type="qcurve"/>
      <point x="239" y="236"/>
      <point x="209" y="225"/>
      <point x="185" y="206"/>
      <point x="171" y="181"/>
      <point x="171" y="167" type="qcurve"/>
      <point x="171" y="149"/>
      <point x="195" y="126"/>
    </contour>
    <contour>
      <point x="686" y="319" type="line"/>
      <point x="686" y="324"/>
      <point x="687" y="328"/>
      <point x="687" y="335" type="qcurve"/>
      <point x="687" y="365"/>
      <point x="657" y="401"/>
      <point x="629" y="401" type="qcurve"/>
      <point x="598" y="401"/>
      <point x="550" y="357"/>
      <point x="538" y="319" type="qcurve"/>
    </contour>
  </outline>
</glyph>
<glyph name="ccedilla" format="1">
  <advance width="555"/>
  <unicode hex="00E7"/>
  <outline>
    <contour>
      <point x="121" y="-128" type="line"/>
      <point x="129" y="-135"/>
      <point x="177" y="-148"/>
      <point x="203" y="-148" type="qcurve"/>
      <point x="227" y="-148"/>
      <point x="263" y="-132"/>
      <point x="263" y="-112" type="qcurve"/>
      <point x="263" y="-98"/>
      <point x="238" y="-87"/>
      <point x="216" y="-87" type="qcurve"/>
      <point x="196" y="-87"/>
      <point x="150" y="-94"/>
      <point x="139" y="-96" type="qcurve"/>
      <point x="198" y="-8" type="line"/>
      <point x="149" y="-3"/>
      <point x="77" y="36"/>
      <point x="29" y="95"/>
      <point x="6" y="170"/>
      <point x="6" y="211" type="qcurve"/>
      <point x="6" y="272"/>
      <point x="54" y="389"/>
      <point x="144" y="480"/>
      <point x="270" y="536"/>
      <point x="348" y="536" type="qcurve"/>
      <point x="441" y="536"/>
      <point x="547" y="456"/>
      <point x="565" y="393" type="qcurve"/>
      <point x="368" y="337" type="line"/>
      <point x="352" y="376"/>
      <point x="313" y="376" type="qcurve"/>
      <point x="292" y="376"/>
      <point x="253" y="355"/>
      <point x="222" y="317"/>
      <point x="204" y="264"/>
      <point x="204" y="232" type="qcurve"/>
      <point x="204" y="194"/>
      <point x="237" y="150"/>
      <point x="265" y="150" type="qcurve"/>
      <point x="303" y="150"/>
      <point x="336" y="189" type="qcurve"/>
      <point x="509" y="133" type="line"/>
      <point x="468" y="76"/>
      <point x="349" y="0"/>
      <point x="271" y="-8" type="qcurve"/>
      <point x="248" y="-34" type="line"/>
      <point x="253" y="-33"/>
      <point x="266" y="-32"/>
      <point x="273" y="-32" type="qcurve"/>
      <point x="303" y="-32"/>
      <point x="349" y="-61"/>
      <point x="349" y="-95" type="qcurve"/>
      <point x="349" y="-118"/>
      <point x="328" y="-160"/>
      <point x="286" y="-193"/>
      <point x="221" y="-213"/>
      <point x="177" y="-213" type="qcurve"/>
      <point x="142" y="-213"/>
      <point x="90" y="-200"/>
      <point x="73" y="-192" type="qcurve"/>
    </contour>
  </outline>
</glyph>
<glyph name="igrave" format="1">
  <advance width="286"/>
  <unicode hex="00EC"/>
  <outline>
    <contour>
      <point x="96" y="526" type="line"/>
      <point x="286" y="526" type="line"/>
      <point x="174" y="0" type="line"/>
      <point x="-16" y="0" type="line"/>
    </contour>
    <contour>
      <point x="98" y="730" type="line"/>
      <point x="266" y="730" type="line"/>
      <point x="283" y="588" type="line"/>
      <point x="151" y="574" type="line"/>
    </contour>
  </outline>
</glyph>
<glyph name="udieresis" format="1">
  <advance width="618"/>
  <unicode hex="00FC"/>
  <outline>
    <contour>
      <point x="160" y="580" type="line"/>
      <point x="190" y="720" type="line"/>
      <point x="346" y="720" type="line"/>
      <point x="316" y="580" type="line"/>
    </contour>
    <contour>
      <point x="385" y="580" type="line"/>
      <point x="415" y="720" type="line"/>
      <point x="570" y="720" type="line"/>
      <point x="541" y="580" type="line"/>
    </contour>
    <contour>
      <point x="132" y="-10" type="qcurve"/>
      <point x="72" y="-10"/>
      <point x="9" y="53"/>
      <point x="9" y="114" type="qcurve"/>
      <point x="9" y="142"/>
      <point x="17" y="180" type="qcurve"/>
      <point x="91" y="526" type="line"/>
      <point x="280" y="526" type="line"/>
      <point x="216" y="223" type="line"/>
      <point x="213" y="208"/>
      <point x="213" y="196" type="qcurve"/>
      <point x="213" y="150"/>
      <point x="251" y="150" type="qcurve"/>
      <point x="268" y="150"/>
      <point x="312" y="170"/>
      <point x="341" y="204" type="qcurve"/>
      <point x="410" y="526" type="line"/>
      <point x="600" y="526" type="line"/>
      <point x="533" y="210" type="line"/>
      <point x="530" y="195"/>
      <point x="530" y="186" type="qcurve"/>
      <point x="530" y="161"/>
      <point x="557" y="160" type="qcurve"/>
      <point x="523" y="0" type="line"/>
      <point x="473" y="-10"/>
      <point x="441" y="-10" type="qcurve"/>
      <point x="398" y="-10"/>
      <point x="343" y="23"/>
      <point x="343" y="63" type="qcurve"/>
      <point x="343" y="68"/>
      <point x="344" y="77"/>
      <point x="345" y="82" type="qcurve"/>
      <point x="300" y="33"/>
      <point x="195" y="-10"/>
    </contour>
  </outline>
</glyph>
<glyph name="thorn" format="1">
  <advance width="575"/>
  <unicode hex="00FE"/>
  <outline>
    <contour>
      <point x="134" y="710" type="line"/>
      <point x="329" y="710" type="line"/>
      <point x="290" y="525" type="line"/>
      <point x="303" y="544"/>
      <point x="354" y="544" type="qcurve"/>
      <point x="404" y="544"/>
      <point x="479" y="507"/>
      <point x="529" y="445"/>
      <point x="554" y="365"/>
      <point x="554" y="323" type="qcurve"/>
      <point x="554" y="263"/>
      <point x="507" y="138"/>
      <point x="423" y="35"/>
      <point x="305" y="-31"/>
      <point x="234" y="-31" type="qcurve"/>
      <point x="207" y="-31"/>
      <point x="180" y="-22"/>
      <point x="175" y="-14" type="qcurve"/>
      <point x="133" y="-213" type="line"/>
      <point x="-62" y="-213" type="line"/>
    </contour>
    <contour>
      <point x="262" y="139" type="qcurve"/>
      <point x="287" y="139"/>
      <point x="326" y="168"/>
      <point x="353" y="216"/>
      <point x="368" y="276"/>
      <point x="368" y="307" type="qcurve"/>
      <point x="368" y="342"/>
      <point x="341" y="374"/>
      <point x="319" y="374" type="qcurve"/>
      <point x="299" y="374"/>
      <point x="263" y="349"/>
      <point x="248" y="327" type="qcurve"/>
      <point x="215" y="174" type="line"/>
      <point x="215" y="162"/>
      <point x="237" y="139"/>
    </contour>
  </outline>
</glyph>
<glyph name="Amacron" format="1">
  <advance width="636"/>
  <unicode hex="0100"/>
  <outline>
    <contour>
      <point x="320" y="710" type="line"/>
      <point x="499" y="710" type="line"/>
      <point x="578" y="0" type="line"/>
      <point x="380" y="0" type="line"/>
      <point x="373" y="139" type="line"/>
      <point x="203" y="139" type="line"/>
      <point x="138" y="0" type="line"/>
      <point x="-61" y="0" type="line"/>
    </contour>
    <contour>
      <point x="370" y="269" type="line"/>
      <point x="362" y="489" type="line"/>
      <point x="259" y="269" type="line"/>
    </contour>
    <contour>
      <point x="275" y="793" type="line"/>
      <point x="299" y="906" type="line"/>
      <point x="595" y="906" type="line"/>
      <point x="571" y="793" type="line"/>
    </contour>
  </outline>
</glyph>
<glyph name="Abreve" format="1">
  <advance width="636"/>
  <unicode hex="0102"/>
  <outline>
    <contour>
      <point x="320" y="710" type="line"/>
      <point x="499" y="710" type="line"/>
      <point x="578" y="0" type="line"/>
      <point x="380" y="0" type="line"/>
      <point x="373" y="139" type="line"/>
      <point x="203" y="139" type="line"/>
      <point x="138" y="0" type="line"/>
      <point x="-61" y="0" type="line"/>
    </contour>
    <contour>
      <point x="370" y="269" type="line"/>
      <point x="362" y="489" type="line"/>
      <point x="259" y="269" type="line"/>
    </contour>
    <contour>
      <point x="423" y="835" type="qcurve"/>
      <point x="445" y="835"/>
      <point x="487" y="881"/>
      <point x="498" y="916" type="qcurve"/>
      <point x="596" y="916" type="line"/>
      <point x="588" y="880"/>
      <point x="553" y="821"/>
      <point x="503" y="778"/>
      <point x="440" y="754"/>
      <point x="406" y="754" type="qcurve"/>
      <point x="346" y="754"/>
      <point x="279" y="820"/>
      <point x="279" y="875" type="qcurve"/>
      <point x="279" y="893"/>
      <point x="284" y="916" type="qcurve"/>
      <point x="382" y="916" type="line"/>
      <point x="379" y="904"/>
      <point x="379" y="893" type="qcurve"/>
      <point x="379" y="868"/>
      <point x="403" y="835"/>
    </contour>
  </outline>
</glyph>
<glyph name="Aogonek" format="1">
  <advance width="636"/>
  <unicode hex="0104"/>
  <outline>
    <contour>
      <point x="498" y="-215" type="line"/>
      <point x="430" y="-207"/>
      <point x="367" y="-158"/>
      <point x="367" y="-126" type="qcurve"/>
      <point x="367" y="-95"/>
      <point x="422" y="-29"/>
      <point x="476" y="0" type="qcurve"/>
      <point x="380" y="0" type="line"/>
      <point x="373" y="139" type="line"/>
      <point x="203" y="139" type="line"/>
      <point x="138" y="0" type="line"/>
      <point x="-61" y="0" type="line"/>
      <point x="320" y="710" type="line"/>
      <point x="499" y="710" type="line"/>
      <point x="578" y="0" type="line"/>
      <point x="538" y="-23"/>
      <point x="493" y="-65"/>
      <point x="493" y="-83" type="qcurve"/>
      <point x="493" y="-97"/>
      <point x="522" y="-115"/>
      <point x="554" y="-115" type="qcurve"/>
    </contour>
    <contour>
      <point x="370" y="269" type="line"/>
      <point x="362" y="489" type="line"/>
      <point x="259" y="269" type="line"/>
    </contour>
  </outline>
</glyph>
<glyph name="aogonek" format="1">
  <advance width="646"/>
  <unicode hex="0105"/>
  <outline>
    <contour>
      <point x="470" y="-215" type="line"/>
      <point x="402" y="-207"/>
      <point x="339" y="-158"/>
      <point x="339" y="-126" type="qcurve"/>
      <point x="339" y="-97"/>
      <point x="387" y="-35"/>
      <point x="434" y="-7" type="qcurve"/>
      <point x="405" y="-2"/>
      <point x="372" y="33"/>
      <point x="372" y="67" type="qcurve"/>
      <point x="372" y="77"/>
      <point x="373" y="82" type="qcurve"/>
      <point x="337" y="34"/>
      <point x="242" y="-10"/>
      <point x="193" y="-10" type="qcurve"/>
      <point x="149" y="-10"/>
      <point x="80" y="21"/>
      <point x="32" y="77"/>
      <point x="7" y="155"/>
      <point x="7" y="202" type="qcurve"/>
      <point x="7" y="270"/>
      <point x="53" y="391"/>
      <point x="131" y="483"/>
      <point x="234" y="536"/>
      <point x="291" y="536" type="qcurve"/>
      <point x="339" y="536"/>
      <point x="408" y="490"/>
      <point x="420" y="448" type="qcurve"/>
      <point x="436" y="522" type="line"/>
      <point x="627" y="522" type="line"/>
      <point x="560" y="210" type="line"/>
      <point x="557" y="195"/>
      <point x="557" y="186" type="qcurve"/>
      <point x="557" y="161"/>
      <point x="584" y="160" type="qcurve"/>
      <point x="550" y="0" type="line"/>
      <point x="510" y="-23"/>
      <point x="465" y="-65"/>
      <point x="465" y="-83" type="qcurve"/>
      <point x="465" y="-97"/>
      <point x="494" y="-115"/>
      <point x="526" y="-115" type="qcurve"/>
    </contour>
    <contour>
      <point x="279" y="150" type="qcurve"/>
      <point x="303" y="150"/>
      <point x="345" y="177"/>
      <point x="370" y="204" type="qcurve"/>
      <point x="390" y="298" type="line"/>
      <point x="385" y="333"/>
      <point x="346" y="376"/>
      <point x="319" y="376" type="qcurve"/>
      <point x="298" y="376"/>
      <point x="258" y="352"/>
      <point x="226" y="313"/>
      <point x="207" y="261"/>
      <point x="207" y="233" type="qcurve"/>
      <point x="207" y="195"/>
      <point x="244" y="150"/>
    </contour>
  </outline>
</glyph>
<glyph name="dcaron" format="1">
  <advance width="645"/>
  <unicode hex="010F"/>
  <outline>
    <contour>
      <point x="680" y="588" type="line"/>
      <point x="757" y="730" type="line"/>
      <point x="925" y="730" type="line"/>
      <point x="793" y="556" type="line"/>
    </contour>
    <contour>
      <point x="193" y="-10" type="qcurve"/>
      <point x="149" y="-10"/>
      <point x="80" y="21"/>
      <point x="32" y="77"/>
      <point x="7" y="155"/>
      <point x="7" y="202" type="qcurve"/>
      <point x="7" y="270"/>
      <point x="53" y="391"/>
      <point x="131" y="483"/>
      <point x="234" y="536"/>
      <point x="291" y="536" type="qcurve"/>
      <point x="339" y="536"/>
      <point x="408" y="490"/>
      <point x="420" y="448" type="qcurve"/>
      <point x="480" y="730" type="line"/>
      <point x="671" y="730" type="line"/>
      <point x="560" y="210" type="line"/>
      <point x="557" y="195"/>
      <point x="557" y="186" type="qcurve"/>
      <point x="557" y="161"/>
      <point x="584" y="160" type="qcurve"/>
      <point x="550" y="0" type="line"/>
      <point x="500" y="-10"/>
      <point x="469" y="-10" type="qcurve"/>
      <point x="426" y="-10"/>
      <point x="371" y="22"/>
      <point x="371" y="62" type="qcurve"/>
      <point x="371" y="67"/>
      <point x="372" y="77"/>
      <point x="373" y="82" type="qcurve"/>
      <point x="337" y="34"/>
      <point x="242" y="-10"/>
    </contour>
    <contour>
      <point x="279" y="150" type="qcurve"/>
      <point x="303" y="150"/>
      <point x="345" y="177"/>
      <point x="370" y="204" type="qcurve"/>
      <point x="390" y="298" type="line"/>
      <point x="385" y="333"/>
      <point x="346" y="376"/>
      <point x="319" y="376" type="qcurve"/>
      <point x="298" y="376"/>
      <point x="258" y="352"/>
      <point x="226" y="313"/>
      <point x="207" y="261"/>
      <point x="207" y="233" type="qcurve"/>
      <point x="207" y="195"/>
      <point x="244" y="150"/>
    </contour>
  </outline>
</glyph>
<glyph name="ebreve" format="1">
  <advance width="566"/>
  <unicode hex="0115"/>
  <outline>
    <contour>
      <point x="233" y="-10" type="qcurve"/>
      <point x="182" y="-10"/>
      <point x="98" y="22"/>
      <point x="39" y="80"/>
      <point x="7" y="162"/>
      <point x="7" y="213" type="qcurve"/>
      <point x="7" y="280"/>
      <point x="61" y="398"/>
      <point x="155" y="486"/>
      <point x="282" y="536"/>
      <point x="354" y="536" type="qcurve"/>
      <point x="450" y="536"/>
      <point x="557" y="455"/>
      <point x="557" y="383" type="qcurve"/>
      <point x="557" y="294"/>
      <point x="394" y="204"/>
      <point x="234" y="204" type="qcurve"/>
      <point x="205" y="204" type="line"/>
      <point x="205" y="161"/>
      <point x="234" y="126"/>
      <point x="269" y="126" type="qcurve"/>
      <point x="333" y="126"/>
      <point x="367" y="180" type="qcurve"/>
      <point x="516" y="132" type="line"/>
      <point x="494" y="100"/>
      <point x="431" y="48"/>
      <point x="356" y="10"/>
      <point x="274" y="-10"/>
    </contour>
    <contour>
      <point x="320" y="401" type="qcurve"/>
      <point x="291" y="401"/>
      <point x="242" y="356"/>
      <point x="226" y="318" type="qcurve"/>
      <point x="233" y="318" type="line"/>
      <point x="310" y="318"/>
      <point x="371" y="337"/>
      <point x="371" y="362" type="qcurve"/>
      <point x="371" y="379"/>
      <point x="343" y="401"/>
    </contour>
    <contour>
      <point x="369" y="649" type="qcurve"/>
      <point x="391" y="649"/>
      <point x="433" y="695"/>
      <point x="444" y="730" type="qcurve"/>
      <point x="542" y="730" type="line"/>
      <point x="534" y="694"/>
      <point x="499" y="635"/>
      <point x="449" y="592"/>
      <point x="386" y="568"/>
      <point x="352" y="568" type="qcurve"/>
      <point x="292" y="568"/>
      <point x="225" y="634"/>
      <point x="225" y="689" type="qcurve"/>
      <point x="225" y="707"/>
      <point x="230" y="730" type="qcurve"/>
      <point x="328" y="730" type="line"/>
      <point x="325" y="718"/>
      <point x="325" y="707" type="qcurve"/>
      <point x="325" y="682"/>
      <point x="349" y="649"/>
    </contour>
  </outline>
</glyph>
<glyph name="Ecaron" format="1">
  <advance width="575"/>
  <unicode hex="011A"/>
  <outline>
    <contour>
      <point x="234" y="874" type="line"/>
      <point x="339" y="916" type="line"/>
      <point x="406" y="853" type="line"/>
      <point x="500" y="916" type="line"/>
      <point x="587" y="874" type="line"/>
      <point x="454" y="759" type="line"/>
      <point x="318" y="759" type="line"/>
    </contour>
    <contour>
      <point x="148" y="710" type="line"/>
      <point x="622" y="710" type="line"/>
      <point x="586" y="540" type="line"/>
      <point x="307" y="540" type="line"/>
      <point x="286" y="440" type="line"/>
      <point x="524" y="440" type="line"/>
      <point x="490" y="282" type="line"/>
      <point x="252" y="282" type="line"/>
      <point x="228" y="170" type="line"/>
      <point x="516" y="170" type="line"/>
      <point x="480" y="0" type="line"/>
      <point x="-3" y="0" type="line"/>
    </contour>
  </outline>
</glyph>
<glyph name="gcircumflex" format="1">
  <advance width="626"/>
  <unicode hex="011D"/>
  <outline>
    <contour>
      <point x="185" y="615" type="line"/>
      <point x="318" y="730" type="line"/>
      <point x="454" y="730" type="line"/>
      <point x="538" y="615" type="line"/>
      <point x="433" y="573" type="line"/>
      <point x="366" y="636" type="line"/>
      <point x="272" y="573" type="line"/>
    </contour>
    <contour>
      <point x="159" y="-223" type="qcurve"/>
      <point x="80" y="-223"/>
      <point x="-29" y="-171"/>
      <point x="-65" y="-122" type="qcurve"/>
      <point x="57" y="-18" type="line"/>
      <point x="78" y="-45"/>
      <point x="146" y="-82"/>
      <point x="188" y="-82" type="qcurve"/>
      <point x="212" y="-82"/>
      <point x="259" y="-68"/>
      <point x="298" y="-37"/>
      <point x="328" y="13"/>
      <point x="335" y="48" type="qcurve"/>
      <point x="342" y="82" type="line"/>
      <point x="313" y="40"/>
      <point x="224" y="0"/>
      <point x="176" y="0" type="qcurve"/>
      <point x="136" y="0"/>
      <point x="73" y="31"/>
      <point x="30" y="85"/>
      <point x="8" y="160"/>
      <point x="8" y="204" type="qcurve"/>
      <point x="8" y="273"/>
      <point x="56" y="394"/>
      <point x="138" y="484"/>
      <point x="247" y="536"/>
      <point x="307" y="536" type="qcurve"/>
      <point x="360" y="536"/>
      <point x="431" y="491"/>
      <point x="445" y="448" type="qcurve"/>
      <point x="462" y="526" type="line"/>
      <point x="627" y="526" type="line"/>
      <point x="525" y="48" type="line"/>
      <point x="512" y="-14"/>
      <point x="447" y="-114"/>
      <point x="351" y="-184"/>
      <point x="229" y="-223"/>
    </contour>
    <contour>
      <point x="277" y="150" type="qcurve"/>
      <point x="301" y="150"/>
      <point x="344" y="177"/>
      <point x="368" y="204" type="qcurve"/>
      <point x="388" y="298" type="line"/>
      <point x="383" y="334"/>
      <point x="343" y="376"/>
      <point x="317" y="376" type="qcurve"/>
      <point x="296" y="376"/>
      <point x="257" y="352"/>
      <point x="225" y="312"/>
      <point x="206" y="261"/>
      <point x="206" y="233" type="qcurve"/>
      <point x="206" y="196"/>
      <point x="244" y="150"/>
    </contour>
  </outline>
</glyph>
<glyph name="Gbreve" format="1">
  <advance width="711"/>
  <unicode hex="011E"/>
  <outline>
    <contour>
      <point x="466" y="60" type="line"/>
      <point x="422" y="26"/>
      <point x="338" y="-5"/>
      <point x="290" y="-5" type="qcurve"/>
      <point x="234" y="-5"/>
      <point x="138" y="34"/>
      <point x="68" y="108"/>
      <point x="28" y="214"/>
      <point x="28" y="282" type="qcurve"/>
      <point x="28" y="373"/>
      <point x="101" y="531"/>
      <point x="223" y="648"/>
      <point x="379" y="715"/>
      <point x="463" y="715" type="qcurve"/>
      <point x="508" y="715"/>
      <point x="588" y="694"/>
      <point x="652" y="653"/>
      <point x="696" y="596"/>
      <point x="707" y="560" type="qcurve"/>
      <point x="539" y="449" type="line"/>
      <point x="528" y="491"/>
      <point x="462" y="542"/>
      <point x="419" y="542" type="qcurve"/>
      <point x="381" y="542"/>
      <point x="313" y="505"/>
      <point x="260" y="442"/>
      <point x="229" y="356"/>
      <point x="229" y="307" type="qcurve"/>
      <point x="229" y="244"/>
      <point x="289" y="168"/>
      <point x="344" y="168" type="qcurve"/>
      <point x="422" y="168"/>
      <point x="498" y="238" type="qcurve"/>
      <point x="382" y="238" type="line"/>
      <point x="411" y="378" type="line"/>
      <point x="695" y="378" type="line"/>
      <point x="614" y="0" type="line"/>
      <point x="454" y="0" type="line"/>
    </contour>
    <contour>
      <point x="480" y="835" type="qcurve"/>
      <point x="502" y="835"/>
      <point x="544" y="881"/>
      <point x="555" y="916" type="qcurve"/>
      <point x="653" y="916" type="line"/>
      <point x="645" y="880"/>
      <point x="610" y="821"/>
      <point x="560" y="778"/>
      <point x="497" y="754"/>
      <point x="463" y="754" type="qcurve"/>
      <point x="403" y="754"/>
      <point x="336" y="820"/>
      <point x="336" y="875" type="qcurve"/>
      <point x="336" y="893"/>
      <point x="341" y="916" type="qcurve"/>
      <point x="439" y="916" type="line"/>
      <point x="436" y="904"/>
      <point x="436" y="893" type="qcurve"/>
      <point x="436" y="868"/>
      <point x="460" y="835"/>
    </contour>
  </outline>
</glyph>
<glyph name="Hcircumflex" format="1">
  <advance width="724"/>
  <unicode hex="0124"/>
  <outline>
    <contour>
      <point x="293" y="801" type="line"/>
      <point x="426" y="916" type="line"/>
      <point x="562" y="916" type="line"/>
      <point x="646" y="801" type="line"/>
      <point x="541" y="759" type="line"/>
      <point x="474" y="822" type="line"/>
      <point x="380" y="759" type="line"/>
    </contour>
    <contour>
      <point x="148" y="710" type="line"/>
      <point x="343" y="710" type="line"/>
      <point x="287" y="448" type="line"/>
      <point x="499" y="448" type="line"/>
      <point x="555" y="710" type="line"/>
      <point x="750" y="710" type="line"/>
      <point x="599" y="0" type="line"/>
      <point x="404" y="0" type="line"/>
      <point x="463" y="278" type="line"/>
      <point x="251" y="278" type="line"/>
      <point x="192" y="0" type="line"/>
      <point x="-3" y="0" type="line"/>
    </contour>
  </outline>
</glyph>
<glyph name="Hbar" format="1">
  <advance width="729"/>
  <unicode hex="0126"/>
  <outline>
    <contour>
      <point x="86" y="626" type="line"/>
      <point x="133" y="626" type="line"/>
      <point x="151" y="710" type="line"/>
      <point x="346" y="710" type="line"/>
      <point x="328" y="626" type="line"/>
      <point x="540" y="626" type="line"/>
      <point x="558" y="710" type="line"/>
      <point x="753" y="710" type="line"/>
      <point x="735" y="626" type="line"/>
      <point x="782" y="626" type="line"/>
      <point x="764" y="538" type="line"/>
      <point x="716" y="538" type="line"/>
      <point x="602" y="0" type="line"/>
      <point x="407" y="0" type="line"/>
      <point x="466" y="278" type="line"/>
      <point x="254" y="278" type="line"/>
      <point x="195" y="0" type="line"/>
      <point x="0" y="0" type="line"/>
      <point x="114" y="538" type="line"/>
      <point x="67" y="538" type="line"/>
    </contour>
    <contour>
      <point x="502" y="448" type="line"/>
      <point x="521" y="538" type="line"/>
      <point x="309" y="538" type="line"/>
      <point x="290" y="448" type="line"/>
    </contour>
  </outline>
</glyph>
<glyph name="itilde" format="1">
  <advance width="286"/>
  <unicode hex="0129"/>
  <outline>
    <contour>
      <point x="96" y="526" type="line"/>
      <point x="286" y="526" type="line"/>
      <point x="174" y="0" type="line"/>
      <point x="-16" y="0" type="line"/>
    </contour>
    <contour>
      <point x="268" y="572" type="qcurve"/>
      <point x="246" y="572"/>
      <point x="216" y="587"/>
      <point x="191" y="605"/>
      <point x="166" y="620"/>
      <point x="150" y="620" type="qcurve"/>
      <point x="134" y="620"/>
      <point x="113" y="606"/>
      <point x="101" y="588"/>
      <point x="97" y="573"/>
      <point x="97" y="572" type="qcurve"/>
      <point x="-4" y="572" type="line"/>
      <point x="-1" y="585"/>
      <point x="25" y="638"/>
      <point x="69" y="690"/>
      <point x="129" y="730"/>
      <point x="165" y="730" type="qcurve"/>
      <point x="189" y="730"/>
      <point x="219" y="714"/>
      <point x="244" y="695"/>
      <point x="267" y="679"/>
      <point x="283" y="679" type="qcurve"/>
      <point x="298" y="679"/>
      <point x="320" y="694"/>
      <point x="334" y="713"/>
      <point x="341" y="729"/>
      <point x="341" y="730" type="qcurve"/>
      <point x="441" y="730" type="line"/>
      <point x="439" y="721"/>
      <point x="412" y="670"/>
      <point x="367" y="615"/>
      <point x="305" y="572"/>
    </contour>
  </outline>
</glyph>
<glyph name="Imacron" format="1">
  <advance width="317"/>
  <unicode hex="012A"/>
  <outline>
    <contour>
      <point x="148" y="710" type="line"/>
      <point x="343" y="710" type="line"/>
      <point x="192" y="0" type="line"/>
      <point x="-3" y="0" type="line"/>
    </contour>
    <contour>
      <point x="116" y="793" type="line"/>
      <point x="140" y="906" type="line"/>
      <point x="436" y="906" type="line"/>
      <point x="412" y="793" type="line"/>
    </contour>
  </outline>
</glyph>
<glyph name="Ibreve" format="1">
  <advance width="317"/>
  <unicode hex="012C"/>
  <outline>
    <contour>
      <point x="148" y="710" type="line"/>
      <point x="343" y="710" type="line"/>
      <point x="192" y="0" type="line"/>
      <point x="-3" y="0" type="line"/>
    </contour>
    <contour>
      <point x="272" y="835" type="qcurve"/>
      <point x="294" y="835"/>
      <point x="336" y="881"/>
      <point x="347" y="916" type="qcurve"/>
      <point x="445" y="916" type="line"/>
      <point x="437" y="880"/>
      <point x="402" y="821"/>
      <point x="352" y="778"/>
      <point x="289" y="754"/>
      <point x="255" y="754" type="qcurve"/>
      <point x="195" y="754"/>
      <point x="128" y="820"/>
      <point x="128" y="875" type="qcurve"/>
      <point x="128" y="893"/>
      <point x="133" y="916" type="qcurve"/>
      <point x="231" y="916" type="line"/>
      <point x="228" y="904"/>
      <point x="228" y="893" type="qcurve"/>
      <point x="228" y="868"/>
      <point x="252" y="835"/>
    </contour>
  </outline>
</glyph>
<glyph name="dotlessi" format="1">
  <advance width="286"/>
  <unicode hex="0131"/>
  <outline>
    <contour>
      <point x="191" y="522" type="move" name="top"/>
    </contour>
    <contour>
      <point x="96" y="526" type="line"/>
      <point x="286" y="526" type="line"/>
      <point x="174" y="0" type="line"/>
      <point x="-16" y="0" type="line"/>
    </contour>
  </outline>
</glyph>
<glyph name="jcircumflex" format="1">
  <advance width="286"/>
  <unicode hex="0135"/>
  <outline>
    <contour>
      <point x="-70" y="-209" type="qcurve"/>
      <point x="-110" y="-209"/>
      <point x="-179" y="-181"/>
      <point x="-203" y="-155" type="qcurve"/>
      <point x="-98" y="-26" type="line"/>
      <point x="-86" y="-46"/>
      <point x="-60" y="-46" type="qcurve"/>
      <point x="-27" y="-46"/>
      <point x="-17" y="-3" type="qcurve"/>
      <point x="95" y="526" type="line"/>
      <point x="286" y="526" type="line"/>
      <point x="177" y="12" type="line"/>
      <point x="166" y="-37"/>
      <point x="120" y="-118"/>
      <point x="55" y="-177"/>
      <point x="-26" y="-209"/>
    </contour>
    <contour>
      <point x="31" y="615" type="line"/>
      <point x="164" y="730" type="line"/>
      <point x="300" y="730" type="line"/>
      <point x="384" y="615" type="line"/>
      <point x="279" y="573" type="line"/>
      <point x="212" y="636" type="line"/>
      <point x="118" y="573" type="line"/>
    </contour>
  </outline>
</glyph>
<glyph name="kcommaaccent" format="1">
  <advance width="582"/>
  <unicode hex="0137"/>
  <outline>
    <contour>
      <point x="145" y="-213" type="line"/>
      <point x="194" y="-152" type="line"/>
      <point x="137" y="-152" type="line"/>
      <point x="160" y="-46" type="line"/>
      <point x="316" y="-46" type="line"/>
      <point x="294" y="-152" type="line"/>
      <point x="227" y="-213" type="line"/>
    </contour>
    <contour>
      <point x="139" y="730" type="line"/>
      <point x="327" y="730" type="line"/>
      <point x="256" y="398" type="line"/>
      <point x="332" y="531"/>
      <point x="447" y="531" type="qcurve"/>
      <point x="502" y="531"/>
      <point x="562" y="467"/>
      <point x="562" y="407" type="qcurve"/>
      <point x="562" y="340"/>
      <point x="494" y="227"/>
      <point x="432" y="189" type="qcurve"/>
      <point x="509" y="0" type="line"/>
      <point x="309" y="0" type="line"/>
      <point x="235" y="215" type="line"/>
      <point x="307" y="228"/>
      <point x="392" y="286"/>
      <point x="392" y="324" type="qcurve"/>
      <point x="392" y="344"/>
      <point x="368" y="369"/>
      <point x="349" y="369" type="qcurve"/>
      <point x="332" y="369"/>
      <point x="297" y="349"/>
      <point x="264" y="315"/>
      <point x="234" y="269"/>
      <point x="223" y="243" type="qcurve"/>
      <point x="172" y="0" type="line"/>
      <point x="-16" y="0" type="line"/>
    </contour>
  </outline>
</glyph>
<glyph name="lslash" format="1">
  <advance width="394"/>
  <unicode hex="0142"/>
  <outline>
    <contour>
      <point x="4" y="353" type="line"/>
      <point x="113" y="402" type="line"/>
      <point x="183" y="730" type="line"/>
      <point x="373" y="730" type="line"/>
      <point x="323" y="498" type="line"/>
      <point x="388" y="527" type="line"/>
      <point x="409" y="426" type="line"/>
      <point x="297" y="375" type="line"/>
      <point x="262" y="209" type="line"/>
      <point x="259" y="197"/>
      <point x="259" y="187" type="qcurve"/>
      <point x="259" y="149"/>
      <point x="295" y="149" type="qcurve"/>
      <point x="306" y="149"/>
      <point x="334" y="157"/>
      <point x="347" y="164" type="qcurve"/>
      <point x="341" y="24" type="line"/>
      <point x="304" y="8"/>
      <point x="217" y="-10"/>
      <point x="180" y="-10" type="qcurve"/>
      <point x="117" y="-10"/>
      <point x="53" y="45"/>
      <point x="53" y="97" type="qcurve"/>
      <point x="53" y="108"/>
      <point x="55" y="130"/>
      <point x="58" y="142" type="qcurve"/>
      <point x="87" y="280" type="line"/>
      <point x="25" y="252" type="line"/>
    </contour>
  </outline>
</glyph>
<glyph name="nacute" format="1">
  <advance width="601"/>
  <unicode hex="0144"/>
  <outline>
    <contour>
      <point x="386" y="576" type="line"/>
      <point x="258" y="588" type="line"/>
      <point x="335" y="730" type="line"/>
      <point x="503" y="730" type="line"/>
    </contour>
    <contour>
      <point x="96" y="526" type="line"/>
      <point x="267" y="526" type="line"/>
      <point x="250" y="448" type="line"/>
      <point x="285" y="491"/>
      <point x="390" y="536"/>
      <point x="455" y="536" type="qcurve"/>
      <point x="491" y="536"/>
      <point x="538" y="516"/>
      <point x="565" y="482"/>
      <point x="575" y="439"/>
      <point x="575" y="417" type="qcurve"/>
      <point x="575" y="398"/>
      <point x="570" y="362"/>
      <point x="567" y="346" type="qcurve"/>
      <point x="494" y="0" type="line"/>
      <point x="304" y="0" type="line"/>
      <point x="367" y="296" type="line"/>
      <point x="370" y="311"/>
      <point x="370" y="322" type="qcurve"/>
      <point x="370" y="347"/>
      <point x="347" y="370"/>
      <point x="331" y="370" type="qcurve"/>
      <point x="311" y="370"/>
      <point x="256" y="328"/>
      <point x="237" y="295" type="qcurve"/>
      <point x="174" y="0" type="line"/>
      <point x="-16" y="0" type="line"/>
    </contour>
  </outline>
</glyph>
<glyph name="eng" format="1">
  <advance width="600"/>
  <unicode hex="014B"/>
  <outline>
    <contour>
      <point x="248" y="-209" type="qcurve"/>
      <point x="208" y="-209"/>
      <point x="140" y="-181"/>
      <point x="116" y="-155" type="qcurve"/>
      <point x="221" y="-26" type="line"/>
      <point x="233" y="-46"/>
      <point x="259" y="-46" type="qcurve"/>
      <point x="293" y="-46"/>
      <point x="303" y="-3" type="qcurve"/>
      <point x="367" y="296" type="line"/>
      <point x="370" y="311"/>
      <point x="370" y="322" type="qcurve"/>
      <point x="370" y="347"/>
      <point x="347" y="370"/>
      <point x="331" y="370" type="qcurve"/>
      <point x="311" y="370"/>
      <point x="256" y="328"/>
      <point x="237" y="295" type="qcurve"/>
      <point x="174" y="0" type="line"/>
      <point x="-16" y="0" type="line"/>
      <point x="96" y="526" type="line"/>
      <point x="267" y="526" type="line"/>
      <point x="250" y="448" type="line"/>
      <point x="285" y="491"/>
      <point x="390" y="536"/>
      <point x="455" y="536" type="qcurve"/>
      <point x="491" y="536"/>
      <point x="538" y="516"/>
      <point x="565" y="483"/>
      <point x="575" y="441"/>
      <point x="575" y="419" type="qcurve"/>
      <point x="575" y="400"/>
      <point x="570" y="363"/>
      <point x="566" y="346" type="qcurve"/>
      <point x="495" y="12" type="line"/>
      <point x="484" y="-37"/>
      <point x="438" y="-118"/>
      <point x="372" y="-177"/>
      <point x="292" y="-209"/>
    </contour>
  </outline>
</glyph>
<glyph name="Obreve" format="1">
  <advance width="738"/>
  <unicode hex="014E"/>
  <outline>
    <contour>
      <point x="303" y="-6" type="qcurve"/>
      <point x="237" y="-6"/>
      <point x="134" y="44"/>
      <point x="64" y="126"/>
      <point x="28" y="234"/>
      <point x="28" y="292" type="qcurve"/>
      <point x="28" y="373"/>
      <point x="98" y="525"/>
      <point x="217" y="643"/>
      <point x="374" y="714"/>
      <point x="460" y="714" type="qcurve"/>
      <point x="526" y="714"/>
      <point x="628" y="664"/>
      <point x="697" y="581"/>
      <point x="733" y="474"/>
      <point x="733" y="416" type="qcurve"/>
      <point x="733" y="336"/>
      <point x="663" y="184"/>
      <point x="545" y="66"/>
      <point x="389" y="-6"/>
    </contour>
    <contour>
      <point x="341" y="167" type="qcurve"/>
      <point x="389" y="167"/>
      <point x="461" y="212"/>
      <point x="510" y="281"/>
      <point x="534" y="364"/>
      <point x="534" y="403" type="qcurve"/>
      <point x="534" y="431"/>
      <point x="521" y="481"/>
      <point x="494" y="519"/>
      <point x="450" y="541"/>
      <point x="420" y="541" type="qcurve"/>
      <point x="373" y="541"/>
      <point x="301" y="497"/>
      <point x="253" y="429"/>
      <point x="228" y="346"/>
      <point x="228" y="307" type="qcurve"/>
      <point x="228" y="279"/>
      <point x="241" y="229"/>
      <point x="268" y="190"/>
      <point x="311" y="167"/>
    </contour>
    <contour>
      <point x="484" y="835" type="qcurve"/>
      <point x="506" y="835"/>
      <point x="548" y="881"/>
      <point x="559" y="916" type="qcurve"/>
      <point x="657" y="916" type="line"/>
      <point x="649" y="880"/>
      <point x="614" y="821"/>
      <point x="564" y="778"/>
      <point x="501" y="754"/>
      <point x="467" y="754" type="qcurve"/>
      <point x="407" y="754"/>
      <point x="340" y="820"/>
      <point x="340" y="875" type="qcurve"/>
      <point x="340" y="893"/>
      <point x="345" y="916" type="qcurve"/>
      <point x="443" y="916" type="line"/>
      <point x="440" y="904"/>
      <point x="440" y="893" type="qcurve"/>
      <point x="440" y="868"/>
      <point x="464" y="835"/>
    </contour>
  </outline>
</glyph>
<glyph name="Ohungarumlaut" format="1">
  <advance width="738"/>
  <unicode hex="0150"/>
  <outline>
    <contour>
      <point x="394" y="741" type="line"/>
      <point x="295" y="750" type="line"/>
      <point x="362" y="892" type="line"/>
      <point x="500" y="892" type="line"/>
    </contour>
    <contour>
      <point x="579" y="741" type="line"/>
      <point x="481" y="750" type="line"/>
      <point x="547" y="892" type="line"/>
      <point x="685" y="892" type="line"/>
    </contour>
    <contour>
      <point x="303" y="-6" type="qcurve"/>
      <point x="237" y="-6"/>
      <point x="134" y="44"/>
      <point x="64" y="126"/>
      <point x="28" y="234"/>
      <point x="28" y="292" type="qcurve"/>
      <point x="28" y="373"/>
      <point x="98" y="525"/>
      <point x="217" y="643"/>
      <point x="374" y="714"/>
      <point x="460" y="714" type="qcurve"/>
      <point x="526" y="714"/>
      <point x="628" y="664"/>
      <point x="697" y="581"/>
      <point x="733" y="474"/>
      <point x="733" y="416" type="qcurve"/>
      <point x="733" y="336"/>
      <point x="663" y="184"/>
      <point x="545" y="66"/>
      <point x="389" y="-6"/>
    </contour>
    <contour>
      <point x="341" y="167" type="qcurve"/>
      <point x="389" y="167"/>
      <point x="461" y="212"/>
      <point x="510" y="281"/>
      <point x="534" y="364"/>
      <point x="534" y="403" type="qcurve"/>
      <point x="534" y="431"/>
      <point x="521" y="481"/>
      <point x="494" y="519"/>
      <point x="450" y="541"/>
      <point x="420" y="541" type="qcurve"/>
      <point x="373" y="541"/>
      <point x="301" y="497"/>
      <point x="253" y="429"/>
      <point x="228" y="346"/>
      <point x="228" y="307" type="qcurve"/>
      <point x="228" y="279"/>
      <point x="241" y="229"/>
      <point x="268" y="190"/>
      <point x="311" y="167"/>
    </contour>
  </outline>
</glyph>
<glyph name="oe" format="1">
  <advance width="947"/>
  <unicode hex="0153"/>
  <outline>
    <contour>
      <point x="230" y="-10" type="qcurve"/>
      <point x="178" y="-10"/>
      <point x="96" y="22"/>
      <point x="38" y="80"/>
      <point x="7" y="161"/>
      <point x="7" y="209" type="qcurve"/>
      <point x="7" y="278"/>
      <point x="61" y="398"/>
      <point x="152" y="486"/>
      <point x="275" y="536"/>
      <point x="344" y="536" type="qcurve"/>
      <point x="400" y="536"/>
      <point x="478" y="495"/>
      <point x="508" y="450" type="qcurve"/>
      <point x="563" y="496"/>
      <point x="657" y="536"/>
      <point x="710" y="536" type="qcurve"/>
      <point x="761" y="536"/>
      <point x="843" y="504"/>
      <point x="900" y="445"/>
      <point x="931" y="365"/>
      <point x="931" y="317" type="qcurve"/>
      <point x="931" y="279"/>
      <point x="914" y="225"/>
      <point x="906" y="205" type="qcurve"/>
      <point x="562" y="205" type="line"/>
      <point x="561" y="200"/>
      <point x="560" y="193"/>
      <point x="560" y="189" type="qcurve"/>
      <point x="560" y="159"/>
      <point x="596" y="122"/>
      <point x="626" y="122" type="qcurve"/>
      <point x="655" y="122"/>
      <point x="711" y="154"/>
      <point x="725" y="179" type="qcurve"/>
      <point x="872" y="133" type="line"/>
      <point x="824" y="66"/>
      <point x="676" y="-10"/>
      <point x="592" y="-10" type="qcurve"/>
      <point x="568" y="-10"/>
      <point x="527" y="-2"/>
      <point x="488" y="17"/>
      <point x="449" y="48"/>
      <point x="427" y="70" type="qcurve"/>
      <point x="395" y="47"/>
      <point x="344" y="17"/>
      <point x="298" y="-2"/>
      <point x="254" y="-10"/>
    </contour>
    <contour>
      <point x="266" y="150" type="qcurve"/>
      <point x="289" y="150"/>
      <point x="329" y="173"/>
      <point x="358" y="212"/>
      <point x="375" y="265"/>
      <point x="375" y="295" type="qcurve"/>
      <point x="375" y="332"/>
      <point x="343" y="376"/>
      <point x="314" y="376" type="qcurve"/>
      <point x="291" y="376"/>
      <point x="251" y="353"/>
      <point x="222" y="314"/>
      <point x="205" y="261"/>
      <point x="205" y="231" type="qcurve"/>
      <point x="205" y="194"/>
      <point x="237" y="150"/>
    </contour>
    <contour>
      <point x="735" y="319" type="line"/>
      <point x="735" y="323"/>
      <point x="736" y="329"/>
      <point x="736" y="332" type="qcurve"/>
      <point x="736" y="364"/>
      <point x="704" y="401"/>
      <point x="675" y="401" type="qcurve"/>
      <point x="643" y="401"/>
      <point x="591" y="357"/>
      <point x="580" y="319" type="qcurve"/>
    </contour>
  </outline>
</glyph>
<glyph name="uni015E" format="1">
  <advance width="596"/>
  <unicode hex="015E"/>
  <outline>
    <contour>
      <point x="130" y="-128" type="line"/>
      <point x="138" y="-135"/>
      <point x="186" y="-148"/>
      <point x="212" y="-148" type="qcurve"/>
      <point x="236" y="-148"/>
      <point x="272" y="-132"/>
      <point x="272" y="-112" type="qcurve"/>
      <point x="272" y="-98"/>
      <point x="247" y="-87"/>
      <point x="225" y="-87" type="qcurve"/>
      <point x="205" y="-87"/>
      <point x="159" y="-94"/>
      <point x="148" y="-96" type="qcurve"/>
      <point x="208" y="-7" type="line"/>
      <point x="142" y="-2"/>
      <point x="14" y="41"/>
      <point x="-33" y="74" type="qcurve"/>
      <point x="87" y="244" type="line"/>
      <point x="94" y="239"/>
      <point x="130" y="213"/>
      <point x="183" y="187"/>
      <point x="249" y="167"/>
      <point x="285" y="167" type="qcurve"/>
      <point x="319" y="167"/>
      <point x="337" y="190"/>
      <point x="337" y="204" type="qcurve"/>
      <point x="337" y="217"/>
      <point x="315" y="236"/>
      <point x="279" y="252"/>
      <point x="232" y="267"/>
      <point x="207" y="277" type="qcurve"/>
      <point x="141" y="303"/>
      <point x="76" y="377"/>
      <point x="76" y="434" type="qcurve"/>
      <point x="76" y="501"/>
      <point x="130" y="606"/>
      <point x="218" y="678"/>
      <point x="329" y="716"/>
      <point x="386" y="716" type="qcurve"/>
      <point x="423" y="716"/>
      <point x="492" y="701"/>
      <point x="553" y="678"/>
      <point x="605" y="651"/>
      <point x="625" y="639" type="qcurve"/>
      <point x="507" y="478" type="line"/>
      <point x="506" y="479"/>
      <point x="477" y="500"/>
      <point x="431" y="524"/>
      <point x="373" y="543"/>
      <point x="343" y="543" type="qcurve"/>
      <point x="321" y="543"/>
      <point x="290" y="523"/>
      <point x="290" y="501" type="qcurve"/>
      <point x="290" y="478"/>
      <point x="348" y="454"/>
      <point x="396" y="437" type="qcurve"/>
      <point x="432" y="423"/>
      <point x="491" y="393"/>
      <point x="534" y="353"/>
      <point x="557" y="299"/>
      <point x="557" y="262" type="qcurve"/>
      <point x="557" y="192"/>
      <point x="508" y="93"/>
      <point x="429" y="29"/>
      <point x="330" y="-4"/>
      <point x="280" y="-8" type="qcurve"/>
      <point x="257" y="-34" type="line"/>
      <point x="262" y="-33"/>
      <point x="275" y="-32"/>
      <point x="282" y="-32" type="qcurve"/>
      <point x="312" y="-32"/>
      <point x="358" y="-61"/>
      <point x="358" y="-95" type="qcurve"/>
      <point x="358" y="-118"/>
      <point x="337" y="-160"/>
      <point x="295" y="-193"/>
      <point x="230" y="-213"/>
      <point x="186" y="-213" type="qcurve"/>
      <point x="151" y="-213"/>
      <point x="99" y="-200"/>
      <point x="82" y="-192" type="qcurve"/>
    </contour>
  </outline>
</glyph>
<glyph name="uni015F" format="1">
  <advance width="485"/>
  <unicode hex="015F"/>
  <outline>
    <contour>
      <point x="64" y="-128" type="line"/>
      <point x="72" y="-135"/>
      <point x="120" y="-148"/>
      <point x="146" y="-148" type="qcurve"/>
      <point x="170" y="-148"/>
      <point x="206" y="-132"/>
      <point x="206" y="-112" type="qcurve"/>
      <point x="206" y="-98"/>
      <point x="181" y="-87"/>
      <point x="159" y="-87" type="qcurve"/>
      <point x="139" y="-87"/>
      <point x="93" y="-94"/>
      <point x="82" y="-96" type="qcurve"/>
      <point x="143" y="-7" type="line"/>
      <point x="91" y="0"/>
      <point x="1" y="43"/>
      <point x="-27" y="78" type="qcurve"/>
      <point x="61" y="192" type="line"/>
      <point x="101" y="159"/>
      <point x="180" y="123"/>
      <point x="215" y="123" type="qcurve"/>
      <point x="235" y="123"/>
      <point x="251" y="139"/>
      <point x="251" y="153" type="qcurve"/>
      <point x="251" y="164"/>
      <point x="227" y="184"/>
      <point x="195" y="195" type="qcurve"/>
      <point x="152" y="209"/>
      <point x="92" y="237"/>
      <point x="53" y="267"/>
      <point x="35" y="303"/>
      <point x="35" y="326" type="qcurve"/>
      <point x="35" y="370"/>
      <point x="74" y="447"/>
      <point x="142" y="504"/>
      <point x="232" y="537"/>
      <point x="283" y="537" type="qcurve"/>
      <point x="339" y="537"/>
      <point x="431" y="507"/>
      <point x="474" y="461" type="qcurve"/>
      <point x="379" y="347" type="line"/>
      <point x="338" y="378"/>
      <point x="282" y="406"/>
      <point x="256" y="406" type="qcurve"/>
      <point x="239" y="406"/>
      <point x="219" y="389"/>
      <point x="219" y="374" type="qcurve"/>
      <point x="219" y="361"/>
      <point x="246" y="344"/>
      <point x="281" y="333" type="qcurve"/>
      <point x="368" y="307"/>
      <point x="441" y="245"/>
      <point x="441" y="196" type="qcurve"/>
      <point x="441" y="152"/>
      <point x="408" y="80"/>
      <point x="348" y="26"/>
      <point x="263" y="-6"/>
      <point x="212" y="-9" type="qcurve"/>
      <point x="191" y="-34" type="line"/>
      <point x="196" y="-33"/>
      <point x="209" y="-32"/>
      <point x="216" y="-32" type="qcurve"/>
      <point x="246" y="-32"/>
      <point x="292" y="-61"/>
      <point x="292" y="-95" type="qcurve"/>
      <point x="292" y="-118"/>
      <point x="271" y="-160"/>
      <point x="229" y="-193"/>
      <point x="164" y="-213"/>
      <point x="120" y="-213" type="qcurve"/>
      <point x="85" y="-213"/>
      <point x="33" y="-200"/>
      <point x="16" y="-192" type="qcurve"/>
    </contour>
  </outline>
</glyph>
<glyph name="uni0162" format="1">
  <advance width="600"/>
  <unicode hex="0162"/>
  <outline>
    <contour>
      <point x="254" y="540" type="line"/>
      <point x="63" y="540" type="line"/>
      <point x="99" y="710" type="line"/>
      <point x="675" y="710" type="line"/>
      <point x="639" y="540" type="line"/>
      <point x="449" y="540" type="line"/>
      <point x="334" y="0" type="line"/>
      <point x="264" y="0" type="line"/>
      <point x="234" y="-34" type="line"/>
      <point x="239" y="-33"/>
      <point x="252" y="-32"/>
      <point x="259" y="-32" type="qcurve"/>
      <point x="289" y="-32"/>
      <point x="335" y="-61"/>
      <point x="335" y="-95" type="qcurve"/>
      <point x="335" y="-118"/>
      <point x="314" y="-160"/>
      <point x="272" y="-193"/>
      <point x="207" y="-213"/>
      <point x="163" y="-213" type="qcurve"/>
      <point x="128" y="-213"/>
      <point x="76" y="-200"/>
      <point x="59" y="-192" type="qcurve"/>
      <point x="107" y="-128" type="line"/>
      <point x="115" y="-135"/>
      <point x="163" y="-148"/>
      <point x="189" y="-148" type="qcurve"/>
      <point x="213" y="-148"/>
      <point x="249" y="-132"/>
      <point x="249" y="-112" type="qcurve"/>
      <point x="249" y="-98"/>
      <point x="224" y="-87"/>
      <point x="202" y="-87" type="qcurve"/>
      <point x="182" y="-87"/>
      <point x="136" y="-94"/>
      <point x="125" y="-96" type="qcurve"/>
      <point x="190" y="0" type="line"/>
      <point x="139" y="0" type="line"/>
    </contour>
  </outline>
</glyph>
<glyph name="Utilde" format="1">
  <advance width="712"/>
  <unicode hex="0168"/>
  <outline>
    <contour>
      <point x="290" y="-6" type="qcurve"/>
      <point x="225" y="-6"/>
      <point x="132" y="31"/>
      <point x="74" y="97"/>
      <point x="47" y="186"/>
      <point x="47" y="238" type="qcurve"/>
      <point x="47" y="289"/>
      <point x="59" y="345" type="qcurve"/>
      <point x="137" y="710" type="line"/>
      <point x="332" y="710" type="line"/>
      <point x="254" y="345" type="line"/>
      <point x="246" y="305"/>
      <point x="246" y="274" type="qcurve"/>
      <point x="246" y="227"/>
      <point x="283" y="167"/>
      <point x="327" y="167" type="qcurve"/>
      <point x="357" y="167"/>
      <point x="405" y="197"/>
      <point x="443" y="246"/>
      <point x="468" y="310"/>
      <point x="476" y="345" type="qcurve"/>
      <point x="554" y="710" type="line"/>
      <point x="749" y="710" type="line"/>
      <point x="671" y="345" type="line"/>
      <point x="655" y="271"/>
      <point x="591" y="142"/>
      <point x="495" y="48"/>
      <point x="368" y="-6"/>
    </contour>
    <contour>
      <point x="517" y="758" type="qcurve"/>
      <point x="495" y="758"/>
      <point x="465" y="773"/>
      <point x="440" y="791"/>
      <point x="415" y="806"/>
      <point x="399" y="806" type="qcurve"/>
      <point x="383" y="806"/>
      <point x="362" y="792"/>
      <point x="350" y="774"/>
      <point x="346" y="759"/>
      <point x="346" y="758" type="qcurve"/>
      <point x="245" y="758" type="line"/>
      <point x="248" y="771"/>
      <point x="274" y="824"/>
      <point x="318" y="876"/>
      <point x="378" y="916"/>
      <point x="414" y="916" type="qcurve"/>
      <point x="438" y="916"/>
      <point x="468" y="900"/>
      <point x="493" y="881"/>
      <point x="516" y="865"/>
      <point x="532" y="865" type="qcurve"/>
      <point x="547" y="865"/>
      <point x="569" y="880"/>
      <point x="583" y="899"/>
      <point x="590" y="915"/>
      <point x="590" y="916" type="qcurve"/>
      <point x="690" y="916" type="line"/>
      <point x="688" y="907"/>
      <point x="661" y="856"/>
      <point x="616" y="801"/>
      <point x="554" y="758"/>
    </contour>
  </outline>
</glyph>
<glyph name="uring" format="1">
  <advance width="618"/>
  <unicode hex="016F"/>
  <outline>
    <contour>
      <point x="250" y="626" type="qcurve"/>
      <point x="250" y="677"/>
      <point x="325" y="730"/>
      <point x="386" y="730" type="qcurve"/>
      <point x="432" y="730"/>
      <point x="484" y="695"/>
      <point x="484" y="660" type="qcurve"/>
      <point x="484" y="609"/>
      <point x="409" y="556"/>
      <point x="349" y="556" type="qcurve"/>
      <point x="303" y="556"/>
      <point x="250" y="591"/>
    </contour>
    <contour>
      <point x="374" y="676" type="qcurve"/>
      <point x="355" y="676"/>
      <point x="329" y="655"/>
      <point x="329" y="638" type="qcurve"/>
      <point x="329" y="610"/>
      <point x="360" y="610" type="qcurve"/>
      <point x="378" y="610"/>
      <point x="406" y="632"/>
      <point x="406" y="649" type="qcurve"/>
      <point x="406" y="661"/>
      <point x="388" y="676"/>
    </contour>
    <contour>
      <point x="132" y="-10" type="qcurve"/>
      <point x="72" y="-10"/>
      <point x="9" y="53"/>
      <point x="9" y="114" type="qcurve"/>
      <point x="9" y="142"/>
      <point x="17" y="180" type="qcurve"/>
      <point x="91" y="526" type="line"/>
      <point x="280" y="526" type="line"/>
      <point x="216" y="223" type="line"/>
      <point x="213" y="208"/>
      <point x="213" y="196" type="qcurve"/>
      <point x="213" y="150"/>
      <point x="251" y="150" type="qcurve"/>
      <point x="268" y="150"/>
      <point x="312" y="170"/>
      <point x="341" y="204" type="qcurve"/>
      <point x="410" y="526" type="line"/>
      <point x="600" y="526" type="line"/>
      <point x="533" y="210" type="line"/>
      <point x="530" y="195"/>
      <point x="530" y="186" type="qcurve"/>
      <point x="530" y="161"/>
      <point x="557" y="160" type="qcurve"/>
      <point x="523" y="0" type="line"/>
      <point x="473" y="-10"/>
      <point x="441" y="-10" type="qcurve"/>
      <point x="398" y="-10"/>
      <point x="343" y="23"/>
      <point x="343" y="63" type="qcurve"/>
      <point x="343" y="68"/>
      <point x="344" y="77"/>
      <point x="345" y="82" type="qcurve"/>
      <point x="300" y="33"/>
      <point x="195" y="-10"/>
    </contour>
  </outline>
</glyph>
<glyph name="Uogonek" format="1">
  <advance width="712"/>
  <unicode hex="0172"/>
  <outline>
    <contour>
      <point x="284" y="-214" type="line"/>
      <point x="216" y="-206"/>
      <point x="153" y="-157"/>
      <point x="153" y="-125" type="qcurve"/>
      <point x="153" y="-96"/>
      <point x="203" y="-33"/>
      <point x="252" y="-4" type="qcurve"/>
      <point x="197" y="1"/>
      <point x="119" y="42"/>
      <point x="70" y="106"/>
      <point x="47" y="190"/>
      <point x="47" y="238" type="qcurve"/>
      <point x="47" y="289"/>
      <point x="59" y="345" type="qcurve"/>
      <point x="137" y="710" type="line"/>
      <point x="332" y="710" type="line"/>
      <point x="254" y="345" type="line"/>
      <point x="246" y="305"/>
      <point x="246" y="274" type="qcurve"/>
      <point x="246" y="227"/>
      <point x="283" y="167"/>
      <point x="327" y="167" type="qcurve"/>
      <point x="357" y="167"/>
      <point x="405" y="197"/>
      <point x="443" y="246"/>
      <point x="468" y="310"/>
      <point x="476" y="345" type="qcurve"/>
      <point x="554" y="710" type="line"/>
      <point x="749" y="710" type="line"/>
      <point x="671" y="345" type="line"/>
      <point x="657" y="280"/>
      <point x="604" y="165"/>
      <point x="527" y="75"/>
      <point x="426" y="13"/>
      <point x="364" y="1" type="qcurve"/>
      <point x="324" y="-22"/>
      <point x="279" y="-64"/>
      <point x="279" y="-82" type="qcurve"/>
      <point x="279" y="-96"/>
      <point x="308" y="-114"/>
      <point x="340" y="-114" type="qcurve"/>
    </contour>
  </outline>
</glyph>
<glyph name="Ydieresis" format="1">
  <advance width="627"/>
  <unicode hex="0178"/>
  <outline>
    <contour>
      <point x="198" y="237" type="line"/>
      <point x="72" y="710" type="line"/>
      <point x="283" y="710" type="line"/>
      <point x="330" y="403" type="line"/>
      <point x="511" y="710" type="line"/>
      <point x="723" y="710" type="line"/>
      <point x="391" y="235" type="line"/>
      <point x="341" y="0" type="line"/>
      <point x="147" y="0" type="line"/>
    </contour>
    <contour>
      <point x="216" y="767" type="line"/>
      <point x="246" y="907" type="line"/>
      <point x="402" y="907" type="line"/>
      <point x="372" y="767" type="line"/>
    </contour>
    <contour>
      <point x="441" y="767" type="line"/>
      <point x="471" y="907" type="line"/>
      <point x="626" y="907" type="line"/>
      <point x="597" y="767" type="line"/>
    </contour>
  </outline>
</glyph>
<glyph name="Schwa" format="1">
  <advance width="732"/>
  <unicode hex="018F"/>
  <outline>
    <contour>
      <point x="296" y="-5" type="qcurve"/>
      <point x="222" y="-5"/>
      <point x="116" y="48"/>
      <point x="47" y="131"/>
      <point x="15" y="234"/>
      <point x="15" y="284" type="qcurve"/>
      <point x="15" y="326"/>
      <point x="33" y="388"/>
      <point x="43" y="411" type="qcurve"/>
      <point x="517" y="411" type="line"/>
      <point x="518" y="418"/>
      <point x="519" y="431"/>
      <point x="519" y="437" type="qcurve"/>
      <point x="519" y="493"/>
      <point x="457" y="543"/>
      <point x="415" y="543" type="qcurve"/>
      <point x="396" y="543"/>
      <point x="357" y="532"/>
      <point x="321" y="512"/>
      <point x="292" y="483"/>
      <point x="283" y="464" type="qcurve"/>
      <point x="91" y="521" type="line"/>
      <point x="148" y="608"/>
      <point x="331" y="714"/>
      <point x="449" y="714" type="qcurve"/>
      <point x="521" y="714"/>
      <point x="626" y="662"/>
      <point x="695" y="579"/>
      <point x="728" y="475"/>
      <point x="728" y="423" type="qcurve"/>
      <point x="728" y="353"/>
      <point x="667" y="202"/>
      <point x="555" y="76"/>
      <point x="395" y="-5"/>
    </contour>
    <contour>
      <point x="335" y="165" type="qcurve"/>
      <point x="386" y="165"/>
      <point x="463" y="219"/>
      <point x="482" y="268" type="qcurve"/>
      <point x="223" y="268" type="line"/>
      <point x="220" y="256"/>
      <point x="220" y="246" type="qcurve"/>
      <point x="220" y="208"/>
      <point x="286" y="165"/>
    </contour>
  </outline>
</glyph>
<glyph name="uni01C4" format="1">
  <advance width="1286"/>
  <unicode hex="01C4"/>
  <outline>
    <contour>
      <point x="148" y="710" type="line"/>
      <point x="410" y="710" type="line"/>
      <point x="480" y="710"/>
      <point x="584" y="667"/>
      <point x="653" y="592"/>
      <point x="686" y="491"/>
      <point x="686" y="433" type="qcurve"/>
      <point x="686" y="339"/>
      <point x="621" y="180"/>
      <point x="506" y="65"/>
      <point x="350" y="0"/>
      <point x="259" y="0" type="qcurve"/>
      <point x="-3" y="0" type="line"/>
    </contour>
    <contour>
      <point x="295" y="170" type="line"/>
      <point x="337" y="170"/>
      <point x="407" y="208"/>
      <point x="457" y="273"/>
      <point x="485" y="358"/>
      <point x="485" y="405" type="qcurve"/>
      <point x="485" y="466"/>
      <point x="428" y="540"/>
      <point x="374" y="540" type="qcurve"/>
      <point x="307" y="540" type="line"/>
      <point x="228" y="170" type="line"/>
    </contour>
    <contour>
      <point x="925" y="874" type="line"/>
      <point x="1030" y="916" type="line"/>
      <point x="1097" y="853" type="line"/>
      <point x="1191" y="916" type="line"/>
      <point x="1278" y="874" type="line"/>
      <point x="1145" y="759" type="line"/>
      <point x="1009" y="759" type="line"/>
    </contour>
    <contour>
      <point x="687" y="145" type="line"/>
      <point x="1074" y="540" type="line"/>
      <point x="786" y="540" type="line"/>
      <point x="822" y="710" type="line"/>
      <point x="1336" y="710" type="line"/>
      <point x="1305" y="565" type="line"/>
      <point x="937" y="170" type="line"/>
      <point x="1227" y="170" type="line"/>
      <point x="1191" y="0" type="line"/>
      <point x="656" y="0" type="line"/>
    </contour>
  </outline>
</glyph>
<glyph name="uni01CC" format="1">
  <advance width="891"/>
  <unicode hex="01CC"/>
  <outline>
    <contour>
      <point x="96" y="526" type="line"/>
      <point x="267" y="526" type="line"/>
      <point x="250" y="448" type="line"/>
      <point x="285" y="491"/>
      <point x="390" y="536"/>
      <point x="455" y="536" type="qcurve"/>
      <point x="491" y="536"/>
      <point x="538" y="516"/>
      <point x="565" y="482"/>
      <point x="575" y="439"/>
      <point x="575" y="417" type="qcurve"/>
      <point x="575" y="398"/>
      <point x="570" y="362"/>
      <point x="567" y="346" type="qcurve"/>
      <point x="494" y="0" type="line"/>
      <point x="304" y="0" type="line"/>
      <point x="367" y="296" type="line"/>
      <point x="370" y="311"/>
      <point x="370" y="322" type="qcurve"/>
      <point x="370" y="347"/>
      <point x="347" y="370"/>
      <point x="331" y="370" type="qcurve"/>
      <point x="311" y="370"/>
      <point x="256" y="328"/>
      <point x="237" y="295" type="qcurve"/>
      <point x="174" y="0" type="line"/>
      <point x="-16" y="0" type="line"/>
    </contour>
    <contour>
      <point x="535" y="-209" type="qcurve"/>
      <point x="495" y="-209"/>
      <point x="426" y="-181"/>
      <point x="402" y="-155" type="qcurve"/>
      <point x="507" y="-26" type="line"/>
      <point x="519" y="-46"/>
      <point x="545" y="-46" type="qcurve"/>
      <point x="578" y="-46"/>
      <point x="588" y="-3" type="qcurve"/>
      <point x="700" y="526" type="line"/>
      <point x="891" y="526" type="line"/>
      <point x="782" y="12" type="line"/>
      <point x="771" y="-37"/>
      <point x="725" y="-118"/>
      <point x="660" y="-177"/>
      <point x="579" y="-209"/>
    </contour>
    <contour>
      <point x="744" y="730" type="line"/>
      <point x="934" y="730" type="line"/>
      <point x="900" y="570" type="line"/>
      <point x="710" y="570" type="line"/>
    </contour>
  </outline>
</glyph>
<glyph name="Aringacute" format="1">
  <advance width="636"/>
  <unicode hex="01FA"/>
  <outline>
    <contour>
      <point x="507" y="808" type="line"/>
      <point x="529" y="791"/>
      <point x="529" y="759" type="qcurve"/>
      <point x="529" y="716"/>
      <point x="501" y="690" type="qcurve"/>
      <point x="578" y="0" type="line"/>
      <point x="380" y="0" type="line"/>
      <point x="373" y="139" type="line"/>
      <point x="203" y="139" type="line"/>
      <point x="138" y="0" type="line"/>
      <point x="-61" y="0" type="line"/>
      <point x="307" y="686" type="line"/>
      <point x="295" y="701"/>
      <point x="295" y="725" type="qcurve"/>
      <point x="295" y="763"/>
      <point x="337" y="811"/>
      <point x="374" y="822" type="qcurve"/>
      <point x="434" y="927" type="line"/>
      <point x="602" y="927" type="line"/>
    </contour>
    <contour>
      <point x="370" y="269" type="line"/>
      <point x="362" y="489" type="line"/>
      <point x="259" y="269" type="line"/>
    </contour>
    <contour>
      <point x="419" y="775" type="qcurve"/>
      <point x="400" y="775"/>
      <point x="374" y="754"/>
      <point x="374" y="737" type="qcurve"/>
      <point x="374" y="709"/>
      <point x="405" y="709" type="qcurve"/>
      <point x="423" y="709"/>
      <point x="451" y="731"/>
      <point x="451" y="748" type="qcurve"/>
      <point x="451" y="760"/>
      <point x="433" y="775"/>
    </contour>
  </outline>
</glyph>
<glyph name="oslashacute" format="1">
  <advance width="596"/>
  <unicode hex="01FF"/>
  <outline>
    <contour>
      <point x="42" y="80" type="line"/>
      <point x="24" y="108"/>
      <point x="7" y="173"/>
      <point x="7" y="209" type="qcurve"/>
      <point x="7" y="270"/>
      <point x="54" y="388"/>
      <point x="143" y="480"/>
      <point x="269" y="536"/>
      <point x="348" y="536" type="qcurve"/>
      <point x="391" y="536"/>
      <point x="460" y="516"/>
      <point x="486" y="498" type="qcurve"/>
      <point x="523" y="532" type="line"/>
      <point x="624" y="532" type="line"/>
      <point x="534" y="450" type="line"/>
      <point x="573" y="394"/>
      <point x="573" y="317" type="qcurve"/>
      <point x="573" y="256"/>
      <point x="526" y="138"/>
      <point x="437" y="46"/>
      <point x="311" y="-10"/>
      <point x="232" y="-10" type="qcurve"/>
      <point x="142" y="-10"/>
      <point x="88" y="32" type="qcurve"/>
      <point x="47" y="-6" type="line"/>
      <point x="-52" y="-6" type="line"/>
    </contour>
    <contour>
      <point x="266" y="150" type="qcurve"/>
      <point x="288" y="150"/>
      <point x="328" y="172"/>
      <point x="358" y="210"/>
      <point x="376" y="263"/>
      <point x="376" y="294" type="qcurve"/>
      <point x="376" y="297"/>
      <point x="376" y="304"/>
      <point x="375" y="307" type="qcurve"/>
      <point x="226" y="165" type="line"/>
      <point x="241" y="150"/>
    </contour>
    <contour>
      <point x="205" y="227" type="line"/>
      <point x="349" y="364" type="line"/>
      <point x="334" y="376"/>
      <point x="314" y="376" type="qcurve"/>
      <point x="292" y="376"/>
      <point x="252" y="354"/>
      <point x="222" y="316"/>
      <point x="205" y="263"/>
      <point x="205" y="232" type="qcurve"/>
    </contour>
    <contour>
      <point x="411" y="576" type="line"/>
      <point x="283" y="588" type="line"/>
      <point x="360" y="730" type="line"/>
      <point x="528" y="730" type="line"/>
    </contour>
  </outline>
</glyph>
<glyph name="Adblgrave" format="1">
  <advance width="636"/>
  <unicode hex="0200"/>
  <outline>
    <contour>
      <point x="320" y="710" type="line"/>
      <point x="499" y="710" type="line"/>
      <point x="578" y="0" type="line"/>
      <point x="380" y="0" type="line"/>
      <point x="373" y="139" type="line"/>
      <point x="203" y="139" type="line"/>
      <point x="138" y="0" type="line"/>
      <point x="-61" y="0" type="line"/>
    </contour>
    <contour>
      <point x="370" y="269" type="line"/>
      <point x="362" y="489" type="line"/>
      <point x="259" y="269" type="line"/>
    </contour>
    <contour>
      <point x="432" y="918" type="line"/>
      <point x="569" y="918" type="line"/>
      <point x="576" y="776" type="line"/>
      <point x="476" y="762" type="line"/>
    </contour>
    <contour>
      <point x="246" y="918" type="line"/>
      <point x="384" y="918" type="line"/>
      <point x="390" y="776" type="line"/>
      <point x="290" y="762" type="line"/>
    </contour>
  </outline>
</glyph>
<glyph name="edblgrave" format="1">
  <advance width="566"/>
  <unicode hex="0205"/>
  <outline>
    <contour>
      <point x="233" y="-10" type="qcurve"/>
      <point x="182" y="-10"/>
      <point x="98" y="22"/>
      <point x="39" y="80"/>
      <point x="7" y="162"/>
      <point x="7" y="213" type="qcurve"/>
      <point x="7" y="280"/>
      <point x="61" y="398"/>
      <point x="155" y="486"/>
      <point x="282" y="536"/>
      <point x="354" y="536" type="qcurve"/>
      <point x="450" y="536"/>
      <point x="557" y="455"/>
      <point x="557" y="383" type="qcurve"/>
      <point x="557" y="294"/>
      <point x="394" y="204"/>
      <point x="234" y="204" type="qcurve"/>
      <point x="205" y="204" type="line"/>
      <point x="205" y="161"/>
      <point x="234" y="126"/>
      <point x="269" y="126" type="qcurve"/>
      <point x="333" y="126"/>
      <point x="367" y="180" type="qcurve"/>
      <point x="516" y="132" type="line"/>
      <point x="494" y="100"/>
      <point x="431" y="48"/>
      <point x="356" y="10"/>
      <point x="274" y="-10"/>
    </contour>
    <contour>
      <point x="320" y="401" type="qcurve"/>
      <point x="291" y="401"/>
      <point x="242" y="356"/>
      <point x="226" y="318" type="qcurve"/>
      <point x="233" y="318" type="line"/>
      <point x="310" y="318"/>
      <point x="371" y="337"/>
      <point x="371" y="362" type="qcurve"/>
      <point x="371" y="379"/>
      <point x="343" y="401"/>
    </contour>
    <contour>
      <point x="378" y="730" type="line"/>
      <point x="515" y="730" type="line"/>
      <point x="522" y="588" type="line"/>
      <point x="422" y="574" type="line"/>
    </contour>
    <contour>
      <point x="192" y="730" type="line"/>
      <point x="330" y="730" type="line"/>
      <point x="336" y="588" type="line"/>
      <point x="236" y="574" type="line"/>
    </contour>
  </outline>
</glyph>
<glyph name="Idblgrave" format="1">
  <advance width="317"/>
  <unicode hex="0208"/>
  <outline>
    <contour>
      <point x="148" y="710" type="line"/>
      <point x="343" y="710" type="line"/>
      <point x="192" y="0" type="line"/>
      <point x="-3" y="0" type="line"/>
    </contour>
    <contour>
      <point x="277" y="918" type="line"/>
      <point x="414" y="918" type="line"/>
      <point x="421" y="776" type="line"/>
      <point x="321" y="762" type="line"/>
    </contour>
    <contour>
      <point x="91" y="918" type="line"/>
      <point x="229" y="918" type="line"/>
      <point x="235" y="776" type="line"/>
      <point x="135" y="762" type="line"/>
    </contour>
  </outline>
</glyph>
<glyph name="iinvertedbreve" format="1">
  <advance width="286"/>
  <unicode hex="020B"/>
  <outline>
    <contour>
      <point x="96" y="526" type="line"/>
      <point x="286" y="526" type="line"/>
      <point x="174" y="0" type="line"/>
      <point x="-16" y="0" type="line"/>
    </contour>
    <contour>
      <point x="54" y="568" type="line"/>
      <point x="61" y="604"/>
      <point x="97" y="663"/>
      <point x="147" y="706"/>
      <point x="209" y="730"/>
      <point x="244" y="730" type="qcurve"/>
      <point x="306" y="730"/>
      <point x="370" y="659"/>
      <point x="370" y="605" type="qcurve"/>
      <point x="370" y="585"/>
      <point x="366" y="568" type="qcurve"/>
      <point x="268" y="568" type="line"/>
      <point x="271" y="586"/>
      <point x="271" y="600" type="qcurve"/>
      <point x="271" y="649"/>
      <point x="226" y="649" type="qcurve"/>
      <point x="202" y="649"/>
      <point x="160" y="616"/>
      <point x="151" y="568" type="qcurve"/>
    </contour>
  </outline>
</glyph>
<glyph name="rinvertedbreve" format="1">
  <advance width="408"/>
  <unicode hex="0213"/>
  <outline>
    <contour>
      <point x="96" y="526" type="line"/>
      <point x="270" y="526" type="line"/>
      <point x="248" y="426" type="line"/>
      <point x="286" y="479"/>
      <point x="377" y="536"/>
      <point x="422" y="536" type="qcurve"/>
      <point x="433" y="536"/>
      <point x="441" y="536"/>
      <point x="444" y="535" type="qcurve"/>
      <point x="408" y="364" type="line"/>
      <point x="357" y="364"/>
      <point x="267" y="340"/>
      <point x="240" y="312" type="qcurve"/>
      <point x="174" y="0" type="line"/>
      <point x="-16" y="0" type="line"/>
    </contour>
    <contour>
      <point x="116" y="568" type="line"/>
      <point x="123" y="604"/>
      <point x="159" y="663"/>
      <point x="209" y="706"/>
      <point x="271" y="730"/>
      <point x="306" y="730" type="qcurve"/>
      <point x="368" y="730"/>
      <point x="432" y="659"/>
      <point x="432" y="605" type="qcurve"/>
      <point x="432" y="585"/>
      <point x="428" y="568" type="qcurve"/>
      <point x="330" y="568" type="line"/>
      <point x="333" y="586"/>
      <point x="333" y="600" type="qcurve"/>
      <point x="333" y="649"/>
      <point x="288" y="649" type="qcurve"/>
      <point x="264" y="649"/>
      <point x="222" y="616"/>
      <point x="213" y="568" type="qcurve"/>
    </contour>
  </outline>
</glyph>
<glyph name="Uinvertedbreve" format="1">
  <advance width="712"/>
  <unicode hex="0216"/>
  <outline>
    <contour>
      <point x="290" y="-6" type="qcurve"/>
      <point x="225" y="-6"/>
      <point x="132" y="31"/>
      <point x="74" y="97"/>
      <point x="47" y="186"/>
      <point x="47" y="238" type="qcurve"/>
      <point x="47" y="289"/>
      <point x="59" y="345" type="qcurve"/>
      <point x="137" y="710" type="line"/>
      <point x="332" y="710" type="line"/>
      <point x="254" y="345" type="line"/>
      <point x="246" y="305"/>
      <point x="246" y="274" type="qcurve"/>
      <point x="246" y="227"/>
      <point x="283" y="167"/>
      <point x="327" y="167" type="qcurve"/>
      <point x="357" y="167"/>
      <point x="405" y="197"/>
      <point x="443" y="246"/>
      <point x="468" y="310"/>
      <point x="476" y="345" type="qcurve"/>
      <point x="554" y="710" type="line"/>
      <point x="749" y="710" type="line"/>
      <point x="671" y="345" type="line"/>
      <point x="655" y="271"/>
      <point x="591" y="142"/>
      <point x="495" y="48"/>
      <point x="368" y="-6"/>
    </contour>
    <contour>
      <point x="301" y="754" type="line"/>
      <point x="308" y="790"/>
      <point x="344" y="849"/>
      <point x="394" y="892"/>
      <point x="456" y="916"/>
      <point x="491" y="916" type="qcurve"/>
      <point x="553" y="916"/>
      <point x="617" y="845"/>
      <point x="617" y="791" type="qcurve"/>
      <point x="617" y="771"/>
      <point x="613" y="754" type="qcurve"/>
      <point x="515" y="754" type="line"/>
      <point x="518" y="772"/>
      <point x="518" y="786" type="qcurve"/>
      <point x="518" y="835"/>
      <point x="473" y="835" type="qcurve"/>
      <point x="449" y="835"/>
      <point x="407" y="802"/>
      <point x="398" y="754" type="qcurve"/>
    </contour>
  </outline>
</glyph>
<glyph name="uinvertedbreve" format="1">
  <advance width="618"/>
  <unicode hex="0217"/>
  <outline>
    <contour>
      <point x="132" y="-10" type="qcurve"/>
      <point x="72" y="-10"/>
      <point x="9" y="53"/>
      <point x="9" y="114" type="qcurve"/>
      <point x="9" y="142"/>
      <point x="17" y="180" type="qcurve"/>
      <point x="91" y="526" type="line"/>
      <point x="280" y="526" type="line"/>
      <point x="216" y="223" type="line"/>
      <point x="213" y="208"/>
      <point x="213" y="196" type="qcurve"/>
      <point x="213" y="150"/>
      <point x="251" y="150" type="qcurve"/>
      <point x="268" y="150"/>
      <point x="312" y="170"/>
      <point x="341" y="204" type="qcurve"/>
      <point x="410" y="526" type="line"/>
      <point x="600" y="526" type="line"/>
      <point x="533" y="210" type="line"/>
      <point x="530" y="195"/>
      <point x="530" y="186" type="qcurve"/>
      <point x="530" y="161"/>
      <point x="557" y="160" type="qcurve"/>
      <point x="523" y="0" type="line"/>
      <point x="473" y="-10"/>
      <point x="441" y="-10" type="qcurve"/>
      <point x="398" y="-10"/>
      <point x="343" y="23"/>
      <point x="343" y="63" type="qcurve"/>
      <point x="343" y="68"/>
      <point x="344" y="77"/>
      <point x="345" y="82" type="qcurve"/>
      <point x="300" y="33"/>
      <point x="195" y="-10"/>
    </contour>
    <contour>
      <point x="198" y="568" type="line"/>
      <point x="205" y="604"/>
      <point x="241" y="663"/>
      <point x="291" y="706"/>
      <point x="353" y="730"/>
      <point x="388" y="730" type="qcurve"/>
      <point x="450" y="730"/>
      <point x="514" y="659"/>
      <point x="514" y="605" type="qcurve"/>
      <point x="514" y="585"/>
      <point x="510" y="568" type="qcurve"/>
      <point x="412" y="568" type="line"/>
      <point x="415" y="586"/>
      <point x="415" y="600" type="qcurve"/>
      <point x="415" y="649"/>
      <point x="370" y="649" type="qcurve"/>
      <point x="346" y="649"/>
      <point x="304" y="616"/>
      <point x="295" y="568" type="qcurve"/>
    </contour>
  </outline>
</glyph>
<glyph name="schwa" format="1">
  <advance width="591"/>
  <unicode hex="0259"/>
  <outline>
    <contour>
      <point x="227" y="-10" type="qcurve"/>
      <point x="169" y="-10"/>
      <point x="84" y="22"/>
      <point x="29" y="78"/>
      <point x="2" y="153"/>
      <point x="2" y="197" type="qcurve"/>
      <point x="2" y="227"/>
      <point x="15" y="293"/>
      <point x="26" y="321" type="qcurve"/>
      <point x="371" y="321" type="line"/>
      <point x="372" y="325"/>
      <point x="372" y="333"/>
      <point x="372" y="337" type="qcurve"/>
      <point x="372" y="370"/>
      <point x="333" y="400"/>
      <point x="308" y="400" type="qcurve"/>
      <point x="280" y="400"/>
      <point x="225" y="372"/>
      <point x="212" y="347" type="qcurve"/>
      <point x="61" y="393" type="line"/>
      <point x="106" y="456"/>
      <point x="249" y="536"/>
      <point x="343" y="536" type="qcurve"/>
      <point x="400" y="536"/>
      <point x="485" y="501"/>
      <point x="541" y="442"/>
      <point x="569" y="364"/>
      <point x="569" y="320" type="qcurve"/>
      <point x="569" y="258"/>
      <point x="522" y="140"/>
      <point x="434" y="47"/>
      <point x="307" y="-10"/>
    </contour>
    <contour>
      <point x="258" y="125" type="qcurve"/>
      <point x="290" y="125"/>
      <point x="338" y="169"/>
      <point x="351" y="207" type="qcurve"/>
      <point x="202" y="207" type="line"/>
      <point x="201" y="202"/>
      <point x="201" y="192" type="qcurve"/>
      <point x="201" y="160"/>
      <point x="230" y="125"/>
    </contour>
  </outline>
</glyph>
<glyph name="circumflex" format="1">
  <advance width="388"/>
  <unicode hex="02C6"/>
  <outline>
    <contour>
      <point x="171" y="522" type="move" name="_top"/>
    </contour>
    <contour>
      <point x="18" y="615" type="line"/>
      <point x="151" y="730" type="line"/>
      <point x="287" y="730" type="line"/>
      <point x="371" y="615" type="line"/>
      <point x="266" y="573" type="line"/>
      <point x="199" y="636" type="line"/>
      <point x="105" y="573" type="line"/>
    </contour>
  </outline>
</glyph>
<glyph name="breve" format="1">
  <advance width="356"/>
  <unicode hex="02D8"/>
  <outline>
    <contour>
      <point x="148" y="522" type="move" name="_top"/>
    </contour>
    <contour>
      <point x="164" y="649" type="qcurve"/>
      <point x="186" y="649"/>
      <point x="228" y="695"/>
      <point x="239" y="730" type="qcurve"/>
      <point x="337" y="730" type="line"/>
      <point x="329" y="694"/>
      <point x="294" y="635"/>
      <point x="244" y="592"/>
      <point x="181" y="568"/>
      <point x="147" y="568" type="qcurve"/>
      <point x="87" y="568"/>
      <point x="20" y="634"/>
      <point x="20" y="689" type="qcurve"/>
      <point x="20" y="707"/>
      <point x="25" y="730" type="qcurve"/>
      <point x="123" y="730" type="line"/>
      <point x="120" y="718"/>
      <point x="120" y="707" type="qcurve"/>
      <point x="120" y="682"/>
      <point x="144" y="649"/>
    </contour>
  </outline>
</glyph>
<glyph name="dotaccent" format="1">
  <advance width="265"/>
  <unicode hex="02D9"/>
  <outline>
    <contour>
      <point x="90" y="522" type="move" name="_top"/>
    </contour>
    <contour>
      <point x="32" y="580" type="line"/>
      <point x="64" y="730" type="line"/>
      <point x="234" y="730" type="line"/>
      <point x="202" y="580" type="line"/>
    </contour>
  </outline>
</glyph>
<glyph name="ogonek" format="1">
  <advance width="323"/>
  <unicode hex="02DB"/>
  <outline>
    <contour>
      <point x="167" y="0" type="move" name="_bottom"/>
    </contour>
    <contour>
      <point x="177" y="-214" type="line"/>
      <point x="109" y="-206"/>
      <point x="46" y="-157"/>
      <point x="46" y="-125" type="qcurve"/>
      <point x="46" y="-87"/>
      <point x="128" y="-7"/>
      <point x="206" y="25" type="qcurve"/>
      <point x="257" y="1" type="line"/>
      <point x="217" y="-22"/>
      <point x="172" y="-64"/>
      <point x="172" y="-82" type="qcurve"/>
      <point x="172" y="-96"/>
      <point x="201" y="-114"/>
      <point x="233" y="-114" type="qcurve"/>
    </contour>
  </outline>
</glyph>
<glyph name="tilde" format="1">
  <advance width="446"/>
  <unicode hex="02DC"/>
  <outline>
    <contour>
      <point x="208" y="522" type="move" name="_top"/>
    </contour>
    <contour>
      <point x="272" y="572" type="qcurve"/>
      <point x="250" y="572"/>
      <point x="220" y="587"/>
      <point x="195" y="605"/>
      <point x="170" y="620"/>
      <point x="154" y="620" type="qcurve"/>
      <point x="138" y="620"/>
      <point x="117" y="606"/>
      <point x="105" y="588"/>
      <point x="101" y="573"/>
      <point x="101" y="572" type="qcurve"/>
      <point x="0" y="572" type="line"/>
      <point x="3" y="585"/>
      <point x="29" y="638"/>
      <point x="73" y="690"/>
      <point x="133" y="730"/>
      <point x="169" y="730" type="qcurve"/>
      <point x="193" y="730"/>
      <point x="223" y="714"/>
      <point x="248" y="695"/>
      <point x="271" y="679"/>
      <point x="287" y="679" type="qcurve"/>
      <point x="302" y="679"/>
      <point x="324" y="694"/>
      <point x="338" y="713"/>
      <point x="345" y="729"/>
      <point x="345" y="730" type="qcurve"/>
      <point x="445" y="730" type="line"/>
      <point x="443" y="721"/>
      <point x="416" y="670"/>
      <point x="371" y="615"/>
      <point x="309" y="572"/>
    </contour>
  </outline>
</glyph>
<glyph name="pi" format="1">
  <advance width="739"/>
  <unicode hex="03C0"/>
  <outline>
    <contour>
      <point x="531" y="-10" type="qcurve"/>
      <point x="455" y="-10"/>
      <point x="373" y="68"/>
      <point x="373" y="142" type="qcurve"/>
      <point x="373" y="362" type="line"/>
      <point x="303" y="362" type="line"/>
      <point x="303" y="0" type="line"/>
      <point x="114" y="0" type="line"/>
      <point x="114" y="362" type="line"/>
      <point x="44" y="362" type="line"/>
      <point x="44" y="522" type="line"/>
      <point x="643" y="522" type="line"/>
      <point x="643" y="362" type="line"/>
      <point x="563" y="362" type="line"/>
      <point x="563" y="209" type="line"/>
      <point x="563" y="149"/>
      <point x="612" y="149" type="qcurve"/>
      <point x="624" y="149"/>
      <point x="652" y="157"/>
      <point x="664" y="164" type="qcurve"/>
      <point x="688" y="24" type="line"/>
      <point x="654" y="8"/>
      <point x="569" y="-10"/>
    </contour>
  </outline>
</glyph>
<glyph name="ndotaccent" format="1">
  <advance width="601"/>
  <unicode hex="1E45"/>
  <outline>
    <contour>
      <point x="270" y="580" type="line"/>
      <point x="302" y="730" type="line"/>
      <point x="472" y="730" type="line"/>
      <point x="440" y="580" type="line"/>
    </contour>
    <contour>
      <point x="96" y="526" type="line"/>
      <point x="267" y="526" type="line"/>
      <point x="250" y="448" type="line"/>
      <point x="285" y="491"/>
      <point x="390" y="536"/>
      <point x="455" y="536" type="qcurve"/>
      <point x="491" y="536"/>
      <point x="538" y="516"/>
      <point x="565" y="482"/>
      <point x="575" y="439"/>
      <point x="575" y="417" type="qcurve"/>
      <point x="575" y="398"/>
      <point x="570" y="362"/>
      <point x="567" y="346" type="qcurve"/>
      <point x="494" y="0" type="line"/>
      <point x="304" y="0" type="line"/>
      <point x="367" y="296" type="line"/>
      <point x="370" y="311"/>
      <point x="370" y="322" type="qcurve"/>
      <point x="370" y="347"/>
      <point x="347" y="370"/>
      <point x="331" y="370" type="qcurve"/>
      <point x="311" y="370"/>
      <point x="256" y="328"/>
      <point x="237" y="295" type="qcurve"/>
      <point x="174" y="0" type="line"/>
      <point x="-16" y="0" type="line"/>
    </contour>
  </outline>
</glyph>
<glyph name="wdieresis" format="1">
  <advance width="816"/>
  <unicode hex="1E85"/>
  <outline>
    <contour>
      <point x="279" y="580" type="line"/>
      <point x="309" y="720" type="line"/>
      <point x="465" y="720" type="line"/>
      <point x="435" y="580" type="line"/>
    </contour>
    <contour>
      <point x="504" y="580" type="line"/>
      <point x="534" y="720" type="line"/>
      <point x="689" y="720" type="line"/>
      <point x="660" y="580" type="line"/>
    </contour>
    <contour>
      <point x="34" y="526" type="line"/>
      <point x="214" y="526" type="line"/>
      <point x="252" y="173" type="line"/>
      <point x="304" y="286" type="line"/>
      <point x="265" y="526" type="line"/>
      <point x="415" y="526" type="line"/>
      <point x="424" y="372" type="line"/>
      <point x="499" y="526" type="line"/>
      <point x="639" y="526" type="line"/>
      <point x="609" y="454"/>
      <point x="549" y="343"/>
      <point x="508" y="286" type="qcurve"/>
      <point x="515" y="224" type="line"/>
      <point x="542" y="259"/>
      <point x="581" y="312"/>
      <point x="612" y="355"/>
      <point x="636" y="395"/>
      <point x="659" y="438"/>
      <point x="684" y="491"/>
      <point x="700" y="526" type="qcurve"/>
      <point x="870" y="526" type="line"/>
      <point x="816" y="395"/>
      <point x="638" y="131"/>
      <point x="517" y="0" type="qcurve"/>
      <point x="408" y="0" type="line"/>
      <point x="388" y="200" type="line"/>
      <point x="283" y="0" type="line"/>
      <point x="127" y="0" type="line"/>
    </contour>
  </outline>
</glyph>
<glyph name="zdotbelow" format="1">
  <advance width="472"/>
  <unicode hex="1E93"/>
  <outline>
    <contour>
      <point x="-18" y="112" type="line"/>
      <point x="261" y="396" type="line"/>
      <point x="57" y="396" type="line"/>
      <point x="85" y="526" type="line"/>
      <point x="487" y="526" type="line"/>
      <point x="463" y="414" type="line"/>
      <point x="184" y="130" type="line"/>
      <point x="412" y="130" type="line"/>
      <point x="384" y="0" type="line"/>
      <point x="-42" y="0" type="line"/>
    </contour>
    <contour>
      <point x="41" y="-213" type="line"/>
      <point x="73" y="-63" type="line"/>
      <point x="243" y="-63" type="line"/>
      <point x="211" y="-213" type="line"/>
    </contour>
  </outline>
</glyph>
<glyph name="Ytilde" format="1">
  <advance width="627"/>
  <unicode hex="1EF8"/>
  <outline>
    <contour>
      <point x="198" y="237" type="line"/>
      <point x="72" y="710" type="line"/>
      <point x="283" y="710" type="line"/>
      <point x="330" y="403" type="line"/>
      <point x="511" y="710" type="line"/>
      <point x="723" y="710" type="line"/>
      <point x="391" y="235" type="line"/>
      <point x="341" y="0" type="line"/>
      <point x="147" y="0" type="line"/>
    </contour>
    <contour>
      <point x="474" y="758" type="qcurve"/>
      <point x="452" y="758"/>
      <point x="422" y="773"/>
      <point x="397" y="791"/>
      <point x="372" y="806"/>
      <point x="356" y="806" type="qcurve"/>
      <point x="340" y="806"/>
      <point x="319" y="792"/>
      <point x="307" y="774"/>
      <point x="303" y="759"/>
      <point x="303" y="758" type="qcurve"/>
      <point x="202" y="758" type="line"/>
      <point x="205" y="771"/>
      <point x="231" y="824"/>
      <point x="275" y="876"/>
      <point x="335" y="916"/>
      <point x="371" y="916" type="qcurve"/>
      <point x="395" y="916"/>
      <point x="425" y="900"/>
      <point x="450" y="881"/>
      <point x="473" y="865"/>
      <point x="489" y="865" type="qcurve"/>
      <point x="504" y="865"/>
      <point x="526" y="880"/>
      <point x="540" y="899"/>
      <point x="547" y="915"/>
      <point x="547" y="916" type="qcurve"/>
      <point x="647" y="916" type="line"/>
      <point x="645" y="907"/>
      <point x="618" y="856"/>
      <point x="573" y="801"/>
      <point x="511" y="758"/>
    </contour>
  </outline>
</glyph>
<glyph name="ytilde" format="1">
  <advance width="543"/>
  <unicode hex="1EF9"/>
  <outline>
    <contour>
      <point x="-56" y="-93" type="line"/>
      <point x="-28" y="-93"/>
      <point x="13" y="-89"/>
      <point x="45" y="-78"/>
      <point x="70" y="-60"/>
      <point x="82" y="-45" type="qcurve"/>
      <point x="111" y="-11" type="line"/>
      <point x="42" y="526" type="line"/>
      <point x="235" y="526" type="line"/>
      <point x="247" y="161" type="line"/>
      <point x="281" y="217" type="line"/>
      <point x="317" y="277"/>
      <point x="376" y="435"/>
      <point x="393" y="526" type="qcurve"/>
      <point x="575" y="526" type="line"/>
      <point x="561" y="478"/>
      <point x="531" y="393"/>
      <point x="485" y="299"/>
      <point x="418" y="183"/>
      <point x="369" y="103" type="qcurve"/>
      <point x="289" y="-26" type="line"/>
      <point x="253" y="-84"/>
      <point x="182" y="-163"/>
      <point x="105" y="-212"/>
      <point x="18" y="-234"/>
      <point x="-34" y="-234" type="qcurve"/>
    </contour>
    <contour>
      <point x="394" y="572" type="qcurve"/>
      <point x="372" y="572"/>
      <point x="342" y="587"/>
      <point x="317" y="605"/>
      <point x="292" y="620"/>
      <point x="276" y="620" type="qcurve"/>
      <point x="260" y="620"/>
      <point x="239" y="606"/>
      <point x="227" y="588"/>
      <point x="223" y="573"/>
      <point x="223" y="572" type="qcurve"/>
      <point x="122" y="572" type="line"/>
      <point x="125" y="585"/>
      <point x="151" y="638"/>
      <point x="195" y="690"/>
      <point x="255" y="730"/>
      <point x="291" y="730" type="qcurve"/>
      <point x="315" y="730"/>
      <point x="345" y="714"/>
      <point x="370" y="695"/>
      <point x="393" y="679"/>
      <point x="409" y="679" type="qcurve"/>
      <point x="424" y="679"/>
      <point x="446" y="694"/>
      <point x="460" y="713"/>
      <point x="467" y="729"/>
      <point x="467" y="730" type="qcurve"/>
      <point x="567" y="730" type="line"/>
      <point x="565" y="721"/>
      <point x="538" y="670"/>
      <point x="493" y="615"/>
      <point x="431" y="572"/>
    </contour>
  </outline>
</glyph>
<glyph name="bullet" format="1">
  <advance width="364"/>
  <unicode hex="2022"/>
  <outline>
    <contour>
      <point x="308" y="374" type="qcurve"/>
      <point x="308" y="346"/>
      <point x="284" y="296"/>
      <point x="245" y="258"/>
      <point x="194" y="236"/>
      <point x="167" y="236" type="qcurve"/>
      <point x="126" y="236"/>
      <point x="76" y="291"/>
      <point x="76" y="332" type="qcurve"/>
      <point x="76" y="360"/>
      <point x="100" y="410"/>
      <point x="140" y="448"/>
      <point x="191" y="470"/>
      <point x="217" y="470" type="qcurve"/>
      <point x="259" y="470"/>
      <point x="308" y="414"/>
    </contour>
  </outline>
</glyph>
<glyph name="perthousand" format="1">
  <advance width="1216"/>
  <unicode hex="2030"/>
  <outline>
    <contour>
      <point x="232" y="404" type="qcurve"/>
      <point x="199" y="404"/>
      <point x="146" y="424"/>
      <point x="109" y="460"/>
      <point x="89" y="508"/>
      <point x="89" y="536" type="qcurve"/>
      <point x="89" y="573"/>
      <point x="124" y="640"/>
      <point x="181" y="691"/>
      <point x="256" y="720"/>
      <point x="295" y="720" type="qcurve"/>
      <point x="328" y="720"/>
      <point x="381" y="700"/>
      <point x="418" y="664"/>
      <point x="438" y="616"/>
      <point x="438" y="588" type="qcurve"/>
      <point x="438" y="550"/>
      <point x="403" y="484"/>
      <point x="346" y="433"/>
      <point x="271" y="404"/>
    </contour>
    <contour>
      <point x="250" y="494" type="qcurve"/>
      <point x="260" y="494"/>
      <point x="280" y="508"/>
      <point x="297" y="532"/>
      <point x="308" y="563"/>
      <point x="308" y="580" type="qcurve"/>
      <point x="308" y="601"/>
      <point x="291" y="630"/>
      <point x="277" y="630" type="qcurve"/>
      <point x="267" y="630"/>
      <point x="247" y="616"/>
      <point x="230" y="592"/>
      <point x="219" y="561"/>
      <point x="219" y="544" type="qcurve"/>
      <point x="219" y="523"/>
      <point x="236" y="494"/>
    </contour>
    <contour>
      <point x="559" y="-10" type="qcurve"/>
      <point x="526" y="-10"/>
      <point x="473" y="10"/>
      <point x="436" y="46"/>
      <point x="416" y="94"/>
      <point x="416" y="122" type="qcurve"/>
      <point x="416" y="159"/>
      <point x="451" y="226"/>
      <point x="508" y="277"/>
      <point x="583" y="306"/>
      <point x="622" y="306" type="qcurve"/>
      <point x="655" y="306"/>
      <point x="707" y="286"/>
      <point x="745" y="250"/>
      <point x="765" y="202"/>
      <point x="765" y="174" type="qcurve"/>
      <point x="765" y="136"/>
      <point x="730" y="70"/>
      <point x="673" y="19"/>
      <point x="598" y="-10"/>
    </contour>
    <contour>
      <point x="577" y="80" type="qcurve"/>
      <point x="587" y="80"/>
      <point x="607" y="94"/>
      <point x="623" y="118"/>
      <point x="634" y="150"/>
      <point x="634" y="167" type="qcurve"/>
      <point x="634" y="187"/>
      <point x="618" y="216"/>
      <point x="604" y="216" type="qcurve"/>
      <point x="594" y="216"/>
      <point x="574" y="202"/>
      <point x="557" y="178"/>
      <point x="546" y="147"/>
      <point x="546" y="130" type="qcurve"/>
      <point x="546" y="109"/>
      <point x="563" y="80"/>
    </contour>
    <contour>
      <point x="949" y="-10" type="qcurve"/>
      <point x="916" y="-10"/>
      <point x="863" y="10"/>
      <point x="825" y="46"/>
      <point x="805" y="94"/>
      <point x="805" y="122" type="qcurve"/>
      <point x="805" y="159"/>
      <point x="840" y="226"/>
      <point x="897" y="277"/>
      <point x="972" y="306"/>
      <point x="1011" y="306" type="qcurve"/>
      <point x="1044" y="306"/>
      <point x="1097" y="286"/>
      <point x="1135" y="250"/>
      <point x="1155" y="202"/>
      <point x="1155" y="174" type="qcurve"/>
      <point x="1155" y="136"/>
      <point x="1120" y="70"/>
      <point x="1063" y="19"/>
      <point x="988" y="-10"/>
    </contour>
    <contour>
      <point x="967" y="80" type="qcurve"/>
      <point x="977" y="80"/>
      <point x="997" y="94"/>
      <point x="1013" y="118"/>
      <point x="1024" y="150"/>
      <point x="1024" y="167" type="qcurve"/>
      <point x="1024" y="187"/>
      <point x="1008" y="216"/>
      <point x="994" y="216" type="qcurve"/>
      <point x="984" y="216"/>
      <point x="964" y="202"/>
      <point x="947" y="178"/>
      <point x="936" y="147"/>
      <point x="936" y="130" type="qcurve"/>
      <point x="936" y="109"/>
      <point x="953" y="80"/>
    </contour>
    <contour>
      <point x="71" y="65" type="line"/>
      <point x="408" y="384" type="line"/>
      <point x="716" y="721" type="line"/>
      <point x="783" y="646" type="line"/>
      <point x="460" y="337" type="line"/>
      <point x="138" y="-10" type="line"/>
    </contour>
  </outline>
</glyph>
<glyph name="guilsinglleft" format="1">
  <advance width="349"/>
  <unicode hex="2039"/>
  <outline>
    <contour>
      <point x="30" y="298" type="line"/>
      <point x="337" y="496" type="line"/>
      <point x="305" y="344" type="line"/>
      <point x="170" y="259" type="line"/>
      <point x="270" y="182" type="line"/>
      <point x="238" y="30" type="line"/>
      <point x="11" y="210" type="line"/>
    </contour>
  </outline>
</glyph>
<glyph name="zerosuperior" format="1">
  <advance width="496"/>
  <unicode hex="2070"/>
  <outline>
    <contour>
      <point x="263" y="374" type="qcurve"/>
      <point x="216" y="374"/>
      <point x="149" y="407"/>
      <point x="105" y="461"/>
      <point x="85" y="527"/>
      <point x="85" y="560" type="qcurve"/>
      <point x="85" y="605"/>
      <point x="127" y="697"/>
      <point x="201" y="772"/>
      <point x="301" y="820"/>
      <point x="358" y="820" type="qcurve"/>
      <point x="405" y="820"/>
      <point x="472" y="786"/>
      <point x="516" y="732"/>
      <point x="536" y="665"/>
      <point x="536" y="632" type="qcurve"/>
      <point x="536" y="588"/>
      <point x="494" y="496"/>
      <point x="420" y="421"/>
      <point x="321" y="374"/>
    </contour>
    <contour>
      <point x="198" y="575" type="qcurve"/>
      <point x="198" y="558"/>
      <point x="208" y="525"/>
      <point x="229" y="499"/>
      <point x="263" y="483"/>
      <point x="287" y="483" type="qcurve"/>
      <point x="320" y="483"/>
      <point x="370" y="510"/>
      <point x="405" y="551"/>
      <point x="422" y="598"/>
      <point x="422" y="618" type="qcurve"/>
      <point x="422" y="635"/>
      <point x="412" y="669"/>
      <point x="391" y="695"/>
      <point x="358" y="711"/>
      <point x="335" y="711" type="qcurve"/>
      <point x="301" y="711"/>
      <point x="250" y="684"/>
      <point x="215" y="643"/>
      <point x="198" y="595"/>
    </contour>
  </outline>
</glyph>
<glyph name="sixsuperior" format="1">
  <advance width="430"/>
  <unicode hex="2076"/>
  <outline>
    <contour>
      <point x="455" y="547" type="qcurve"/>
      <point x="455" y="511"/>
      <point x="419" y="447"/>
      <point x="357" y="398"/>
      <point x="277" y="370"/>
      <point x="232" y="370" type="qcurve"/>
      <point x="161" y="370"/>
      <point x="85" y="454"/>
      <point x="85" y="530" type="qcurve"/>
      <point x="85" y="593"/>
      <point x="123" y="699"/>
      <point x="191" y="777"/>
      <point x="286" y="820"/>
      <point x="343" y="820" type="qcurve"/>
      <point x="388" y="820"/>
      <point x="461" y="790"/>
      <point x="484" y="761" type="qcurve"/>
      <point x="406" y="684" type="line"/>
      <point x="392" y="700"/>
      <point x="345" y="716"/>
      <point x="316" y="716" type="qcurve"/>
      <point x="273" y="716"/>
      <point x="214" y="682"/>
      <point x="206" y="650" type="qcurve"/>
      <point x="224" y="661"/>
      <point x="279" y="669"/>
      <point x="301" y="669" type="qcurve"/>
      <point x="373" y="669"/>
      <point x="455" y="600"/>
    </contour>
    <contour>
      <point x="255" y="470" type="qcurve"/>
      <point x="273" y="470"/>
      <point x="307" y="480"/>
      <point x="334" y="496"/>
      <point x="350" y="518"/>
      <point x="350" y="530" type="qcurve"/>
      <point x="350" y="550"/>
      <point x="309" y="575"/>
      <point x="278" y="575" type="qcurve"/>
      <point x="259" y="575"/>
      <point x="225" y="566"/>
      <point x="199" y="551"/>
      <point x="183" y="530"/>
      <point x="183" y="518" type="qcurve"/>
      <point x="183" y="498"/>
      <point x="225" y="470"/>
    </contour>
  </outline>
</glyph>
<glyph name="eightsuperior" format="1">
  <advance width="425"/>
  <unicode hex="2078"/>
  <outline>
    <contour>
      <point x="445" y="531" type="qcurve"/>
      <point x="445" y="498"/>
      <point x="408" y="441"/>
      <point x="348" y="398"/>
      <point x="270" y="374"/>
      <point x="229" y="374" type="qcurve"/>
      <point x="195" y="374"/>
      <point x="137" y="392"/>
      <point x="94" y="425"/>
      <point x="70" y="469"/>
      <point x="70" y="496" type="qcurve"/>
      <point x="70" y="520"/>
      <point x="85" y="556"/>
      <point x="112" y="584"/>
      <point x="148" y="605"/>
      <point x="168" y="615" type="qcurve"/>
      <point x="150" y="624"/>
      <point x="125" y="656"/>
      <point x="125" y="681" type="qcurve"/>
      <point x="125" y="711"/>
      <point x="162" y="762"/>
      <point x="220" y="799"/>
      <point x="289" y="820"/>
      <point x="322" y="820" type="qcurve"/>
      <point x="349" y="820"/>
      <point x="402" y="804"/>
      <point x="444" y="775"/>
      <point x="469" y="735"/>
      <point x="469" y="711" type="qcurve"/>
      <point x="469" y="676"/>
      <point x="423" y="629"/>
      <point x="391" y="615" type="qcurve"/>
      <point x="415" y="601"/>
      <point x="445" y="560"/>
    </contour>
    <contour>
      <point x="336" y="529" type="qcurve"/>
      <point x="336" y="546"/>
      <point x="296" y="566"/>
      <point x="268" y="566" type="qcurve"/>
      <point x="234" y="566"/>
      <point x="184" y="541"/>
      <point x="184" y="521" type="qcurve"/>
      <point x="184" y="504"/>
      <point x="225" y="483"/>
      <point x="252" y="483" type="qcurve"/>
      <point x="268" y="483"/>
      <point x="298" y="490"/>
      <point x="322" y="502"/>
      <point x="336" y="519"/>
    </contour>
    <contour>
      <point x="232" y="682" type="qcurve"/>
      <point x="232" y="669"/>
      <point x="267" y="655"/>
      <point x="287" y="655" type="qcurve"/>
      <point x="299" y="655"/>
      <point x="323" y="659"/>
      <point x="343" y="668"/>
      <point x="356" y="680"/>
      <point x="356" y="688" type="qcurve"/>
      <point x="356" y="700"/>
      <point x="323" y="715"/>
      <point x="300" y="715" type="qcurve"/>
      <point x="274" y="715"/>
      <point x="232" y="697"/>
    </contour>
  </outline>
</glyph>
<glyph name="twoinferior" format="1">
  <advance width="434"/>
  <unicode hex="2082"/>
  <outline>
    <contour>
      <point x="-57" y="-90" type="line"/>
      <point x="-48" y="-47"/>
      <point x="-24" y="16"/>
      <point x="15" y="65"/>
      <point x="73" y="103"/>
      <point x="116" y="120" type="qcurve"/>
      <point x="143" y="131"/>
      <point x="193" y="150"/>
      <point x="233" y="173"/>
      <point x="257" y="200"/>
      <point x="257" y="218" type="qcurve"/>
      <point x="257" y="236"/>
      <point x="224" y="249"/>
      <point x="198" y="249" type="qcurve"/>
      <point x="163" y="249"/>
      <point x="98" y="222"/>
      <point x="75" y="205" type="qcurve"/>
      <point x="24" y="285" type="line"/>
      <point x="52" y="314"/>
      <point x="164" y="355"/>
      <point x="237" y="355" type="qcurve"/>
      <point x="308" y="355"/>
      <point x="383" y="298"/>
      <point x="383" y="241" type="qcurve"/>
      <point x="383" y="199"/>
      <point x="352" y="139"/>
      <point x="307" y="99"/>
      <point x="254" y="75"/>
      <point x="232" y="69" type="qcurve"/>
      <point x="198" y="59"/>
      <point x="151" y="37"/>
      <point x="146" y="17" type="qcurve"/>
      <point x="339" y="17" type="line"/>
      <point x="316" y="-90" type="line"/>
    </contour>
  </outline>
</glyph>
<glyph name="threeinferior" format="1">
  <advance width="406"/>
  <unicode hex="2083"/>
  <outline>
    <contour>
      <point x="101" y="-96" type="qcurve"/>
      <point x="41" y="-96"/>
      <point x="-37" y="-62"/>
      <point x="-48" y="-25" type="qcurve"/>
      <point x="26" y="59" type="line"/>
      <point x="27" y="57"/>
      <point x="38" y="43"/>
      <point x="61" y="27"/>
      <point x="96" y="14"/>
      <point x="122" y="14" type="qcurve"/>
      <point x="158" y="14"/>
      <point x="213" y="31"/>
      <point x="213" y="53" type="qcurve"/>
      <point x="213" y="74"/>
      <point x="144" y="90"/>
      <point x="81" y="90" type="qcurve"/>
      <point x="57" y="90" type="line"/>
      <point x="78" y="189" type="line"/>
      <point x="101" y="189" type="line"/>
      <point x="159" y="189"/>
      <point x="237" y="208"/>
      <point x="237" y="232" type="qcurve"/>
      <point x="237" y="239"/>
      <point x="225" y="248"/>
      <point x="208" y="253"/>
      <point x="189" y="255"/>
      <point x="182" y="255" type="qcurve"/>
      <point x="145" y="255"/>
      <point x="93" y="231"/>
      <point x="68" y="211" type="qcurve"/>
      <point x="19" y="300" type="line"/>
      <point x="51" y="328"/>
      <point x="152" y="356"/>
      <point x="202" y="356" type="qcurve"/>
      <point x="271" y="356"/>
      <point x="356" y="296"/>
      <point x="356" y="251" type="qcurve"/>
      <point x="356" y="209"/>
      <point x="292" y="154"/>
      <point x="241" y="146" type="qcurve"/>
      <point x="281" y="140"/>
      <point x="322" y="87"/>
      <point x="322" y="52" type="qcurve"/>
      <point x="322" y="12"/>
      <point x="282" y="-44"/>
      <point x="219" y="-80"/>
      <point x="140" y="-96"/>
    </contour>
  </outline>
</glyph>
<glyph name="sixinferior" format="1">
  <advance width="430"/>
  <unicode hex="2086"/>
  <outline>
    <contour>
      <point x="356" y="81" type="qcurve"/>
      <point x="356" y="45"/>
      <point x="320" y="-19"/>
      <point x="258" y="-68"/>
      <point x="178" y="-96"/>
      <point x="133" y="-96" type="qcurve"/>
      <point x="62" y="-96"/>
      <point x="-14" y="-12"/>
      <point x="-14" y="64" type="qcurve"/>
      <point x="-14" y="127"/>
      <point x="24" y="233"/>
      <point x="92" y="311"/>
      <point x="187" y="354"/>
      <point x="244" y="354" type="qcurve"/>
      <point x="289" y="354"/>
      <point x="362" y="324"/>
      <point x="385" y="295" type="qcurve"/>
      <point x="307" y="218" type="line"/>
      <point x="293" y="234"/>
      <point x="246" y="250"/>
      <point x="217" y="250" type="qcurve"/>
      <point x="174" y="250"/>
      <point x="115" y="216"/>
      <point x="107" y="184" type="qcurve"/>
      <point x="125" y="195"/>
      <point x="180" y="203"/>
      <point x="202" y="203" type="qcurve"/>
      <point x="274" y="203"/>
      <point x="356" y="134"/>
    </contour>
    <contour>
      <point x="156" y="4" type="qcurve"/>
      <point x="174" y="4"/>
      <point x="208" y="14"/>
      <point x="235" y="30"/>
      <point x="251" y="52"/>
      <point x="251" y="64" type="qcurve"/>
      <point x="251" y="84"/>
      <point x="210" y="109"/>
      <point x="179" y="109" type="qcurve"/>
      <point x="160" y="109"/>
      <point x="126" y="100"/>
      <point x="100" y="85"/>
      <point x="84" y="64"/>
      <point x="84" y="52" type="qcurve"/>
      <point x="84" y="32"/>
      <point x="126" y="4"/>
    </contour>
  </outline>
</glyph>
<glyph name="lira" format="1">
  <advance width="555"/>
  <unicode hex="20A4"/>
  <outline>
    <contour>
      <point x="70" y="462" type="line"/>
      <point x="133" y="462" type="line"/>
      <point x="132" y="470"/>
      <point x="131" y="487"/>
      <point x="131" y="495" type="qcurve"/>
      <point x="131" y="541"/>
      <point x="175" y="622"/>
      <point x="247" y="681"/>
      <point x="342" y="715"/>
      <point x="393" y="715" type="qcurve"/>
      <point x="457" y="715"/>
      <point x="562" y="660"/>
      <point x="593" y="610" type="qcurve"/>
      <point x="473" y="493" type="line"/>
      <point x="455" y="522"/>
      <point x="390" y="562"/>
      <point x="360" y="562" type="qcurve"/>
      <point x="331" y="562"/>
      <point x="296" y="524"/>
      <point x="296" y="492" type="qcurve"/>
      <point x="296" y="477"/>
      <point x="299" y="462" type="qcurve"/>
      <point x="438" y="462" type="line"/>
      <point x="413" y="342" type="line"/>
      <point x="314" y="342" type="line"/>
      <point x="314" y="333"/>
      <point x="313" y="318"/>
      <point x="312" y="312" type="qcurve"/>
      <point x="407" y="312" type="line"/>
      <point x="381" y="192" type="line"/>
      <point x="257" y="192" type="line"/>
      <point x="247" y="181"/>
      <point x="226" y="158"/>
      <point x="213" y="146" type="qcurve"/>
      <point x="238" y="154"/>
      <point x="275" y="161"/>
      <point x="291" y="161" type="qcurve"/>
      <point x="320" y="161"/>
      <point x="380" y="146"/>
      <point x="410" y="146" type="qcurve"/>
      <point x="426" y="146"/>
      <point x="453" y="152"/>
      <point x="471" y="159" type="qcurve"/>
      <point x="487" y="19" type="line"/>
      <point x="463" y="4"/>
      <point x="395" y="-15"/>
      <point x="366" y="-15" type="qcurve"/>
      <point x="344" y="-15"/>
      <point x="298" y="-5"/>
      <point x="251" y="8"/>
      <point x="203" y="18"/>
      <point x="179" y="18" type="qcurve"/>
      <point x="152" y="18"/>
      <point x="73" y="3"/>
      <point x="34" y="-9" type="qcurve"/>
      <point x="25" y="125" type="line"/>
      <point x="65" y="148"/>
      <point x="98" y="192" type="qcurve"/>
      <point x="13" y="192" type="line"/>
      <point x="39" y="312" type="line"/>
      <point x="148" y="312" type="line"/>
      <point x="148" y="317"/>
      <point x="149" y="324"/>
      <point x="149" y="329" type="qcurve"/>
      <point x="149" y="332"/>
      <point x="149" y="339"/>
      <point x="148" y="342" type="qcurve"/>
      <point x="45" y="342" type="line"/>
    </contour>
  </outline>
</glyph>
<glyph name="uni20A6" format="1">
  <advance width="831"/>
  <unicode hex="20A6"/>
  <outline>
    <contour>
      <point x="820" y="433" type="line"/>
      <point x="745" y="433" type="line"/>
      <point x="709" y="263" type="line"/>
      <point x="784" y="263" type="line"/>
      <point x="759" y="143" type="line"/>
      <point x="683" y="143" type="line"/>
      <point x="653" y="0" type="line"/>
      <point x="498" y="0" type="line"/>
      <point x="424" y="143" type="line"/>
      <point x="275" y="143" type="line"/>
      <point x="245" y="0" type="line"/>
      <point x="50" y="0" type="line"/>
      <point x="80" y="143" type="line"/>
      <point x="5" y="143" type="line"/>
      <point x="31" y="263" type="line"/>
      <point x="105" y="263" type="line"/>
      <point x="141" y="433" type="line"/>
      <point x="67" y="433" type="line"/>
      <point x="92" y="553" type="line"/>
      <point x="167" y="553" type="line"/>
      <point x="200" y="710" type="line"/>
      <point x="353" y="710" type="line"/>
      <point x="431" y="553" type="line"/>
      <point x="575" y="553" type="line"/>
      <point x="609" y="710" type="line"/>
      <point x="804" y="710" type="line"/>
      <point x="770" y="553" type="line"/>
      <point x="846" y="553" type="line"/>
    </contour>
    <contour>
      <point x="301" y="263" type="line"/>
      <point x="363" y="263" type="line"/>
      <point x="319" y="349" type="line"/>
    </contour>
    <contour>
      <point x="532" y="349" type="line"/>
      <point x="550" y="433" type="line"/>
      <point x="490" y="433" type="line"/>
    </contour>
  </outline>
</glyph>
<glyph name="Omega" format="1">
  <advance width="832"/>
  <unicode hex="2126"/>
  <outline>
    <contour>
      <point x="36" y="130" type="line"/>
      <point x="185" y="130" type="line"/>
      <point x="120" y="168"/>
      <point x="46" y="294"/>
      <point x="46" y="375" type="qcurve"/>
      <point x="46" y="442"/>
      <point x="100" y="565"/>
      <point x="195" y="659"/>
      <point x="325" y="715"/>
      <point x="402" y="715" type="qcurve"/>
      <point x="478" y="715"/>
      <point x="609" y="659"/>
      <point x="704" y="565"/>
      <point x="758" y="442"/>
      <point x="758" y="375" type="qcurve"/>
      <point x="758" y="294"/>
      <point x="684" y="168"/>
      <point x="619" y="130" type="qcurve"/>
      <point x="768" y="130" type="line"/>
      <point x="768" y="0" type="line"/>
      <point x="439" y="0" type="line"/>
      <point x="439" y="130" type="line"/>
      <point x="469" y="143"/>
      <point x="516" y="193"/>
      <point x="549" y="259"/>
      <point x="567" y="336"/>
      <point x="567" y="375" type="qcurve"/>
      <point x="567" y="406"/>
      <point x="544" y="466"/>
      <point x="502" y="514"/>
      <point x="441" y="543"/>
      <point x="402" y="543" type="qcurve"/>
      <point x="363" y="543"/>
      <point x="302" y="514"/>
      <point x="260" y="466"/>
      <point x="237" y="406"/>
      <point x="237" y="375" type="qcurve"/>
      <point x="237" y="336"/>
      <point x="255" y="259"/>
      <point x="288" y="193"/>
      <point x="335" y="143"/>
      <point x="365" y="130" type="qcurve"/>
      <point x="365" y="0" type="line"/>
      <point x="36" y="0" type="line"/>
    </contour>
  </outline>
</glyph>
<glyph name="estimated" format="1">
  <advance width="628"/>
  <unicode hex="212E"/>
  <outline>
    <contour>
      <point x="312" y="47" type="qcurve"/>
      <point x="385" y="47"/>
      <point x="486" y="88"/>
      <point x="516" y="116" type="qcurve"/>
      <point x="552" y="73" type="line"/>
      <point x="514" y="38"/>
      <point x="395" y="-10"/>
      <point x="312" y="-10" type="qcurve"/>
      <point x="247" y="-10"/>
      <point x="140" y="34"/>
      <point x="65" y="108"/>
      <point x="24" y="206"/>
      <point x="24" y="260" type="qcurve"/>
      <point x="24" y="317"/>
      <point x="66" y="417"/>
      <point x="141" y="492"/>
      <point x="247" y="536"/>
      <point x="312" y="536" type="qcurve"/>
      <point x="377" y="536"/>
      <point x="483" y="489"/>
      <point x="559" y="408"/>
      <point x="601" y="298"/>
      <point x="601" y="235" type="qcurve"/>
      <point x="171" y="235" type="line"/>
      <point x="171" y="104" type="line"/>
      <point x="197" y="79"/>
      <point x="271" y="47"/>
    </contour>
    <contour>
      <point x="312" y="479" type="qcurve"/>
      <point x="271" y="479"/>
      <point x="197" y="444"/>
      <point x="171" y="409" type="qcurve"/>
      <point x="171" y="295" type="line"/>
      <point x="455" y="295" type="line"/>
      <point x="455" y="408" type="line"/>
      <point x="429" y="444"/>
      <point x="354" y="479"/>
    </contour>
  </outline>
</glyph>
<glyph name="onethird" format="1">
  <advance width="880"/>
  <unicode hex="2153"/>
  <outline>
    <contour>
      <point x="588" y="-6" type="qcurve"/>
      <point x="528" y="-6"/>
      <point x="450" y="28"/>
      <point x="439" y="65" type="qcurve"/>
      <point x="513" y="149" type="line"/>
      <point x="514" y="147"/>
      <point x="525" y="133"/>
      <point x="548" y="117"/>
      <point x="583" y="104"/>
      <point x="609" y="104" type="qcurve"/>
      <point x="645" y="104"/>
      <point x="700" y="121"/>
      <point x="700" y="143" type="qcurve"/>
      <point x="700" y="164"/>
      <point x="631" y="180"/>
      <point x="568" y="180" type="qcurve"/>
      <point x="544" y="180" type="line"/>
      <point x="565" y="279" type="line"/>
      <point x="588" y="279" type="line"/>
      <point x="646" y="279"/>
      <point x="724" y="298"/>
      <point x="724" y="322" type="qcurve"/>
      <point x="724" y="329"/>
      <point x="712" y="338"/>
      <point x="695" y="343"/>
      <point x="676" y="345"/>
      <point x="669" y="345" type="qcurve"/>
      <point x="632" y="345"/>
      <point x="580" y="321"/>
      <point x="555" y="301" type="qcurve"/>
      <point x="506" y="390" type="line"/>
      <point x="538" y="418"/>
      <point x="639" y="446"/>
      <point x="689" y="446" type="qcurve"/>
      <point x="758" y="446"/>
      <point x="843" y="386"/>
      <point x="843" y="341" type="qcurve"/>
      <point x="843" y="299"/>
      <point x="779" y="244"/>
      <point x="728" y="236" type="qcurve"/>
      <point x="768" y="230"/>
      <point x="809" y="177"/>
      <point x="809" y="142" type="qcurve"/>
      <point x="809" y="102"/>
      <point x="769" y="46"/>
      <point x="706" y="10"/>
      <point x="627" y="-6"/>
    </contour>
    <contour>
      <point x="290" y="395" type="line"/>
      <point x="267" y="288" type="line"/>
      <point x="53" y="288" type="line"/>
      <point x="76" y="395" type="line"/>
      <point x="129" y="395" type="line"/>
      <point x="176" y="616" type="line"/>
      <point x="169" y="609"/>
      <point x="144" y="591"/>
      <point x="116" y="574"/>
      <point x="87" y="563"/>
      <point x="76" y="563" type="qcurve"/>
      <point x="99" y="672" type="line"/>
      <point x="114" y="672"/>
      <point x="149" y="690"/>
      <point x="179" y="712"/>
      <point x="200" y="730"/>
      <point x="200" y="731" type="qcurve"/>
      <point x="310" y="731" type="line"/>
      <point x="238" y="395" type="line"/>
    </contour>
    <contour>
      <point x="46" y="65" type="line"/>
      <point x="383" y="384" type="line"/>
      <point x="691" y="721" type="line"/>
      <point x="758" y="646" type="line"/>
      <point x="435" y="337" type="line"/>
      <point x="113" y="-10" type="line"/>
    </contour>
  </outline>
</glyph>
<glyph name="twothirds" format="1">
  <advance width="902"/>
  <unicode hex="2154"/>
  <outline>
    <contour>
      <point x="89" y="65" type="line"/>
      <point x="322" y="286" type="line"/>
      <point x="33" y="286" type="line"/>
      <point x="42" y="329"/>
      <point x="65" y="392"/>
      <point x="103" y="441"/>
      <point x="159" y="479"/>
      <point x="200" y="496" type="qcurve"/>
      <point x="226" y="507"/>
      <point x="275" y="526"/>
      <point x="313" y="549"/>
      <point x="336" y="576"/>
      <point x="336" y="594" type="qcurve"/>
      <point x="336" y="612"/>
      <point x="305" y="625"/>
      <point x="279" y="625" type="qcurve"/>
      <point x="245" y="625"/>
      <point x="183" y="598"/>
      <point x="161" y="581" type="qcurve"/>
      <point x="111" y="661" type="line"/>
      <point x="139" y="690"/>
      <point x="246" y="731"/>
      <point x="316" y="731" type="qcurve"/>
      <point x="385" y="731"/>
      <point x="458" y="674"/>
      <point x="458" y="617" type="qcurve"/>
      <point x="458" y="575"/>
      <point x="428" y="515"/>
      <point x="384" y="475"/>
      <point x="333" y="451"/>
      <point x="312" y="445" type="qcurve"/>
      <point x="280" y="435"/>
      <point x="234" y="413"/>
      <point x="229" y="393" type="qcurve"/>
      <point x="400" y="393" type="line"/>
      <point x="391" y="351" type="line"/>
      <point x="426" y="384" type="line"/>
      <point x="734" y="721" type="line"/>
      <point x="801" y="646" type="line"/>
      <point x="556" y="411" type="line"/>
      <point x="588" y="428"/>
      <point x="669" y="446"/>
      <point x="708" y="446" type="qcurve"/>
      <point x="777" y="446"/>
      <point x="862" y="386"/>
      <point x="862" y="341" type="qcurve"/>
      <point x="862" y="299"/>
      <point x="798" y="244"/>
      <point x="747" y="236" type="qcurve"/>
      <point x="787" y="230"/>
      <point x="828" y="177"/>
      <point x="828" y="142" type="qcurve"/>
      <point x="828" y="102"/>
      <point x="788" y="46"/>
      <point x="725" y="10"/>
      <point x="646" y="-6"/>
      <point x="607" y="-6" type="qcurve"/>
      <point x="547" y="-6"/>
      <point x="469" y="28"/>
      <point x="458" y="65" type="qcurve"/>
      <point x="532" y="149" type="line"/>
      <point x="533" y="147"/>
      <point x="544" y="133"/>
      <point x="567" y="117"/>
      <point x="602" y="104"/>
      <point x="628" y="104" type="qcurve"/>
      <point x="664" y="104"/>
      <point x="719" y="121"/>
      <point x="719" y="143" type="qcurve"/>
      <point x="719" y="164"/>
      <point x="650" y="180"/>
      <point x="587" y="180" type="qcurve"/>
      <point x="563" y="180" type="line"/>
      <point x="584" y="279" type="line"/>
      <point x="607" y="279" type="line"/>
      <point x="665" y="279"/>
      <point x="743" y="298"/>
      <point x="743" y="322" type="qcurve"/>
      <point x="743" y="329"/>
      <point x="731" y="338"/>
      <point x="714" y="343"/>
      <point x="695" y="345"/>
      <point x="688" y="345" type="qcurve"/>
      <point x="651" y="345"/>
      <point x="599" y="321"/>
      <point x="574" y="301" type="qcurve"/>
      <point x="528" y="384" type="line"/>
      <point x="478" y="337" type="line"/>
      <point x="156" y="-10" type="line"/>
    </contour>
  </outline>
</glyph>
<glyph name="threeeighths" format="1">
  <advance width="903"/>
  <unicode hex="215C"/>
  <outline>
    <contour>
      <point x="194" y="279" type="qcurve"/>
      <point x="134" y="279"/>
      <point x="56" y="313"/>
      <point x="45" y="350" type="qcurve"/>
      <point x="119" y="434" type="line"/>
      <point x="120" y="432"/>
      <point x="131" y="418"/>
      <point x="154" y="402"/>
      <point x="189" y="389"/>
      <point x="215" y="389" type="qcurve"/>
      <point x="251" y="389"/>
      <point x="306" y="406"/>
      <point x="306" y="428" type="qcurve"/>
      <point x="306" y="449"/>
      <point x="237" y="465"/>
      <point x="174" y="465" type="qcurve"/>
      <point x="150" y="465" type="line"/>
      <point x="171" y="564" type="line"/>
      <point x="194" y="564" type="line"/>
      <point x="252" y="564"/>
      <point x="330" y="583"/>
      <point x="330" y="607" type="qcurve"/>
      <point x="330" y="614"/>
      <point x="318" y="623"/>
      <point x="301" y="628"/>
      <point x="282" y="630"/>
      <point x="275" y="630" type="qcurve"/>
      <point x="238" y="630"/>
      <point x="186" y="606"/>
      <point x="161" y="586" type="qcurve"/>
      <point x="112" y="675" type="line"/>
      <point x="144" y="703"/>
      <point x="245" y="731"/>
      <point x="295" y="731" type="qcurve"/>
      <point x="364" y="731"/>
      <point x="449" y="671"/>
      <point x="449" y="626" type="qcurve"/>
      <point x="449" y="584"/>
      <point x="385" y="529"/>
      <point x="334" y="521" type="qcurve"/>
      <point x="374" y="515"/>
      <point x="415" y="462"/>
      <point x="415" y="427" type="qcurve"/>
      <point x="415" y="387"/>
      <point x="375" y="331"/>
      <point x="312" y="295"/>
      <point x="233" y="279"/>
    </contour>
    <contour>
      <point x="617" y="-6" type="qcurve"/>
      <point x="583" y="-6"/>
      <point x="525" y="12"/>
      <point x="482" y="45"/>
      <point x="458" y="89"/>
      <point x="458" y="116" type="qcurve"/>
      <point x="458" y="140"/>
      <point x="473" y="176"/>
      <point x="500" y="204"/>
      <point x="536" y="225"/>
      <point x="556" y="235" type="qcurve"/>
      <point x="538" y="244"/>
      <point x="513" y="276"/>
      <point x="513" y="301" type="qcurve"/>
      <point x="513" y="331"/>
      <point x="550" y="382"/>
      <point x="608" y="419"/>
      <point x="677" y="440"/>
      <point x="710" y="440" type="qcurve"/>
      <point x="737" y="440"/>
      <point x="790" y="424"/>
      <point x="832" y="395"/>
      <point x="857" y="355"/>
      <point x="857" y="331" type="qcurve"/>
      <point x="857" y="296"/>
      <point x="811" y="249"/>
      <point x="779" y="235" type="qcurve"/>
      <point x="803" y="221"/>
      <point x="833" y="180"/>
      <point x="833" y="151" type="qcurve"/>
      <point x="833" y="118"/>
      <point x="796" y="61"/>
      <point x="736" y="18"/>
      <point x="658" y="-6"/>
    </contour>
    <contour>
      <point x="640" y="103" type="qcurve"/>
      <point x="656" y="103"/>
      <point x="686" y="110"/>
      <point x="710" y="122"/>
      <point x="724" y="139"/>
      <point x="724" y="149" type="qcurve"/>
      <point x="724" y="166"/>
      <point x="684" y="186"/>
      <point x="656" y="186" type="qcurve"/>
      <point x="622" y="186"/>
      <point x="572" y="161"/>
      <point x="572" y="141" type="qcurve"/>
      <point x="572" y="124"/>
      <point x="613" y="103"/>
    </contour>
    <contour>
      <point x="675" y="275" type="qcurve"/>
      <point x="687" y="275"/>
      <point x="711" y="279"/>
      <point x="731" y="288"/>
      <point x="744" y="300"/>
      <point x="744" y="308" type="qcurve"/>
      <point x="744" y="320"/>
      <point x="711" y="335"/>
      <point x="688" y="335" type="qcurve"/>
      <point x="662" y="335"/>
      <point x="620" y="317"/>
      <point x="620" y="302" type="qcurve"/>
      <point x="620" y="289"/>
      <point x="655" y="275"/>
    </contour>
    <contour>
      <point x="103" y="65" type="line"/>
      <point x="440" y="384" type="line"/>
      <point x="748" y="721" type="line"/>
      <point x="815" y="646" type="line"/>
      <point x="492" y="337" type="line"/>
      <point x="170" y="-10" type="line"/>
    </contour>
  </outline>
</glyph>
<glyph name="uni2215" format="1">
  <advance width="624"/>
  <unicode hex="2215"/>
  <outline>
    <contour>
      <point x="-64" y="79" type="line"/>
      <point x="623" y="721" type="line"/>
      <point x="711" y="632" type="line"/>
      <point x="24" y="-10" type="line"/>
    </contour>
  </outline>
</glyph>
<glyph name="radical" format="1">
  <advance width="576"/>
  <unicode hex="221A"/>
  <outline>
    <contour>
      <point x="13" y="395" type="line"/>
      <point x="260" y="395" type="line"/>
      <point x="333" y="127" type="line"/>
      <point x="445" y="790" type="line"/>
      <point x="609" y="790" type="line"/>
      <point x="457" y="0" type="line"/>
      <point x="213" y="0" type="line"/>
      <point x="136" y="266" type="line"/>
      <point x="13" y="266" type="line"/>
    </contour>
  </outline>
</glyph>
<glyph name="lessequal" format="1">
  <advance width="497"/>
  <unicode hex="2264"/>
  <outline>
    <contour>
      <point x="48" y="1" type="line"/>
      <point x="48" y="151" type="line"/>
      <point x="428" y="151" type="line"/>
      <point x="428" y="1" type="line"/>
    </contour>
    <contour>
      <point x="52" y="492" type="line"/>
      <point x="427" y="660" type="line"/>
      <point x="427" y="478" type="line"/>
      <point x="229" y="423" type="line"/>
      <point x="427" y="376" type="line"/>
      <point x="427" y="194" type="line"/>
      <point x="52" y="344" type="line"/>
    </contour>
  </outline>
</glyph>
<glyph name="f_l" format="1">
  <advance width="692"/>
  <unicode hex="FB02"/>
  <outline>
    <contour>
      <point x="481" y="-9" type="qcurve"/>
      <point x="415" y="-9"/>
      <point x="348" y="50"/>
      <point x="348" y="93" type="qcurve"/>
      <point x="348" y="105"/>
      <point x="351" y="117" type="qcurve"/>
      <point x="427" y="473" type="line"/>
      <point x="431" y="493"/>
      <point x="436" y="525"/>
      <point x="436" y="537" type="qcurve"/>
      <point x="436" y="559"/>
      <point x="418" y="580"/>
      <point x="395" y="580" type="qcurve"/>
      <point x="357" y="580"/>
      <point x="321" y="532"/>
      <point x="313" y="494" type="qcurve"/>
      <point x="307" y="465" type="line"/>
      <point x="369" y="465" type="line"/>
      <point x="339" y="322" type="line"/>
      <point x="276" y="322" type="line"/>
      <point x="208" y="0" type="line"/>
      <point x="18" y="0" type="line"/>
      <point x="86" y="322" type="line"/>
      <point x="25" y="322" type="line"/>
      <point x="56" y="465" type="line"/>
      <point x="117" y="465" type="line"/>
      <point x="133" y="540" type="line"/>
      <point x="144" y="592"/>
      <point x="197" y="668"/>
      <point x="272" y="717"/>
      <point x="366" y="740"/>
      <point x="420" y="740" type="qcurve"/>
      <point x="531" y="740"/>
      <point x="632" y="651"/>
      <point x="632" y="575" type="qcurve"/>
      <point x="632" y="560"/>
      <point x="629" y="527"/>
      <point x="625" y="510" type="qcurve"/>
      <point x="563" y="217" type="line"/>
      <point x="562" y="212"/>
      <point x="561" y="202"/>
      <point x="561" y="197" type="qcurve"/>
      <point x="561" y="183"/>
      <point x="573" y="160"/>
      <point x="590" y="160" type="qcurve"/>
      <point x="598" y="160"/>
      <point x="617" y="165"/>
      <point x="635" y="171"/>
      <point x="647" y="176"/>
      <point x="648" y="176" type="qcurve"/>
      <point x="638" y="24" type="line"/>
      <point x="636" y="23"/>
      <point x="607" y="12"/>
      <point x="562" y="0"/>
      <point x="508" y="-9"/>
    </contour>
  </outline>
</glyph>
<glyph name="f_f_l" format="1">
  <advance width="970"/>
  <unicode hex="FB04"/>
  <outline>
    <contour>
      <point x="759" y="-9" type="qcurve"/>
      <point x="693" y="-9"/>
      <point x="626" y="50"/>
      <point x="626" y="93" type="qcurve"/>
      <point x="626" y="105"/>
      <point x="629" y="117" type="qcurve"/>
      <point x="707" y="483" type="line"/>
      <point x="710" y="497"/>
      <point x="714" y="523"/>
      <point x="714" y="534" type="qcurve"/>
      <point x="714" y="556"/>
      <point x="693" y="580"/>
      <point x="666" y="580" type="qcurve"/>
      <point x="634" y="580"/>
      <point x="598" y="529"/>
      <point x="591" y="494" type="qcurve"/>
      <point x="585" y="465" type="line"/>
      <point x="647" y="465" type="line"/>
      <point x="617" y="322" type="line"/>
      <point x="554" y="322" type="line"/>
      <point x="486" y="0" type="line"/>
      <point x="296" y="0" type="line"/>
      <point x="364" y="322" type="line"/>
      <point x="276" y="322" type="line"/>
      <point x="208" y="0" type="line"/>
      <point x="18" y="0" type="line"/>
      <point x="86" y="322" type="line"/>
      <point x="25" y="322" type="line"/>
      <point x="56" y="465" type="line"/>
      <point x="117" y="465" type="line"/>
      <point x="122" y="488" type="line"/>
      <point x="133" y="537"/>
      <point x="177" y="618"/>
      <point x="237" y="675"/>
      <point x="312" y="706"/>
      <point x="354" y="706" type="qcurve"/>
      <point x="417" y="706"/>
      <point x="489" y="676" type="qcurve"/>
      <point x="528" y="709"/>
      <point x="635" y="740"/>
      <point x="698" y="740" type="qcurve"/>
      <point x="809" y="740"/>
      <point x="910" y="651"/>
      <point x="910" y="575" type="qcurve"/>
      <point x="910" y="560"/>
      <point x="907" y="527"/>
      <point x="903" y="510" type="qcurve"/>
      <point x="840" y="217" type="line"/>
      <point x="839" y="212"/>
      <point x="838" y="203"/>
      <point x="838" y="198" type="qcurve"/>
      <point x="838" y="183"/>
      <point x="851" y="160"/>
      <point x="868" y="160" type="qcurve"/>
      <point x="876" y="160"/>
      <point x="895" y="165"/>
      <point x="913" y="171"/>
      <point x="925" y="176"/>
      <point x="925" y="176" type="qcurve"/>
      <point x="916" y="24" type="line"/>
      <point x="914" y="23"/>
      <point x="885" y="12"/>
      <point x="840" y="0"/>
      <point x="785" y="-9"/>
    </contour>
    <contour>
      <point x="395" y="465" type="line"/>
      <point x="399" y="483"/>
      <point x="406" y="520"/>
      <point x="409" y="538" type="qcurve"/>
      <point x="383" y="546"/>
      <point x="363" y="546" type="qcurve"/>
      <point x="323" y="546"/>
      <point x="313" y="495" type="qcurve"/>
      <point x="307" y="465" type="line"/>
    </contour>
  </outline>
</glyph>
<glyph name="C.sc" format="1">
  <advance width="570"/>
  <outline>
    <contour>
      <point x="320" y="707" type="move" name="top"/>
    </contour>
    <contour>
      <point x="319" y="0" type="move" name="bottom"/>
    </contour>
    <contour>
      <point x="249" y="-5" type="qcurve"/>
      <point x="193" y="-5"/>
      <point x="106" y="36"/>
      <point x="46" y="105"/>
      <point x="15" y="194"/>
      <point x="15" y="241" type="qcurve"/>
      <point x="15" y="300"/>
      <point x="69" y="418"/>
      <point x="165" y="512"/>
      <point x="298" y="571"/>
      <point x="376" y="571" type="qcurve"/>
      <point x="458" y="571"/>
      <point x="566" y="504"/>
      <point x="583" y="447" type="qcurve"/>
      <point x="434" y="354" type="line"/>
      <point x="431" y="373"/>
      <point x="411" y="399"/>
      <point x="385" y="414"/>
      <point x="355" y="420"/>
      <point x="341" y="420" type="qcurve"/>
      <point x="304" y="420"/>
      <point x="248" y="389"/>
      <point x="209" y="341"/>
      <point x="189" y="282"/>
      <point x="189" y="254" type="qcurve"/>
      <point x="189" y="232"/>
      <point x="201" y="193"/>
      <point x="225" y="163"/>
      <point x="261" y="146"/>
      <point x="285" y="146" type="qcurve"/>
      <point x="314" y="146"/>
      <point x="380" y="175"/>
      <point x="400" y="211" type="qcurve"/>
      <point x="521" y="127" type="line"/>
      <point x="501" y="95"/>
      <point x="438" y="46"/>
      <point x="365" y="13"/>
      <point x="285" y="-5"/>
    </contour>
  </outline>
</glyph>
<glyph name="G.sc" format="1">
  <advance width="601"/>
  <outline>
    <contour>
      <point x="309" y="707" type="move" name="top"/>
    </contour>
    <contour>
      <point x="321" y="0" type="move" name="bottom"/>
    </contour>
    <contour>
      <point x="372" y="41" type="line"/>
      <point x="337" y="17"/>
      <point x="271" y="-4"/>
      <point x="235" y="-4" type="qcurve"/>
      <point x="187" y="-4"/>
      <point x="107" y="34"/>
      <point x="48" y="100"/>
      <point x="16" y="188"/>
      <point x="16" y="238" type="qcurve"/>
      <point x="16" y="307"/>
      <point x="76" y="429"/>
      <point x="175" y="520"/>
      <point x="304" y="572"/>
      <point x="374" y="572" type="qcurve"/>
      <point x="450" y="572"/>
      <point x="558" y="506"/>
      <point x="575" y="448" type="qcurve"/>
      <point x="428" y="351" type="line"/>
      <point x="420" y="382"/>
      <point x="368" y="421"/>
      <point x="336" y="421" type="qcurve"/>
      <point x="307" y="421"/>
      <point x="254" y="395"/>
      <point x="214" y="349"/>
      <point x="190" y="287"/>
      <point x="190" y="250" type="qcurve"/>
      <point x="190" y="202"/>
      <point x="238" y="147"/>
      <point x="282" y="147" type="qcurve"/>
      <point x="330" y="147"/>
      <point x="381" y="184" type="qcurve"/>
      <point x="292" y="184" type="line"/>
      <point x="318" y="306" type="line"/>
      <point x="569" y="306" type="line"/>
      <point x="503" y="0" type="line"/>
      <point x="363" y="0" type="line"/>
    </contour>
  </outline>
</glyph>
<glyph name="J.sc" format="1">
  <advance width="441"/>
  <outline>
    <contour>
      <point x="310" y="707" type="move" name="top"/>
    </contour>
    <contour>
      <point x="77" y="-9" type="qcurve"/>
      <point x="-1" y="-9"/>
      <point x="-48" y="26" type="qcurve"/>
      <point x="17" y="165" type="line"/>
      <point x="22" y="158"/>
      <point x="72" y="142"/>
      <point x="109" y="142" type="qcurve"/>
      <point x="135" y="142"/>
      <point x="170" y="156"/>
      <point x="194" y="189"/>
      <point x="210" y="241"/>
      <point x="218" y="279" type="qcurve"/>
      <point x="279" y="568" type="line"/>
      <point x="449" y="568" type="line"/>
      <point x="388" y="279" type="line"/>
      <point x="374" y="214"/>
      <point x="336" y="108"/>
      <point x="268" y="32"/>
      <point x="161" y="-9"/>
    </contour>
  </outline>
</glyph>
<glyph name="O.sc" format="1">
  <advance width="634"/>
  <outline>
    <contour>
      <point x="319" y="707" type="move" name="top"/>
    </contour>
    <contour>
      <point x="319" y="0" type="move" name="bottom"/>
    </contour>
    <contour>
      <point x="251" y="-5" type="qcurve"/>
      <point x="195" y="-5"/>
      <point x="107" y="35"/>
      <point x="47" y="102"/>
      <point x="15" y="190"/>
      <point x="15" y="237" type="qcurve"/>
      <point x="15" y="301"/>
      <point x="74" y="422"/>
      <point x="174" y="515"/>
      <point x="305" y="571"/>
      <point x="377" y="571" type="qcurve"/>
      <point x="434" y="571"/>
      <point x="522" y="531"/>
      <point x="581" y="463"/>
      <point x="612" y="376"/>
      <point x="612" y="329" type="qcurve"/>
      <point x="612" y="266"/>
      <point x="554" y="146"/>
      <point x="455" y="52"/>
      <point x="324" y="-5"/>
    </contour>
    <contour>
      <point x="285" y="146" type="qcurve"/>
      <point x="322" y="146"/>
      <point x="380" y="178"/>
      <point x="418" y="227"/>
      <point x="438" y="287"/>
      <point x="438" y="315" type="qcurve"/>
      <point x="438" y="357"/>
      <point x="392" y="420"/>
      <point x="343" y="420" type="qcurve"/>
      <point x="305" y="420"/>
      <point x="248" y="389"/>
      <point x="210" y="341"/>
      <point x="190" y="281"/>
      <point x="190" y="253" type="qcurve"/>
      <point x="190" y="232"/>
      <point x="201" y="193"/>
      <point x="224" y="164"/>
      <point x="260" y="146"/>
    </contour>
  </outline>
</glyph>
<glyph name="R.sc" format="1">
  <advance width="598"/>
  <outline>
    <contour>
      <point x="256" y="710" type="move" name="top"/>
    </contour>
    <contour>
      <point x="256" y="0" type="move" name="bottom"/>
    </contour>
    <contour>
      <point x="112" y="568" type="line"/>
      <point x="392" y="568" type="line"/>
      <point x="431" y="568"/>
      <point x="494" y="539"/>
      <point x="537" y="492"/>
      <point x="560" y="431"/>
      <point x="560" y="399" type="qcurve"/>
      <point x="560" y="343"/>
      <point x="492" y="242"/>
      <point x="435" y="207" type="qcurve"/>
      <point x="529" y="0" type="line"/>
      <point x="336" y="0" type="line"/>
      <point x="257" y="169" type="line"/>
      <point x="197" y="169" type="line"/>
      <point x="161" y="0" type="line"/>
      <point x="-9" y="0" type="line"/>
    </contour>
    <contour>
      <point x="333" y="318" type="line"/>
      <point x="350" y="318"/>
      <point x="385" y="350"/>
      <point x="385" y="380" type="qcurve"/>
      <point x="385" y="400"/>
      <point x="363" y="420"/>
      <point x="350" y="420" type="qcurve"/>
      <point x="250" y="420" type="line"/>
      <point x="228" y="318" type="line"/>
    </contour>
  </outline>
</glyph>
<glyph name="W.sc" format="1">
  <advance width="915"/>
  <outline>
    <contour>
      <point x="438" y="707" type="move" name="top"/>
    </contour>
    <contour>
      <point x="46" y="568" type="line"/>
      <point x="230" y="568" type="line"/>
      <point x="292" y="204" type="line"/>
      <point x="342" y="293" type="line"/>
      <point x="302" y="568" type="line"/>
      <point x="458" y="568" type="line"/>
      <point x="475" y="397" type="line"/>
      <point x="564" y="568" type="line"/>
      <point x="721" y="568" type="line"/>
      <point x="562" y="293" type="line"/>
      <point x="576" y="204" type="line"/>
      <point x="791" y="568" type="line"/>
      <point x="977" y="568" type="line"/>
      <point x="617" y="0" type="line"/>
      <point x="476" y="0" type="line"/>
      <point x="431" y="192" type="line"/>
      <point x="305" y="0" type="line"/>
      <point x="164" y="0" type="line"/>
    </contour>
  </outline>
</glyph>
<glyph name="Y.sc" format="1">
  <advance width="567"/>
  <outline>
    <contour>
      <point x="231" y="707" type="move" name="top"/>
    </contour>
    <contour>
      <point x="170" y="186" type="line"/>
      <point x="45" y="568" type="line"/>
      <point x="229" y="568" type="line"/>
      <point x="286" y="331" type="line"/>
      <point x="445" y="568" type="line"/>
      <point x="630" y="568" type="line"/>
      <point x="340" y="185" type="line"/>
      <point x="300" y="0" type="line"/>
      <point x="130" y="0" type="line"/>
    </contour>
  </outline>
</glyph>
<glyph name="a.alt2" format="1">
  <advance width="565"/>
  <outline>
    <contour>
      <point x="130" y="-10" type="qcurve"/>
      <point x="64" y="-10"/>
      <point x="-14" y="68"/>
      <point x="-14" y="129" type="qcurve"/>
      <point x="-14" y="174"/>
      <point x="26" y="251"/>
      <point x="96" y="307"/>
      <point x="190" y="339"/>
      <point x="245" y="339" type="qcurve"/>
      <point x="301" y="339"/>
      <point x="338" y="319" type="qcurve"/>
      <point x="341" y="335" type="line"/>
      <point x="342" y="341"/>
      <point x="343" y="352"/>
      <point x="343" y="357" type="qcurve"/>
      <point x="343" y="383"/>
      <point x="311" y="408"/>
      <point x="274" y="408" type="qcurve"/>
      <point x="232" y="408"/>
      <point x="153" y="379"/>
      <point x="107" y="351" type="qcurve"/>
      <point x="78" y="469" type="line"/>
      <point x="193" y="536"/>
      <point x="320" y="536" type="qcurve"/>
      <point x="424" y="536"/>
      <point x="533" y="454"/>
      <point x="533" y="373" type="qcurve"/>
      <point x="533" y="343"/>
      <point x="526" y="312" type="qcurve"/>
      <point x="460" y="0" type="line"/>
      <point x="277" y="0" type="line"/>
      <point x="290" y="65" type="line"/>
      <point x="227" y="-10"/>
    </contour>
    <contour>
      <point x="216" y="126" type="qcurve"/>
      <point x="230" y="126"/>
      <point x="262" y="137"/>
      <point x="276" y="146" type="qcurve"/>
      <point x="288" y="154"/>
      <point x="306" y="173"/>
      <point x="308" y="183" type="qcurve"/>
      <point x="316" y="222" type="line"/>
      <point x="303" y="228"/>
      <point x="270" y="236"/>
      <point x="256" y="236" type="qcurve"/>
      <point x="221" y="236"/>
      <point x="171" y="196"/>
      <point x="171" y="167" type="qcurve"/>
      <point x="171" y="149"/>
      <point x="195" y="126"/>
    </contour>
  </outline>
</glyph>
<glyph name="eight.lnum" format="1">
  <advance width="591"/>
  <outline>
    <contour>
      <point x="538" y="254" type="qcurve"/>
      <point x="538" y="197"/>
      <point x="486" y="100"/>
      <point x="401" y="30"/>
      <point x="289" y="-10"/>
      <point x="229" y="-10" type="qcurve"/>
      <point x="185" y="-10"/>
      <point x="107" y="17"/>
      <point x="50" y="68"/>
      <point x="17" y="141"/>
      <point x="17" y="186" type="qcurve"/>
      <point x="17" y="223"/>
      <point x="39" y="283"/>
      <point x="74" y="330"/>
      <point x="114" y="366"/>
      <point x="132" y="379" type="qcurve"/>
      <point x="115" y="393"/>
      <point x="96" y="446"/>
      <point x="96" y="474" type="qcurve"/>
      <point x="96" y="530"/>
      <point x="152" y="618"/>
      <point x="238" y="678"/>
      <point x="337" y="710"/>
      <point x="381" y="710" type="qcurve"/>
      <point x="416" y="710"/>
      <point x="487" y="687"/>
      <point x="544" y="643"/>
      <point x="580" y="577"/>
      <point x="580" y="534" type="qcurve"/>
      <point x="580" y="510"/>
      <point x="565" y="462"/>
      <point x="539" y="421"/>
      <point x="507" y="389"/>
      <point x="490" y="379" type="qcurve"/>
      <point x="507" y="361"/>
      <point x="538" y="297"/>
    </contour>
    <contour>
      <point x="345" y="248" type="qcurve"/>
      <point x="345" y="301"/>
      <point x="295" y="301" type="qcurve"/>
      <point x="260" y="301"/>
      <point x="215" y="253"/>
      <point x="215" y="218" type="qcurve"/>
      <point x="215" y="195"/>
      <point x="242" y="163"/>
      <point x="265" y="163" type="qcurve"/>
      <point x="299" y="163"/>
      <point x="345" y="213"/>
    </contour>
    <contour>
      <point x="289" y="482" type="qcurve"/>
      <point x="289" y="462"/>
      <point x="310" y="442"/>
      <point x="324" y="442" type="qcurve"/>
      <point x="344" y="442"/>
      <point x="383" y="474"/>
      <point x="383" y="504" type="qcurve"/>
      <point x="383" y="521"/>
      <point x="364" y="543"/>
      <point x="346" y="543" type="qcurve"/>
      <point x="322" y="543"/>
      <point x="289" y="507"/>
    </contour>
  </outline>
</glyph>
<glyph name="five.lnum" format="1">
  <advance width="557"/>
  <outline>
    <contour>
      <point x="190" y="-9" type="qcurve"/>
      <point x="115" y="-9"/>
      <point x="9" y="49"/>
      <point x="-12" y="103" type="qcurve"/>
      <point x="117" y="223" type="line"/>
      <point x="137" y="192"/>
      <point x="196" y="157"/>
      <point x="226" y="157" type="qcurve"/>
      <point x="265" y="157"/>
      <point x="312" y="209"/>
      <point x="312" y="250" type="qcurve"/>
      <point x="312" y="274"/>
      <point x="289" y="304"/>
      <point x="267" y="304" type="qcurve"/>
      <point x="249" y="304"/>
      <point x="216" y="285"/>
      <point x="205" y="269" type="qcurve"/>
      <point x="43" y="269" type="line"/>
      <point x="88" y="380"/>
      <point x="171" y="600"/>
      <point x="217" y="711" type="qcurve"/>
      <point x="556" y="711" type="line"/>
      <point x="519" y="538" type="line"/>
      <point x="317" y="538" type="line"/>
      <point x="293" y="461" type="line"/>
      <point x="296" y="463"/>
      <point x="316" y="466"/>
      <point x="330" y="466" type="qcurve"/>
      <point x="372" y="466"/>
      <point x="439" y="439"/>
      <point x="487" y="391"/>
      <point x="512" y="323"/>
      <point x="512" y="282" type="qcurve"/>
      <point x="512" y="219"/>
      <point x="462" y="113"/>
      <point x="375" y="35"/>
      <point x="257" y="-9"/>
    </contour>
  </outline>
</glyph>
<glyph name="nine.denominator" format="1">
  <advance width="430"/>
  <outline>
    <contour>
      <point x="133" y="-6" type="qcurve"/>
      <point x="88" y="-6"/>
      <point x="14" y="24"/>
      <point x="-9" y="53" type="qcurve"/>
      <point x="69" y="130" type="line"/>
      <point x="83" y="114"/>
      <point x="130" y="97"/>
      <point x="159" y="97" type="qcurve"/>
      <point x="202" y="97"/>
      <point x="261" y="132"/>
      <point x="269" y="164" type="qcurve"/>
      <point x="252" y="153"/>
      <point x="196" y="144"/>
      <point x="173" y="144" type="qcurve"/>
      <point x="102" y="144"/>
      <point x="20" y="213"/>
      <point x="20" y="266" type="qcurve"/>
      <point x="20" y="302"/>
      <point x="56" y="367"/>
      <point x="118" y="416"/>
      <point x="198" y="444"/>
      <point x="243" y="444" type="qcurve"/>
      <point x="315" y="444"/>
      <point x="390" y="359"/>
      <point x="390" y="283" type="qcurve"/>
      <point x="390" y="220"/>
      <point x="353" y="114"/>
      <point x="285" y="37"/>
      <point x="190" y="-6"/>
    </contour>
    <contour>
      <point x="198" y="239" type="qcurve"/>
      <point x="216" y="239"/>
      <point x="250" y="248"/>
      <point x="276" y="263"/>
      <point x="292" y="283"/>
      <point x="292" y="295" type="qcurve"/>
      <point x="292" y="315"/>
      <point x="251" y="344"/>
      <point x="220" y="344" type="qcurve"/>
      <point x="202" y="344"/>
      <point x="168" y="334"/>
      <point x="142" y="317"/>
      <point x="126" y="296"/>
      <point x="126" y="284" type="qcurve"/>
      <point x="126" y="264"/>
      <point x="167" y="239"/>
    </contour>
  </outline>
</glyph>
<glyph name="nine.numerator" format="1">
  <advance width="430"/>
  <outline>
    <contour>
      <point x="81" y="552" type="qcurve"/>
      <point x="81" y="588"/>
      <point x="117" y="653"/>
      <point x="178" y="702"/>
      <point x="259" y="730"/>
      <point x="304" y="730" type="qcurve"/>
      <point x="375" y="730"/>
      <point x="451" y="645"/>
      <point x="451" y="569" type="qcurve"/>
      <point x="451" y="506"/>
      <point x="414" y="400"/>
      <point x="346" y="323"/>
      <point x="251" y="280"/>
      <point x="194" y="280" type="qcurve"/>
      <point x="149" y="280"/>
      <point x="75" y="310"/>
      <point x="52" y="339" type="qcurve"/>
      <point x="130" y="416" type="line"/>
      <point x="144" y="400"/>
      <point x="191" y="383"/>
      <point x="220" y="383" type="qcurve"/>
      <point x="263" y="383"/>
      <point x="322" y="418"/>
      <point x="330" y="450" type="qcurve"/>
      <point x="313" y="439"/>
      <point x="257" y="430"/>
      <point x="234" y="430" type="qcurve"/>
      <point x="162" y="430"/>
      <point x="81" y="499"/>
    </contour>
    <contour>
      <point x="281" y="630" type="qcurve"/>
      <point x="263" y="630"/>
      <point x="229" y="620"/>
      <point x="203" y="603"/>
      <point x="187" y="582"/>
      <point x="187" y="570" type="qcurve"/>
      <point x="187" y="550"/>
      <point x="228" y="525"/>
      <point x="259" y="525" type="qcurve"/>
      <point x="277" y="525"/>
      <point x="311" y="534"/>
      <point x="337" y="549"/>
      <point x="353" y="569"/>
      <point x="353" y="581" type="qcurve"/>
      <point x="353" y="601"/>
      <point x="312" y="630"/>
    </contour>
  </outline>
</glyph>
<glyph name="one.denominator" format="1">
  <advance width="360"/>
  <outline>
    <contour>
      <point x="5" y="107" type="line"/>
      <point x="104" y="107" type="line"/>
      <point x="151" y="328" type="line"/>
      <point x="143" y="321"/>
      <point x="112" y="303"/>
      <point x="76" y="286"/>
      <point x="38" y="275"/>
      <point x="24" y="275" type="qcurve"/>
      <point x="47" y="384" type="line"/>
      <point x="66" y="384"/>
      <point x="110" y="402"/>
      <point x="149" y="424"/>
      <point x="175" y="442"/>
      <point x="175" y="443" type="qcurve"/>
      <point x="285" y="443" type="line"/>
      <point x="213" y="107" type="line"/>
      <point x="303" y="107" type="line"/>
      <point x="281" y="0" type="line"/>
      <point x="-18" y="0" type="line"/>
    </contour>
  </outline>
</glyph>
